<mxfile host="app.diagrams.net" modified="2020-07-23T18:10:17.554Z" agent="5.0 (Windows NT 10.0; Win64; x64) AppleWebKit/537.36 (KHTML, like Gecko) Chrome/80.0.3987.122 Safari/537.36" etag="HYuNQe5Em_xbeuE3XJ0J" version="13.5.1" type="github">
  <diagram id="C5RBs43oDa-KdzZeNtuy" name="Page-1">
    <mxGraphModel dx="1209" dy="1798" grid="1" gridSize="10" guides="1" tooltips="1" connect="1" arrows="1" fold="1" page="1" pageScale="1" pageWidth="827" pageHeight="1169" math="0" shadow="0">
      <root>
        <mxCell id="WIyWlLk6GJQsqaUBKTNV-0" />
        <mxCell id="WIyWlLk6GJQsqaUBKTNV-1" parent="WIyWlLk6GJQsqaUBKTNV-0" />
        <mxCell id="spAQAHMtD3b3j4mXvkF8-140" style="edgeStyle=orthogonalEdgeStyle;rounded=0;orthogonalLoop=1;jettySize=auto;html=1;exitX=0.5;exitY=1;exitDx=0;exitDy=0;entryX=0.5;entryY=0;entryDx=0;entryDy=0;fontSize=10;" parent="WIyWlLk6GJQsqaUBKTNV-1" source="spAQAHMtD3b3j4mXvkF8-7" target="spAQAHMtD3b3j4mXvkF8-10" edge="1">
          <mxGeometry relative="1" as="geometry" />
        </mxCell>
        <mxCell id="spAQAHMtD3b3j4mXvkF8-7" value="" style="rounded=1;whiteSpace=wrap;html=1;" parent="WIyWlLk6GJQsqaUBKTNV-1" vertex="1">
          <mxGeometry x="140" y="120" width="160" height="170" as="geometry" />
        </mxCell>
        <mxCell id="spAQAHMtD3b3j4mXvkF8-9" style="edgeStyle=orthogonalEdgeStyle;rounded=0;orthogonalLoop=1;jettySize=auto;html=1;exitX=0.5;exitY=1;exitDx=0;exitDy=0;entryX=0.5;entryY=0;entryDx=0;entryDy=0;" parent="WIyWlLk6GJQsqaUBKTNV-1" source="WIyWlLk6GJQsqaUBKTNV-3" target="spAQAHMtD3b3j4mXvkF8-7" edge="1">
          <mxGeometry relative="1" as="geometry" />
        </mxCell>
        <mxCell id="WIyWlLk6GJQsqaUBKTNV-3" value="Leer directorio de &lt;br&gt;los Centros de Venta&amp;nbsp;&lt;br&gt;Barcel y Bimbo" style="rounded=1;whiteSpace=wrap;html=1;fontSize=12;glass=0;strokeWidth=1;shadow=0;" parent="WIyWlLk6GJQsqaUBKTNV-1" vertex="1">
          <mxGeometry x="140" y="40" width="160" height="50" as="geometry" />
        </mxCell>
        <mxCell id="spAQAHMtD3b3j4mXvkF8-0" value="&lt;b&gt;Archivos excel con campos:&lt;br&gt;IP, DSN, Org, Password, User; Puerto&lt;/b&gt;" style="text;html=1;align=center;verticalAlign=middle;resizable=0;points=[];autosize=1;" parent="WIyWlLk6GJQsqaUBKTNV-1" vertex="1">
          <mxGeometry x="320" y="222.5" width="230" height="30" as="geometry" />
        </mxCell>
        <mxCell id="spAQAHMtD3b3j4mXvkF8-1" value="" style="shape=image;html=1;verticalAlign=top;verticalLabelPosition=bottom;labelBackgroundColor=#ffffff;imageAspect=0;aspect=fixed;image=https://cdn3.iconfinder.com/data/icons/document-icons-2/30/647702-excel-128.png" parent="WIyWlLk6GJQsqaUBKTNV-1" vertex="1">
          <mxGeometry x="180" y="130" width="80" height="80" as="geometry" />
        </mxCell>
        <mxCell id="spAQAHMtD3b3j4mXvkF8-2" value="" style="shape=image;verticalLabelPosition=bottom;verticalAlign=top;imageAspect=0;aspect=fixed;image=data:image/png,iVBORw0KGgoAAAANSUhEUgAABQAAAAJXCAYAAADMyPk2AAAABGdBTUEAALGPC/xhBQAAACBjSFJNAAB6JgAAgIQAAPoAAACA6AAAdTAAAOpgAAA6mAAAF3CculE8AAAABmJLR0QA/wD/AP+gvaeTAAAAB3RJTUUH4gcREh00DKcTdAAAgABJREFUeNrs3XV4FNf+BvD3zEqyGzcgCYFABAme4LSlVCjU3YW6K1JvKrdCvbT9VW/l9taoG/VSo8WKleLEhbiu75zfHwEubaHAZmb1/TxPy0KyZ2a+58zszHePCBARERERERERUViZPLnYWN3Z+RigHAwh50sFb236de46RiYyCYaAiIiIiIiIiCh8DJg4O0668SYkpv/Dr5UI4GOpivkblz/wE6MW3pgAJCIiIiIiIiIKEwPGzOwnpeETQA7ej7eVCuCj7cnAnwFIRjK8MAFIRERERERERBQG8gpnjhWK8iGAnj4XIlAmJD5kMjC8MAFIRERERERERBTiBhTNPkkKvArAolWZAigH8AGTgaGPCUAiIiIiIiIiohA2YPSsayTEIwAUHTdTIYD3u5KBlkVAscrIhw4mAImIiIiIiIiIQlBBQXGs22p7HsBpft50AwQWqFLM7x1jWbBwYbGHtRHcmAAkIiIiIiIiIgox+YU3DYTifQdAQYB3ZWcyMEFt/nz58ufcrJ3gwwQgEREREREREVEIyRsz5wwh5XMAYoJs1xoh8BmTgcGHCUAiIiIiIiIiohCQm3tVlCHJMlcCV4fA7jZB4FNVivlRNssXa9cWu1iDgcMEIBERERERERFRkMsZfX2WAca3AYwLwd1vhsAnTAYGDhOARERERERERERBLG/MrKOEFK8ASA6Dw2mBlB+pQnkHzbYvN2+e52QN648JQCIiIiIiIiKiINR7/HWWGI/pfglchTDM4QjAJoFvIeR8U2fMe2vXFnew1nWLNRGFm9yxV8UbRUyyx4MkRajJQiJJFTJWQJglRLwAjIBMBGAEEAcgChBWSGmFEFGAjAdg+MvFwiUhOv/5gqLaJRTH33+iOgFh216OQwL27W9wiO2vVQm7ALreK2EXinQAgArFJqR3+zdCxlZFgaqqaFYMUE1GtKrN0W5+SBARERERUdg9142ZOV6B8iokciPigAU6IPGJlPKdThmzoHp5sY2tQMvwElFwO/lkw4DN/XpKo5IppJoOITIl0AsSSVLIZCGQBIlkAEnAzj+NERgpJwAbuhKKDgCdAFyQaIMQXilki5BQAbQA0g2IDgCtEuhUBDoB2QaJdinQqXrRqSiGFreidFo7zJ1MMBIRERERkb8UFBSb3TH2OyDlHPylY0YE6QTEZwJ4J8rp/XT16oc62TK6hwlAogDKnlwcbXLY+kEV/QXUdKgiUygyHRIZEiIDQAaAngAURivgWtDVPb1TAG0Ssl1I0QmBDgCtAJq3/9kqINq8QKsAWoVAq6KIVpMRrWt+ur+ZYSQiIiIioj3JHT2nQIH8D4CRjMZOdgALpJTvKFHikw0/z21nSPYfE4BEOssecW1idFR0jlRljoTMgUSOFDJHQOQA6M3zMOK0iq6eh60QaIWKViFkq7ozYag0S6hNUoomg1SapMHT5IXSZPNYm9gFnoiIiIgoXBUr+WPs10LKfwGIZjz2yAEhvxBSecet4uOtyx9oZUj2DRMPRBqdSwPGzMyGqgyVAgWQGAqBHAA5AFIYHtLsw66rp2ETgCYI2SSkaJJAE6RskopoUqRokvA2qapoMpoMTYb26AYOYSYiIiIiCl6DimYO8QrlWQATGI394gTwFQTeiTIrH3HE1T9jApBoPw2ddGOS0y4LoMjBAiiQQCGAYehaTIMoWD8YmwDRDMhmAM0QaIZEtYCskQLNqlSaFRXNUES1yRZduXZtsYthIyIiIiLST+/x11msXtMcSNwEwMyIdIsXwK8Ccr5LMb1ZsvjebQzJnzEBSPQPckZfn2UUhnFSirEARgAYgq45+YjCXasE6hSgAZANgGiAQIOU2AYh64VEnRRKjXDL+vQEa93ChcUehoyIiIiIaN/kF82ZBiGfAtCP0dCcB8B3AN5RPYb3N6+4r54hYQKQaKeCguJYd7R9hFDUQilEISQOAJDNyBDtEweAagA16BqmXA2BGiFlMwSqpVepURU0qyoqOU8HEREREUXsc+foWb3cQsyFxNmMhl+oAH4RkPMV1fT2uuX31kRqIJgApIht+wML5wxRFYyDlGOlwFgBDELkLrFO5M9Png4pUSOAOkjUCyFtEqJDAjZFohNC1gOiQZWoUwzqNriUBqPL2sBhyUREREQUuoqV/NG2SwHcCyCB8QgIrwB+khLvCC/e27BibnVkPYYRRYiBY27K98I7RUgxBZCTAaQxKkQhpQVAHYB2AXRACqcUshlSrlYV+R2anL9t3jzPyTARERERUVA9ixbdOFkK9WEJjGI0goYKgUVCyne8inh38+K5leF+wEwAUtjqXzinj0FRpwghpqAr6ZfJqBCF/Yd4BSQqAWGXkDYB4RRCbZJS2QYp64Uit6lS2QaDrDeohrr1S+5rZNiIiIiISA8Dx9yUr8IzF1Icy2gENSmAX6UQ7xjcnnfXrXi4LBwPkglAChvZI65NNJtMUwFxCAQOhkQuo0JEe+EGUI+unoU1kLIeQtQDqIGQ9VCVehWiVjE560xtCfUchkxEREREezNwzE0pqqreASEvBWBiREKKBLBUSryjKOo7G5Y8VBIuB8YEIIX2hXXcjdmqVz0cwNEADgeXTicife2y2ImoFpA1EKiWkDWQslqFocbgkc0bVsyt2X7zQEREREQRorDwYlO7kjgDwL8ApDIi4UD8ASHnCxVvbFg2d0NIHwkrk0JLsZJX2DFaGAzHQMqjAQxlTALDEm2CyWQEAERHmxBl7nodZTYhKqrrtdlshCW6ezlZj9eLzs6uad1cbi8cjq4OWA6nG06nBwBgd7jgdntZKRRMH6422bUicq0UqBGqqJGK3AYpq4REnSKVCo+q1G5ecV89o0VEREQU+rd/A0bPOVlC3gegP8MRtlZKgXcUFe+EYjKQCUAKer3HX2eJ9pgPVSCPRldPv16Myv6JjYlGSnIMEhNiEBsThbhYC6wWMywWE6yWKMTFRsMSbYLFYkZcbDSslihYLGZYd/7dvDOZZzIF90LJnTYnvF4VANDWboeqSrR3OOB0uuFwutHe4YDL7YXN5oTN7oLL5dn5c6fLg7Z2O1xuD+x2NzptTnR0ONDe6UB7hwN2O0d/kuacAKohUAWJKgnUCCEqJFAroFZ4PYYaZ5SzqvKXR+0MFREREVHQEfljZh4HVSmGwDCGI6KsAeQ7qqK+s3nxw3+ERGNlnVEwmjy52Fjd0Xm4FOIMIXAsJGIZlS4Gg4K0lDj07JGAxAQrkhKsSEyM2f46BslJ218nxnT9LMEKo9HAwGnA61XR3tGVDGxrt29/3fVnR4cDHZ3OnT/f8TutbTY0t9rQ0toJm40JRPJZkwSqBVApgBoJUSGFrJFSVBkVUS08SvW65ffWgsOOiYiIiPxBDCiac4wUshjACIYj4pvDH0BXz8D1yx9YE7R7yYqi4LqIzpogBU4HxCkA0iItACaTAWmp8UjvmYD0Honokdb1umePrv8yeiYiJSUWBkVhawlBLpcHrW12tLR2ornVhtY2G1pabWhu6UoQtrTa0LL931pabDuThzt6NBLthRvANgFUSKBGAJUQqJYqqoUBlapArbndWrF2bXEHQ0VERETkm9zRc45WIO8AUMho0G5sEBLvqEK+s2npgyuDaceYAKRguIAWKAJnQMozAGSH+/GmpcYhOysVfbNSkd2n68/0nono1SMBqSmxEIKnJf2PlBJNLZ1oau5Ec3Mn6hra0NTcgabmTtQ1tqN5x+uGNjQ1d8LhdDNotDftkF3JQUhZBSGqpJA1iqqUQ5FVitdYxd6ERERERH+WXzRrOgSKATGa0aB9IrAZkA9sXPLgC8GxO0SBuHiOvy5TeM1nyq6k3/BwO77kpBj0zUpFvz5p6JOV8r+EX1YqrFYuVEz6sdlcqG9sQ2NTB5paOlHf2I6GxnbU1behvqEddQ1tqGvo+rmqMr9De+SCQA0kKgFUAKgSkBWqRKVUZLVi8JZv7F1Zi/nzufoOERERha2uqansJ0HImWCPP/KNWzEo+et/vb800DvCBCD5UbGSO7bzUEVVLkXXgh7GUD8iq9WMAbnpGJiXjkH5GRiYl45+fdMQH2dhdVNQ83pVNDZ1YFt9G+ob27GtvhUNje3YVteG+u1JwrqGdjQ1M1FIe25GgKgVkOWqQBWkqBKQFZCiChKVBtVTobjiatauLebkl0RERBRSBkycHQcnLpAKroVEX0aEukXgyY1L5l4V+N0g0ll+4Q2pUhhmCAUXQyI3VI+jV48EDMxLx8D8DAzK70r4ZWWmQFF4GlH48npVNDS1o3ZbK2rrWrGtrhXVtS3YVt+G2rpW1NS2oK6hjfMU0p5IALUAqiBkFVSlXCiyClJUqUC5VNUqT1xMVenCYgdDRURERIE2YOTsDGnE1QAuAZDIiJBGWqOdaubq1Q91BnInmLkg3eQXzpkkFXmpAE4CEBVK+94jLR6Fw7MxdHDWzmRfUmIMK5VoN1RVoqGxHdXbWrCNSULyTT2AKgCVErICQLUQKIcUVdKAaotNLQ/0DRMRERGFr4GFc4aqirwBwOkAOGcTaU4IXLhhydwXA7oPrAbSUu7Yq+IVr/VsKeSlAhgSCvusKAK5/XuicHg2Rg3LRuGIbGSmJ7EyiTTkVVU0NLajqroZVbUtqKltQXVtM6prW1Bd04yq2mbYbBwpSv+oFRBVQqJSClQDKJcS1VDUKgGlQnUr1ZtX3FfPMBEREdG+KCy82NQmEo4RQrkUkIeA+RHSlVy6cemDYwK5B2zgpIl+Y2/uaZKeyyBxDYK8q7Ql2oRBAzK7En7Ds1E4vC8S4q2sRKIAczjdqG9oR0VVIyqqmnb+V9fQNS9hVU0z5yOkvXEBaARQDYitArIGAtUSsgZSVgPGrXFqU8Xy5c9xuWwiIqIINWDk7AyYcDYkLpdAH0aE/EVRlKL1i+9fHqjtMwFI3ZJfeNNAaVBnCSnPQpB2lY6OMqFoRD9MGJuHMaP6Y/CADBgMCiuPKMQ4nG5U1TSjuqYZldXNqKxuQkV1EyqrmlBZ3YzWNhuDRPvCC2AbgEpIVAOiYse8hF6oFSYF1e2Kp7Lyl0ftDBUREVG4KFYGjO48XApcCimOAmBgTMj/5FMblz54ZaC2zgQg+SR37OxxihdzIHAMgKDKpimKwKD8DEwYk4eJY/Mwang2osxGVhpRmOvodOxMDO5IClZWN+38z+5gpy/aL40SqOmaixDVkKgUkBUwiBJItTTdGluxcGGxh2EiIiIKXjkTZvYwepQZUuJiAP0ZEQqwuowYa2ag7iGZAKT9ai/5RbOmCSFmS+CgYNoxq9WMSWPzcdDEgZg8cSBSU+JYW0T0Jw1NHbskB7uGF5dXNqK8shHb6tsgJYcX037xAKiARKlURIkiZSkgSiDVEnhFyYYVc2vQtQoyERER+VH25OLoKFvn0ZA4W0IcAcDEqFCwEJDTNix98PPAbJtor4qVvDH204Qq50BgWLDsVXrPRBx6UAEmHzAQY0b2h5m9/IjIR06XpysZWNGI8qpGlFU0oKKyCWWVDaiubeEKxuRTswJQCqBESpQqiigB1BIpDaVQ3SUblz/cwBARERFpRuSPmTUJUpwD4CQE+bz0FMGkfHXjsgfPDchJwujTP8kfPfNQQHkQwIhg2J+M9CQceuBgHHHIMIwa3hdCsAkTkb48Hi9qtrX+bXGSiqpGbC2rh93O1YvJJw5sX6wEkFuFwPY/DVsdTseW0pWPtTBERERE/2zQyBv6qibDaRK4EBK5jAiFgPYO1dqrenmx3ycwZ/aEdit39KyDDBD3SWB8oPclMz0JRx8xEkccMhSD8jNYOUQUNFRVoraudedQ4rKKhp1Di8sqG2CzMTlIPmsEUCoFSpTtvQghRYk0ylJ3tLWkdGGxgyEiIqJI1L9wTh+TkCdIRZwGKccyIhRqBMSpG5Y+8Lb/t0u0i0FFM4d4heF2QJ4cyP2Ij7Pg4AMG4bjpozB+dC57+hFRSGprt+/sLfjX3oMVVU0MEHVHM4CtO3oQdr1Wt6ow1DiMrq1cxZiIiMLqOXXkDX1Vo3KchDgZwAQwl0GhTOKDjcvmHu/vzfKkIQDAwDE35avSezeAkwPVLoxGA6YcMAgnHF2EA8blw2jkyuxEFL7a2u3bew12zTtYXtGIkrJ6lJTXo6XVxgBRd3ghUCmlLBFQSgG1BFJ0/Wd2lWz8JaEGKObElkREFNTyC28aKA3eE4XEiQBGMiIURpwut6uXv6d8YQIwwuWOnd1bUXEHgPMABGQVjZzsHjjp2NE4dvoopCTFslKIKOK1ttlQUt6AkrJ6lJY3bP+v67XD6WaAqNs3nQDKdvwngHIpZJmUSqnBIMpj3E1Vy5c/x4ZGRET+JgaMmV0opTgakCcCKGBIKGwbO3DWhqVz/+vnbVIkys29KkpJslwP4BYAMf7evtlsxPRDh+HU48di1PBsVggR0T6QUqJmWytKy+tRVtGIkvL6nUnCqupmeFV26iJNeAFUQ6AMUpZCKOVSRbki1DKvopbbPHGlgZi4moiIwk/2iGsTo8ymw6RUpgNyGoCejApFAgHx7oalD5zk321SxBkw5sYpUsp5gBzs722npcbh1OPH4syTJiA5KYaVQUSkkb+uVrx56zZsLqlDRVUjKqubIaVkkEhLzYCoAVC96yrG0qvUQBHVG5feXwKAjY6IiP4mf/SN/QW8R0soRwHyQABmRoUijQBs7ao1zZ9fqjIBGEEGjJnZT6rKIxA4zt/bHj2yH84+dSIOPagABoPCyiAi8qOOTsfOocQl5fUoLdv+Z3kDOm1OBoj00AmIMkCWCSHLVYlKIVCuqIZyt4pK0dZZsXnzPDY+IqIIMHDMTSle1TNZUXCYlGI6gCxGhUKB2WxElNmI9g6HLuULiWM3LJv7kb+OhwnACFBQUGz2WDsvk0LcAwm/TbKnKAIHTRiIS2YcjJFD+7IiiIiC0I6VijdtrcXmrXU7VyneUlLH+QZJb3/rRSghayBlNWDcmhETXb5wYbGHYSIiCi3Dhs2McURhPKAcCuBQdC3gwV4gFDLMZiOOP7IQl19wCF56/Ue8/PqPOm1JvLxx6QMz/HVcTACGuQFFs4+RAo8C6O+vbUZHmXD8UYWYccaB6JuVwkogIgpBXq+KyupmbC2rw9bSrrkGS8rqsaW0Ds0tnQwQ+YMbAtUAKqREmYCsgFQqVYFyRaBcgVK5fsl9jQwTEVFg9R5/ncXqMU2AEFOElAdLYDQCtMAkUXdYrWacceJ4zDjzQKQmd/WdWrx8C8657Dm9NtmYEWPt5a8vPJkADFODRt7Q12syPA2J6f7apiXahNNOGIcLz5m882QhIqLw09Jq25kMLCmrx9ayemwpqUNldRO8Xi5EQv4jAJuUKINAJSCq0LWicQ0gKyFRqZpk9ZZFD9UxUkRE2skvvCFVVYzjFcjxACYCGAsgipGhUBUXG42zT5mIc0+fhMQE659+5vWqGHf4XWhrt+tzL6NgyobFc7/z030Thdu9cP7o2RcB4kFAxvtjg5ZoE049YRwuYuKPiCiiud1elFc1YmtpHUrKGrC1tA5bt/cc1OumiWgfOAFUAagSkBUAqgFUqhKVBqHUeBRZ3ttireVwYyKi3SlWckfbBynABAAT0JX0G8C4UDhISYrFWadOwFknT0B8nGWPvzfz9jfx8ecr9NkJKeZtXPbA1f44XiYAw0jO6OuzjNL0ghTycH9sz2Qy4PQTx+OScycjNSWOFUBERHvU0NiOraVdvQVLyrt6DJaU1aO6thmqysViKeBUALUAKiFRDYgKocgqSFHlhVphUlDdrngqK395lJlsIgpruSNvSjOa1FGqVMcCYjyA8QASGBkKJ316p+D8Mw/E8UcVIjrKtNff//iLlZh52xt67U7FxqVz+wLQ/YaYCcDwIAaMmX2+lOIRf/T6E0LgqMOH49rLpqJ3RjKjT0REPnO6PDvnFyzZPpS4pLwrSWizuRggCjbN6OpBWA0payBQLSFqFIlqQNZAkdVOa2xN6cJiB0NFRMEuZ8LMHgaXoVAqcpSQolBAFkqgDyND4WrIoN646JyDcNjBQ2BQ9n1dmuaWTkw84h54VX2muhECozcsmbtM7+NnAjDE5Y6d3VtR8TyAI/yxvQlj8jDzymkoGJjJ4BMRka6qa1v+tPhIaXkDSsrqUbOthcGhYNcIoFZIUdU1JyGqpZA1kKLKAFErPJ4qd7urdvPmeU6Gioj89tzolcOEEIVSyEJIMQpAFiND4U4IgYlj83DROZMxrijH53JOOf8prPq9XKe9lHdsXPrgXbrHgs0hdOWNnj1DAI8ASNR7W32zUnHL9UfjoIkDGXgiIgqoTptzZ2Jw8/ahxFtL61Ba0QC328sAUShpkF1Dj6sEUCskKlVFblNUUSMVuU2oog5RqN7w89x2hoqI9sXAMTeleKRniAJRICWGCgVDIDHEH8+MRMEkOsqEY6aNxDmnTUJe/57dLu/J57/GvOe/0mt3f924dO54vWPCBGAIGlR4c7pXeJ6HwJF6b8tqNeOyGYfgvNMnwWzmSu5ERBS8vF4VldVN2FLStfjI1rJ6bNm6DVu5CAmFPjuAbQKoUYF6RcgaKZVtkKiD4q0WqqhTDKgz2WX16tUPdTJcROFv4JibUjxw5xugDJYQBZByCIAhANIZHYpkPdMScMZJ43Dq8WORlBijWbmrfi/HKec/pdttLFRvr43LH27QMzZMAIaY/KJZ0yHEywDS9N7WUYePwOxrpqNnGud8JSKi0NbQ1IGtOxODdTuThDW1LZCSi5BQ+BCATQI1ALoShALVkKgTQtRBoloI1KsQtSZbdN3atcUdjBhR8MooLLbGGux5Amq+VJEHIfLRtQJvPgBOxk60i2EFWTj3tEk44pChMBoNmpevqhITjrgbzS36fM8mhThz05IHXtf5HoFCQUFBsdkdY78fUl6rd71lpifhrptPwKSx+Qw8ERGFNbvDvXMI8ZbSOmwt3b4gSXk9XC4PA0ThzgGgQQB1EqgDZIOEaBBS1gtFbIMqGoRAPYTS4HDZ60pXPtbCkBFp/Jw3elYvpyKyFVX2FUJkA7KflCIXXUm+3nxmJ9ozs9mIIw4ZijNPnoARQ/Rfv2bm7W/i489X6FS6fG3j0gfP1nP/eTEJAQPH3JQvpfcNCYzSczsGRcFZp07AdZdOhcViZuCJiChieVUVVdXNXcOId8wzuL3nYEurjQGiSOUGUA+JBgjUd/UsRD2ABkA0SOGtBUSDVESDdBoaNudubsL8+ZyYkyJYsTKo0NXTA1cfoYhsIZS+qlSzBUQ2JLIhkA3AwjgR7Z/eGck47YSxOPHo0UhOivHbdj9asAKz7nhTr+LrNy619gKKVb02wARgkBtQNOdYKeTL0HnS1rycXvjXLSdi+BCu+k5ERPRP2trtqKhqwqattdi8tQ4VVU3YvHUbSsrq4VVVBojozxwAmgHRDMhmAM0QaBYSzVKgWUjZLAWaVak0KyqaVQXNBo9sjlVa6pcvf87N8FGwyp5cHG3udGRAlRnCoKZDIkNCpEMgA1KkA7I/ulbZNTFaRN2nKALjinJx6vFjcNjBQ2BQFL/vQ3NLJyYccTdUVafpYyTGblw2d4le+88EYJAqLLzY1G5IekDvIb9msxGXzZiCi8+drMs4eSIiokjhdHl2DifeWtrVY3DHkGKHk3kMIh+0AmgWQJPEjoQhmqWUzUIozVKiWRFoVqVsVhQ0CxjapNvb4TXbOzYvntfG8NH+PhvnTJiZJtyGNEBNVYBeUqCHkEqqlLKHAHpBQSok0gCRDsh4hoxIfz3S4nHCUUU45bgxyExPCvj+nDzjSaxeW6HTVQh3blwyt1i3ixybU/AZMHJ2hjThLUhM0nM7o4Zn455bTkROdg8GnYiISCeqKlFd24yS7cOJt5Z1JQU3l2xDUzMXbCXSUSsgOgDZAaADEM2QsgNCdkgpOoRAK6Rsk0J0KFJ2QEG7V6DVqCodUvF2SNXYERWFZrO9qYO9EUNH7/HXWRI8xgSXQSQZvCLJK9RkoYokKZAkJJKEQLIUSIJEEoAkSCRDIBldiywqjCBR4BkMCiZPGoiTjhmDgyYMgMEQPKfmE899hade+Fqv4pdsXDp3rF6FMwEYZPIL50yCIucD6KXXNmKsUbjhimk4/cRxUBQ2ASIiooBlJ9ps2Fpajy2ldbskCOtQWdXM4cREwcUJoANdvRLbALgA0SYhvQKiDZAqgFYhpJRStABSCiFaAEBKNAOAELIZAFRVtAihSsDYqihQ3W60GgxQobrboiwmb4oxun3hwuKwXoWo9/jrLEmGqGi7W41RVMUs4Y03KAaDqqqJUkJRFJkoVcUAIeMhYYYQsYBMBGQsIGKlQIyQIhECcZAyFkAMgAQA8QA4rIkoRGX3ScVJx4zG8UcWIjUlLij3ccXqMpx24dN6Fa+qHkOvzSvuq9ejcGZ/gkj+6DkXAfJJALqtwDFiSB88eNdp6NM7hQEnIiIKUi6XB6XlDV1JwbI6bN3ec3BrWT3sdhcDRBQZ2gF40LX4SsfOf5VwQsC2yxOdHVI4/vdjaRMQzn3ZgBRoF1L+JdkorYAStZd3xgHC+L9dkCYJxG7/q4KuZNwOCfhfz7pYcE48ItpFjDUKU6cMxQlHF6FoRDaECO40lderYvQhxei0OXUpX0CcvWHpA6/pUbaRzS3wJk8uNlZ32u4B5By9tqEoAmedPAFzrjmSc/0REREFObPZiPzcXsjP/fuAgLZ2OzZt2YbNJduwees2bC6pQ0VVIyqrmyGlZPCIwseu3V967PJ0+Gdy5/92+fG+XQuE3P3j5769X+7mFRHR3imKwIihfXHc9FE4eupIWK3mkNl3g0FB0ch++P7n9bqUr0IeAYAJwHCUX3hDalVn53wBMVmvbWT0SsTcO0/D6JH9GHAiIqIQFx9nQeGIbBSOyP7Tv7e127fPLdg1nHjHPIMVVU3wejmcmIiIiAIrP7cXjpteiKOnjkCPtNBdR2f86FzdEoACOBz7/k3M/pZNgTJwzE35KryfQiJXr21MO3QY7rrpBMTHWRhwIiKiCOR2e1Fe1YgtJXUoLW9AaXnXXIMl5Q1obbMxQERERKSb9J6JmHboMBx9xEgMHpARFsf0x4ZqHH/247qVLxR1+IbFD63Wulz2AAyQ3DEzx6vS+yG6VpvSnCXahOsvPwLnnDaJwSYiIopgJpMBOdk9kJPd428/a2u3o6KqCRVVjdi0dRs2b+0aTrylpA4OJxc9JSIiov2XEG/F5EkDcdz0URhXlBt2i48OzEtHUmIMmls69dmAV5kCQPMEIHsABsCAotknSYFXAejSLW/IoN545J7T0TcrlcEmIiKi/b/v9Kqorm1BRVUjKqqaONcgERER/aP4OAsOPmAQjjhkGA4cnx/2aw9cfeNr+OLbNbqULYGPNi2de6zW5TIB6Gf5RbNuhhD36BX7c0+fhNlXTedCH0RERKSLtnY7SssbsLWsDiVlDSgp75pvsLS8AS6XhwEiIiKKEIkJVhxy4GAcPmUoJo7Jg8kUOXmI19/5BXfO/UCv4lszYqypCxcWa3pjxSHA/iPyR89+EMANehQeZTai+MbjccJRRYw0ERER6SY+zoJhBVkYVpD1t5/V1bftXHjkfz0Ht6Gqphmqyl6DREREoS4xwYqDJg7EEYcMwwHj8iMq6bercUW5ehafUNXeUQhgsZaFMgHoBwUFxWa31fYqgFP1KD8rMxlPzj0HA/PSGWwiIiIKmB5p8btd1c9mc6GkvH6XnoM7XtfDbncxcEREREEso1ciDp08BIcfPASFw7PDbk4/X/TPTkOPtHjU1bfpUr5QlClgAjC0DJg4O87tsr8H4FA9yp80Lh+P3HM6EuKtDDYREREFJavVjIKBmSgYmPm3n9Vsa+lanbiiAWXlDSiraEBJeQMqq5vgdnsZPCIiIj8TQmDIoExMOXAwDp40CIPyMxiU3RhXlIOPFqzQqxamALhP0xJZZfoZOOamFFV6PwdQpMcJecl5B+PqSw6DQVEYbCIiIgorXlVFdU0LyioauhKE25OE5ZUNqKxuhterMkhEREQaiY4yYfzo3J1Jv7TUOAZlL979eBluvnu+XsXb1WZ70ubN85xaFcgegDrpN/bmnqrq+QrAUK3LjrFG4f47TsHhBw9hoImIiCgsGRQFWZnJyMpMxqRx+X/6mcfjRWV1M0orGlBaVr89MdiI0vIG1Gxr4XyDRERE+6B3RjIOGJ+PAycMxPjRubBEmxiU/TC+KEfP4i3GxJjxABZqVSATgDrIHTu7t6J6vgYwQOuy+/VNw1MPnoOc7B4MNBEREUUko9GA7D6pyO6TCkwc+KefuVwelFc17uw1uCMxWFbRgNq6VgaPiIgiVpTZiNEj++9M+vXPTmNQuiEjPQl9eqegvLJRl/K9Qp0CJgCD18BxN2arXvUbAP21Lnv0yH54+qFzER9nYaCJiIiIdsNsNiK3X0/k9uv5t5/ZHW6UVTRs/69x57yDpeX1aGjqYPCIiCjs5PbriXGjc3DA+AEYW5jDXn4aG1eUo1sCUABTANyuYXmk2YlVOCtHUcR3ALK0LvvIw4fj/ttPgdnMnC0RERGR1jo6HSiraOyac3BnYrDrdUurjQEiIqKQ0Kd3CsYW5mBsUQ7GF+UgNYVz+enp0y9X4fpbX9ereLfJZk1eu7ZYk28pmU3SSP/COX0URX4FHZJ/55w6ETdddzSX2iYiIiLSSWxM9B5XKna6PKirb8OmrduwpWQbKqqatv/XiOraFi5IQkREAZOaEoeiEf0wYUwuJo7NQ++MZAbFj8aNzoEQAlLqMv+wyW2xHwBggRaFMQGogUEjb+jrVeRCANlalmtQFNw68xiccdJ4BnkPvF4VtXWtqKppRnVtMyqrmlHf2I7OTgdcHi/a2x1wutxQhIDJZITFYoLJaITVYkZsbDTSUuLQIy0Oqclx6JEaj94ZybBazQwsEQWF+oZ2VNc2o2ZbC6pqWlBT2wKb3YlOmwsutwcOhxt2hwtmkxFmsxEx1ihYok2IjYlGRnoiMtOT0DsjGZnpSUhMsDKgRD6KMht3Lkgy5YBBf/qZx+NFdW0LyqsaUVHVhMpdkoPllU3o6HQwgEREpJmUpFiMKeyPcUW5GFeU0zUfLgW0PnL79cCmrdt0KV90zQPIBGAwyBl9fZYXhm+hcfLPYjHjkXvO+NtNZiRzujxYv7Eaf2ysxh/rq7B2fRU2bqmF2+3VdDs90xJ2Tiye268HBuZlYGB+OudeJCJdtbXbsXJNOVatLceq3yuw6vdytLXbNSs/LTUOQwdnYejg3hg2OAvDCrJ4XSPS4mbaaECf3ino0ztltz9vbun8U4/B8u1/VlY1obaulSsWExHRP4qPs2D0qH4YV5SL8UU5yO3fE0JwdGAwGVeUq1sCUEIcqFVZbDXdMKjw5nSvwfMDJHK1LDc1ORb/9/B5GFaQFdHx9XpVrF5bgV+WbcavS7dg5ZoyOF2egO1PRnoSxhfl4LQTxvmtbhYt2YTnX/0+4HVhNhkQHd3VM9JgEIiPsyA1OQ5pqXHIzEjCoPwMpCTF+nWf1m+qwQOPf6pJWc89OgMmkyFg8V3w9Wq8/cGSbpfTOyMJd9984n6954KrXwzow6cQQFzs/5JQsTFRSEqMQY/UOPRMS0BeTi9k90kN2ykQWtts+O6ndfj86zX48deN8Hi8ftu2oggMys/AhDF5OHjSIIwa3pc3k0R+5nZ7UVnd9KcEYUVV087ehHa7i0EiIoogiiKQ068nRg7tgxFD+2LE0D7o3zeN92hB7vNvVuOam/6r2+1Ch2pNrF5e3O0JidkD0EdDJ92Y5HR6vtA6+ZfdJxUvPH4BsjIjc9y+qkr8vHgj3v5gCX5evAmdNmfQ7Ft1TTPe/XgZ3v14GQoGZuL0E8fh6CNGIjpKv1WU6hvasWjJppCou55pCRhWkIWJY/MwYUwe+mal6Lq91jabZrFRZWB7X1TVNGtyLPm5vfb7Pb8s3Rz0c1dZrWYMys/A2FE5mDA2DyOH9oHRaECo8npVfPPDH3jr/cUBjb+qSqzd3pv6+VcXIi01DsccMRJnnTIRGb0S+UFP5AcmkwH9+qahX9+03f68oaljZ2/B8srGXRKFTahraNNrviEiIvKThHgrRgztgxFD+mD4kD4YPiQLsTHRDEyIKRzeT9fbhXjhGFMNLOxuQUwA+mDYsJkxTqf6KYChWpabn9sLLz15EVKTYyMupi2tNrzz0VK8+d6vqKhqCvr9Xbu+Crf+6108+vQXOOe0iTjjpPERP5RuW30rvlrYiq8W/g6gK5k9/dDhmHboMJ8SU0Q72GwuLF9ZiuUrS/H0v79BbEw0phw4CNMOHY4DxuUHtPfm/qirb8NbHyzG2x8sQV19W9DtX31DO1587Qe8/MZPmHbIMMw48wAMGdSbDZAogFKTY5GaHIuRQ/v+7WdOl2dnj8HK6iZUVTejurYFVTXNqKppRnNLJwNIRBREDIqCnP49MHJ7z74RQ/qiX99U9u4LA2mpceiblYKyikZdyvcq6kQwAeh/BQXFZqfZ/p6E1HRljoKBmfj3vAsjbpL2mm0t+Pd/f8T8D5eE5DCXxuYOPPp/X+D5V7/HGSeNwyXnHcxvbLYrLW/A0//+Bk//+xsUDMzEOadNxNFTR8JgUBgc6paOTgc+WrACHy1YgdTkWJx24jicdfIEJCXGBOX+VlQ14dU3f8Jb7y8O6DQG+3yD4VXxyZcr8cmXKzFhTB5mXz0dg/Iz2PCIgkyU2Yjcfj2R26/nbn9ut7tQuT0Z2JUcbN6ZHKyuaUZDUweDSESko55pCRg8IAPDhmRh5NC+GFaQhRhrFAMTpopG9NMtASiACVqUwwTgfilW3Fb7a4A8XMtSRw7ti+cemxFRPchqtrXgiWe/wsdfrNB8EY9AJSSee2Uh3v90OW685igcNXUET5ddrF1fhTnFb+PZl7/DLTccg0lj8xkU0kRDUweefP5rvPjaD7jgrANxybkHw2wOjo+2krJ6PPbMl/jyuzUhO8n/oiWbcMI5T+DYaaNw9cWHISM9iY2OKERYLGbk9e+JvP67TxA6nO6dycGq2q6kYFdysAVVtc1oaGznAiVERPvAoCjo2ycFg/MzMWhABgbld/2XnBTD4ESQwuHZePfjZfoULjEeKFaA4m7NHcQE4H7IG21/BJAna1lm0Yh+eO6xGRHzTYDH48XLb/yEJ1/4Oiwntq5vaMcNt72B+R8uwV03naj7PHihZmtpPS646kUcM20kbp91HOJi2VuStGG3u/Dk81/j0y9XYW7xqQFdRMnhdOP5VxfiuVcWwhUCPf72RlUl3v90ORZ8vRoXnnNQUCVZich30VEm5GT3QE52jz3eszU1d6K+sX3nUOO6+jbUNfzv71quVE5EFAqMRgOys1JRMCgTQwZmomBgbwwekAGLxczgRLiikbrOA5g0qKhj8Lpl+L1b7ZfVtG/yimbPEpDXaFnmmML+ePbhGbBaI+NisXxlKW6/7z1sLtkW9sf667ItOPHcJ3DvbSfj8IOH8AT6i48WrMCK1WV45J4zIn61a9JWSVk9Tr/o/3DdZVNxwVkH+n1OlYU/r8edcz9AdU1z2MXW4XTjyee/xudfr0HxjcdjtL43OUQUBA+5PdLi0SMtHgUDM/d4XajfnhCsa2jb/rppZ7KwqqYJdoebwSSikBQXG428nF5dib5Bmcjr3wt5/Xvyi1Darb5ZqUhLjUN9Q7su5XtgmAgwAai7/KI5p0HI+7Us8+BJg/D4/WchKgIuHlJKPP/q93jsmS+CfrVRLbV3OHD1ja9h5pXTcOHZB/FE+ouKqiaceckzeOCOUzD9sOEMCGn34ejx4sF5n2HD5hrce+vJflkkxOtV8fBTC/Dv//4Y9qtybi7ZhrMvfRannzgOs68+EpZoExsdUYSKjjIhKzMZWZnJu/25qko0NLajelsL6hvaULOtFdvqWlHX0Ibaba3YVt+GbXWtcDiZJCSiwEnvmYh+fdO6ekX364H+2V2vU1PiGBzaL6OGZ+OLb9boUrZQ5EQAz3anDCYA92Jg0Y2TVaG+DECzlQumHjIUD991esisXNndh+Kb756PDz77LSLbj5QSjzz9OQ6aMAB5OVwJ969cLg9uuO0NdHQ6ccpxYxgQ0tRHC1agqakT//fwubp+U2t3uHHtTa9h4c/rI+ra9vo7v+DXZZvx0F2n77F3EBFFNkURO3sR/pPWNhvq6ttQXduC+sZ21G5rRW1dK+ob2lC9rQV19W1oabUxoETkM6PRgKzMZOT264n+2Wnbk3xdr7kwB2mlSMcEICQmdvs8YBXt2cAxN+Wr0vseAM2uCIdNHoJH7zkjIlZC9Xi8uPqm1/DN939EbBsSQuCeW05k8u8fqKrEHfe/h4Q4C6YeMpQBIU39tHgjrr3lv5j3wNkwKNpfd+12Fy645kUsX1kakfHdWlqPU85/CsVzjsPJxzKJT0S+SYi3IiHe+o/3Sw6nG9vq2lDX0NVrsLGpo2vYcWM76urb0NDYjrqGdrS2MVFIFMmSEmPQOyNpZ4++/tt79fXtnQKj0cAAka4KR+g6RU7/QYU3p69bfm+NrwUwAbgHQyfdmOR0ej8CoNmShxPH5uGRe06PiOSfqkrMKX47opN/ADDrquk44aginlD70F5m3fEmemcmsycRae6b7//Ao09/gZlXTtO0XLfbi6tufC1ik387eDxe3H7fe7BEm7kCOhHpJjrKhL5ZKXtdYM3p8qCxsR3b6tvQ2NyB2m2taGzu6Pr79n9vaGpHY1MHVzkmCkFRZiMyM5KQlZmC3rv5MzaGiwxS4AzMT0dsTDQ6Oh36PDcLz0QA7/j6fiYAd2Py5GJjdaf9bQADtCpz5LC+eGruORExYaiUEnfO/QCffLkyotvRZTOm4IKzDuQJtY+cLg+uvfm/eP8/V/ODmzT3wn++R9HIfpg8caAm5XlVFTNvfxM//rKBwcX2L33ufBuxsdGaxZiIyNfkQEZ6EjLSk/Z6HW9s7EBDUwcaGtvR1NLRtepxQzuamjvQ1NKJxqYONDR2oLm1MyxWdScKBUII9EiNR1Zm8v8Se5lJyMro+rNHarzfF3kj2lcGRcHwIVn4efEmfe65BZgA1Fp1p+1xAIdqVd6g/Aw89+iMiFkafN7zX+PN936N6DZ06vFjcc2lh/Nk2k/llY24/7FPcc8tJzIYpCkpJW65ez4WzJ+J+DhLt8u784EP8Pk3qxnYXXg8Xlx702t45emLMXxIHwaEiIL+IW1f5ifcoa3djsamriRhU0vH9kRh1+uGxo6un7V0oLnFhpZWW9gvCEXkU/LBaEBaShx69UxAj9R49EyLR88eXa93/FtGr0SuskshbfiQProlAAUwoVvnIKvnzwaMnnOZhLxcq/Ky+6TixXkXaPLAGQq+/XEdnn7xm4huQ4ceVIA75hzHb6Z89O7HS3H2qRMwIDedwSBNNTR14NmXv8Osq6Z3q5y33l+Mt95fzIDuht3hxhWzX8X7r16DtFSunEdE4SM+zoL4OAv69U3b6+9KKdHSatv5X3OrDS2tnTv/3tS843XnLj+3wePxMtAU0ufI7hJ6PXskdP17WjxSkmP5jERhb+TQvroWn1FYbK1eXuzThLdMAO5iQNGsiRLyca3Ky+iViJefuggpSbEREb+yigbMvuPNgH/jmZociwF56chMT0JcbDRiY6MBCdjsLrR32GGzu1BR2YSyygY0NXdquu2JY/Pw2L1n6rLYQHdYLGZcccEh3S7H41XR3m5HZXUzFi3ZhPYO7ec2UFWJ/87/BXfddAIvSqS5tz9YgqsuPgzRUSaf3r/mj0rc8/BHAT2GXj0SkJ/bC+k9ExEXG4242Gg4nR60tNlQ39COjVtqUFHVFLC5reob2nH9ba/j5Scviog5b4mI/koIgaTEGCQlxuzX+zo6HWhusaG55X/JwrZ2O9o67Ghvd6Ct3Y72jq4/d/zX3uFAe7sDXlVl4ElTXW3Y2vVnQgySk2KQkhS7s20nJVqRnBSL5KSuv/t6b0UUboYPyYIQQq+8iCleOMZUAwt9eTMTgNsNGDk7QwrMB6DJlSs1ORYvPXkR0nsmRkT8nC4Prpj9H10SQnuTnBSDgyYMxMRx+RhflIPUlH3vddLWbsfv6yqxYnUZlq8qxbIVJXD6OMfL8CF98OQD58BkCr7VpaKjTLjonMmaltnc0onZxW/hh0Xaz4G28Kf1vCiFoOOPLEROvx77/T4pu85Fm92JiqomLP1tK+wOty772NZux8o15RhXlOPTe6++8T9+nwcqvWciDpo4ABPG5GFsYQ4SE6x7fY/d4caatRVY/NsWLF62Bb+tLoPX67+HwyXLt+KRpz/vdm9LIqJIEhsTjdiYaGRlJu/3ezttzq6EYLsDbR12tLU70L4jebg9Sdhpc6K1zQ67wwW73YVOmxPtHQ7Y7P/7O4UXi8WM2Jiork4RMdHbvzi0bP97178nJW5P7CXF/Cm5F2wdGohCRUK8Ff36pmJrab0u5XsVdSKYAPRdQUGx2W20zQegyZjDuNhovDjvQmT3SY2YGD7z72+xaUut37ZntZpx9NSROOrwESgcme3zB1R8nAUTxuRhwpi8rodmuws/Ld6IT79cha8Wrt3noRh5/XviuUdnwGo1R0ydJyXG4OkHz8U1N7+m+WrP2+pbUbOtJWIS6OHiuCMLfUqs/VV7hwNvf7AEz73yHVpabZrv54o1ZT7t59wnPkN1bYvfbhyOP6oQ0w8dhmEFWfs9XMYSbcKYwv4YU9gfV110GFrbbPhh0QZ88NlvWLRkk196B7703x8x7dBhGDKoN08OIiKdxVijEGONQnrP7n8GOxxu2OwudHQ60NnphG17wrDry7qu1zt+rqoS7R07/rTv/FJPSrn9z//9PRAdBUKtDg0GBQnxFiiKgtiYKJjNRliizYiONsFsMiI2JgpGo7JLEi96ZzIvdpe/x8d1jYJiEo8oMEYM6atbAlBAjvb1vUwAAnBZbI93dzLFnQE1GvDE/WdhYF7kzF+2uWQbnv/PQr9sKzkpBpfNmIITji7SZaVYi8WMwyYPwWGTh6ChsR3/nf8LXnr9h3/sjZSZnoQX512wT71ywo3JZMDj956Fq+b8B9/9tE7TslevrWACMMTExkRpUk5cbDQuOOtAnHzsaNz90If4aMEKTfdzzR8V+/2eZStL8M5HS3WPYUavRFx54aE4cuoITYfSJMRbcfQRI3H0ESNRVtGIf//3B8z/cImuvQK9qorb73sP81+6kkOBiYhCxI6pJfT8bOjsdMLjUdFpc8LrVXf2POzsdMLj7fryXVUlOjr/lzC02V1wu7t+JiXQ3mHf+TOH0w2n83+983ckIrW837VE/+9L/qgo458+o3ck53awWqNgMiq73B9FQ1G6vsiLj+tK7sXFRsNkMsBqMSMqyoQoLnpBFFZGDO2D9z5Zpk/hUiny9a0Rf6XJL5p9NgQu1aq84jnH7exNFgmklLj9vvd2fiDrxaAoOO+MSbjs/EN0vSnZVWpKHK659HCcduJYPDhvAT7+/O9JiJSkWLz05IXomZYQseeQyWTAvAfOxoXXvIhfl23RrNy6hjZ+coTgQ4OW4uMsePDO0zCsIAv3PvKxZr3WttXtX9tyu724/d73dJ3fNMpsxBUXHopzT5+k+xw6fbNScOeNx+Oc0ybinoc+wqIlm3Tb1tr1VfjPWz/jvDMO4AlCREQwKMrOxRGTk2IYECIKS/ouBCIzBxXenL5u+b01+/vOiP5KftDYWXkQeEqr8i46ZzJOPnZMRMXwmx/+wPKVpbpuIyM9Ca8+czFmX32k35J/u+qZloCH7joN8x44Gwnx/+vlFxsTjecfPx99s1IR6Uwmg+aLdugx9JP0FWON0qXcs0+ZiNtnHxewtvXOx0uxpbROt7jl9e+Jt1+6Epecd7BfJ9DOye6Bf8+7AHfddAIs0fpt98kXvuawLyIiIiKKGLn9e+qau3ArXp96AUZsAjB7cnG0VxVvA4jTorypU4bi+suPiLg4Pv/KQl3LHz2yHz587RoUjegX8GM9/OAhePeVq5DdJxXRUSb838PnomBgJq9u2/XNSvVp0uo9aW21M6ghJiZGvw+5008Yh1HDszUpq61939uWV1Xx79d+0PW68s4rVwVs2gghBE49fixeefpi3XpitHc48Nb7i3mCEBEREVFEUBSBoYOz9CtfyEKf3hepFWLusD0JYIQWZRUMzMQDd5yyc26HSLFk+Vas/L1ct/IPOWgw/j3vwp3DBIJBVmYy3nzhcjz32AyMGdWfV7a/SEmK1awst8fLgIYQo9Ggay8yADhgfL42bcu976v4fv71GpRXNupyPKcePxaP3XemX3v97cnwIX3w5gtXIKNXoi7lv/zGjz6vsE5EREREFGpGDO2jX+Eq2ANwXw0YPftMCFygRVmZ6Ul47rHzYbGYIy6OL7z2vW5lF43oh0f/dSbMQTghblJiDMYW5oD+zqrhEFBVVRnQEKLVAiD/JDVZkw7b8O7HXIIv6nSdm3rIUBTPOT6oVufrm5WC5x8/X5cvXeob2vHRgt94ohARERFRRBgxRMcEoGACcJ/kj76xvwT+T4uy4mKj8eyjM5CaHBtxjbmpuRM//bpRl7Iz0pPw9EPncDWsEBStYQ8wrRZ8IP+IjdF/fk6rRl+07Gvb2lyyDWvXV2l+HIMHZODBO08Lyl7juf164vH7ztRl3z76fAVPFCIiIiKKCMOH9IEQut3v98wZff1+jzGOqATg5MnFRgH1NWgw759BUfDYfWcir3/PiGzMX3y3Bl6v9j20FEXg/ttP/tNiGxQ6XE7thvhZrVEMaAjxRw9ArRLM+5pIXPD1as2PIcpsxAN3nBrUX3BMGJOH8888UPNyl60oQV09V/cmIiIiovCXmGDVdI78vzIIZb97AUZUArC6036bBMZrUdY1lx6OSWPzI7Yxf67DgzEAnH3qRA6vDWE2h0uzsvyRUCLt+GOFbpdGc8jt62rFn3+9RvNjuPayqcjP7RX09XntpVPRPztN0zJVVeKrhWt5shARERFRRBgyqLduZQtV2e+FQCImATigaNZEQN6iRVlTDhiEi8+dHLGNuLmlE0t/K9G83MQEK6688FBeJUJYW5t2K/f6Y0gpIaTqy253abSve08Abimtw+aSbZruf9+sFJx9ysSQqE+TyYBZVx2peblffreGJwsRERERRYSCgZm6la36MA9gRCQAc8deFS+F+A8AgxYPcA8Un6rnWO6gt2J1Gbw6LNBw8bkHB9WKv7R/mls6sbWsTrPykhI5DDyU+KPHZmu7NgnmtNT4vf6OHl9yXHPJVJhMhpCp0ykHDELRiH6alrlyTTk8XOGbiIiIiCLAsMFZupUtgKKuP/ZdRCQAhbQ+CqDbTzFmk0E+du9ZEZ+k+m11meZlRkeZcNIxRbxChLDHn/1S04U7BuSmM6ghJMYPPQB/W6XNtWdfhrauWF2q6b6npcZh6pQhIVevZ586QdPyHE431m2s4QlDRERERGGvYFCmngv/pQwYMzN7f94Q9gnAvKLZhwkpZ2hR1p03nSAGD8iI+Ea8am255mUeefhwLvwRwr75/g+89f5izcozGBTkRugCO6FK7x6AK1aX4dsf/tCkrP59e+zDda5C0/0/7fhxMBoNIVevhx5UgLTUOG3rck0ZTxgiIiIiCnsx1ihk90nVbwPSMHp/fj2sE4D9C+ckCIEXsZ/dInfnzJPH44Sj2EPN61Wx5o9KzcudfthwXh1CUENTB+5+6ENcOedVTXv/9euTFtSrpNLfxeq4CMi6jdW49IaXNZt6YMTQPv/485ZWG0rLGzTb/7TUOMw484CQrFej0YDDD9a25+JKJgCJiIiIKELouRCIKtX9WggkrJ+wjYp8HEC3B10PK+gjb7zmKMGmC1TXtmg2Ef8O8XEWjCvSf+Vfr1fF4uVbAhq/7D5pyOiVGPLtwOF047W3F2Hec1/B4XRrXn7hiGyebCEmTqchwOs2VuO8K55HS6tNs+vNwPx/Hl6+tbQOUmqX0D7v9AP2eeXhYDR1ylD8d/4vmpW3tbSeJwwRERERRYShg3rjowUrdClb7OdCIGGbAMwbM+soSJzb3XIS4q3eeQ+cZTCzNxIAoLK6SfMyDxw/wC9D4zptTsy48oWAxu/Ga4/CjDP83xPI4/Fi0ZJNPr9fSqC9w472DgfW/FGJL75do1lCZncOOXAwT7YQE6PxEOCOTgeWrSzF7DveQmubdm1t/OhcGBRlL9e5Zk2PZdqhw0K6botG9ENcbDTaOxxB+zlCRERERBSM9OwBCIhR6Brxuk+9F8Iyq5U79qp4oYr/06Ksu2463tCrRwJbrY4PbhPG5jGwOmvvcAQ8+bmv0lLjMJFtIiSvDd1JMgOAKiVKyuqx8Mf1WPzbFrjd2q8We+hBBX69zmX0SkRmelJI163BoGBsYQ6+/n6tZtejtnY7V30nIiIiorA3aEAmDAYFXq+qR/GJA8fclLd+yX0b9+WXwzIBqKiW+wB0O8166vFjccQhw9hid1Glcc8YABhb2J+BpZ1CdbGESPfk818H/T5GmY2YPGngXn+vska769zIYX3Don7HFmmXAASAiqomFAzM5IlDRERERGHNEm1CTr8e2Li5VpfyvaqnEMA+JQDDbhGQvMKZYwFc2t1ysjKTvTdecxRb61/U1rVqWl58nCXke8eQtu3hnNMmMhCki5lXTtunXmfbNLzOpaXGh0XsBuama1retvo2NkgiIiIiighDB2fpVrYQ2Odea2GVACwoKDYLRXmxu8elKIr6yD1nGKxWM1vqX9gc2i4Akp/TC0JwfRXqcvUlh3FYIOli4tg8nH3qviWXbRoudJSaHBsW8RuQ10vT8rReTIqIiIiIKFgN0XPkixCRmQB0WztvBFDQ3XKuv3yqMqwgi63UDw9t6WGwIi5pY/TIfjjzpAkMBGkuKTEG999+yj5/2aDldc4SHR5fJCXEW2GxaHcsdgcTgEREREQUGXRdCESK4fv6q2GTAMwZdWMuIG7ubjmjhmU7LjjrILZQPzwYA0BcbDSDSuiRFo+H7zkdisLeoKS94jnHoUfavg/F1bIHoMEQPt+zxcdq1zvXxh6ARERERBQh8nJ6waDo9VwgMweOuSllX34zbJ5MDIr6GICo7pQRHW1yPnzP6dFMQuyZw+nWtLzYmCgGNcKlJsfi309cgJ5pXG2btHfpjCn7vZiTU8PrXDhNcRAfp90XNhwCTERERESRwhJtQnafVN3Kl8K7Tw88YZEAzB8z+zgIHNndcu6//RRTBoek/nOD0ThrrdNS2BQi+mal4D/PXIq8nF4MBmnu1OPH4tpLD/fhOqdd0s6p8ZcmgeRyezUrK5x6RhIRERER7c2g/Az9CldlZCQAe4+/zgKJR7pbzsEHDGqedugwPpHshSXapGl5be0OBjVCHXX4CLz7ytXon53GYJDm16k7bzwBd910gk898LSct6+9I3yuce0ddg3riItsEREREVHkGJifrlvZqlD2KQFoDPUgxnjMN0vIft0pIzrKZLvnlpOS2CT3zmrR9qGtrd3OoEaY4UP64LrLpmL86FwGgzR38KRBuG3WschM9/2SruViF61hco2TUmqazLRYTGysRERERBQx9OwBKKTcp4VAQjoBmFs4K0dCzupuOcU3Hm9KTY5li9wH0Rr32igtb2BQI0B8nAWHHzwEJxxVhMIR2QwIaUpRBKYcMBgXnn0QRg7r2+3ytOzpXFYRHte4qppmuDUcAqz1l0lERERERMFsYF66nsUXTJ5cbFy4sNjzT78U0glARVEeBGS3VpEYOSy76fgjC5PZHPeN1qv2bi2rg9vthclkYHDDSFpqHMaM6o9Rw7Ixang2BuTpueoRRar+2WmYduhwHDttFPpmpWhWrpbXuQ2basIi1hs312paXixXgCciIiKiCJKaEofUlDg0NLbrUXx0lcOWB2DdP/1SyCYABxbdOFmFenx3yjAYFedDd53K5N9+0HqRFLfbi41balEwMJPBDSMD8zLwyD1nMBCkKUu0CYUj+mHSuHxMGpePvP499bnOpWs3I0RtXSsamjoQ6r3M126o0jbGPTnrBhERERFFlkH5Gfjxlw36FO6RgxGeCcBiRRW2h7pbyqwrptt6ZyRHsRnuu8wM7fOli5ZsYgJQZ0KIferV1N7hgJSy29v78ZcN+PiLlTh66ggGP0JYrWYYDb735E2It+x8HRsTjaTEGKSlxqFnWjzyc3ph0IAM9Oub5peepJnp2ianflmyCUcfMTKk6/fnxZs0vR5lZjABSERERESRZVB+um4JQCFQAODdf/qdkEwA5o+2XwCgsDtl9E5Pqjr39EnMOu2nrEztE4A//boRF50zmcHVUWKCFb9+eftef2928Vv48LPfNNnmvx7+CBPH5CE5KYYVEAEevvsMTDlgEK9ze7jGhXICsK3djtVrKzQrLzUlFlFmI08aIiIiIoooA/MydCxdDN7bb4TcHfiAibPjpEve1a2wCOF69rEZqYoi2AL3U28degAuW1mK1jYbEuKtuu57fJwFG5Y84PP7jz7jUc3nwQo2119+BL78dg3sDne3y2pu6cSD8z7DfbefHPTH7fWoQADXJHB7vKDwvc4t/Hk9vF4VBkNozoP5/fb9D+bPESIiIiKiYKfnSsASKNjb74Tc04jqwiwAvbpTxhknjtuS268nh/76IDU5Fj3S4jUt0+Px4psf/mBwg0CvHgk48+QJmpX33ifLNB06uCuTUbuFYxxOd0Dj7nJ6NCnHbGKvKi3kZPeAWcMeai2tNixeviVk4/HFt79rWt7gARlsZEREREQUcfr2SYEl2qRL2QLILyy8+B8LD6kEYM6EmT0EcG13yrBEm2rmXHvUIDY93w0v6KN5mR98+hsDGyQuOe9gJCZo1xvztnvfhd3u0nw/rVbtcviBTgA6XW6NYmJmA9aA2WzEYI2/nfvgs9C8xjW3dOKHRes1LXPk0L5sZEREREQUcQyKgvzcdN0eY9pMibn/9AshlQA0uJU7AMR1p4x/3Xayi3MPdc+IodonABcv34JNW7cxuEEgPs6Cy2ZM0ay8qppmPPXiN5rvZ4yGCcBOmzOgMXe6tOkBGGtlx2bNrnPDtE1SLfh6NRqbO0IuDvM/XKpZ+/zfZwgTgEREREQUmQblp+tXeNdKwHsUMgnA3MJZOQAu6k4Z2X1S1x152HA+eXSTXr03Xn79RwY3SJx58gT06Z2iWXn//u8PWLu+StN9jI3RLtlVVtEQ0HhXVTdrUk5MTDQbr2bXOW2/6HC5PHj9nV9CKgYOp1vzfU5NjtVlMSkiIiIiolCQn6NfAnD7SsB7FDIJQEUR9wDozmBp19MPnstVfzUwdHBvxMVqn2h4/5Pl2LC5hgEOAiaTAddeOlWz8rxeFbfc846mCwkkJlhhsWgz5FXr5OT+UFWJ39dXalJWZnoSG69GxozK0XzRjhdf+wF19W0hE4OXX/8RNdtaNC1z/OhcNi4iIiIiilh5/XvqWLoI/R6AuUU3jgRwSnfKOGxywcqcfj3i2dy6z2w2YsqBgzUv16uquOfhj6CqkkEOAtMPG6Zpb891G6vxn7d+1u7SJoRmPYkWfL06YHFevHwL6hvaNSmrD3tWaSY5KQbjinI0LdNud2HuvM9C4vhrtrXguVcWal7uEYcOY+MiIiIiooiVq2MCcG8rAYdEAtAgvHd2Z1+FIuruv+OUoWxqGj7EHaLPQ9yS5Vvx8hscChwMhBC44cppmpb52DNfoKKqSbPy+mRqM0y5pKxet9WK9+anXzdqVlZWZgobbpBf5z7+fAU++WJlUB+3qkrceOfbms+NGWONwgHjB7BhEREREVHESk6KQXJSjD7P8EA+Tj7ZsKefB30CcODYGwslxFHdKeO6y45YGxsTbWFT086ksXmIj9MnpI88/TlWrCljkIPA6JH9MOUA7RbNtjvcKH7gfc3KG6ThSq2PPfMFpPRv71OXy4OvFv6uWXl5OT3ZaDV02OQCGI0Gzcu9c+4HKC1vCNrjfvKFr/Hrsi2alzvlgEHgIlxEREREFOly++n23GbOL83Z4zC+oE8AqlK9C4Dw9f0Wi/m3i8856AA2MY1bldmIY6eN0qVst9uLy254JeALM1CXWVcdqelcaD/9uhEff75Ck7JGDNNuoYbVayvwzQ9/+DW2Dz/9OcoqGjUpq3dGMpISY9hgNZSUGINDDyrQvNy2djsuvOZFNDQF36rA732yDE/rsGo3AJx07Bg2KiIiIiKKeHoOA4aUexxyE9QJwNyxs8dBYno3ilCfmntOoxCCXQ50cP6ZB+jSOwYAmls6cd4Vz2NzyTYGOsD6Z6fhpGNGa1rmPQ9/hKbmzm6XM7ygDxRFaLZfc5/4DE6Xxy9xff/T5ZqufD10cG82Vh1cfO5kXcqtqGrCeVc8j9q61qA51vc/XY7b7n1Pl56ww4f00XxORSIiIiKiUKTnQiACIZoANHjFnd15f0pS7BcTx+Ydwualj4z0JBx1+HDdyq+ubcHpF/4fflm6mcEOsGsuPRwx1ijNymtpteGBxz/pdjlxsdGafntSVtGAh/ywSEN5ZSPunPuBpmWOGNKHDVUHBQMzMWlsvi5lb9pSi1PPfyqgq1ADXXP+zXv+K9x013x4PF5dtnHJuQezMRERERERQdchwFCF3OPDS9AmAHPHzBwvhTy8G0W4X3rywliEyEInoeqicyfDoOgX4rZ2O86/6gU89OQCuN1eBjxAUpJiMeNMbUfSf/DZb/hpcfcXwNBypWIAePWtn/Hiaz/oFsuKqiZcPutV2O0uTcsdPao/G6pOLpmhX/Kqtq4Vp17wFF587YeArIBeW9eK8654Hk8+/7Vuc2Dm5/bClAMHsSEREREREUHfIcACCL0egIpUbu7O+/v1Tft4QF465/7Tu+H264kzTx6v6zZUVeL5Vxfi2DMfw8Kf1/v9GFtabXj82S9RUdkY0XV9wZkHIS01TtMyb7/3vW4nwkYM1b7n29wnPsW9j34Mr1fVrEy324uXXv8Rx5z5KDZtqdV0f2NjojEwP50XJJ2MGdUf0w4dplv5brcXc5/4FKdd+DR+W1Xql2Nyujx44T/f46jTHsHi5Vt0244QArfdcCyEEGxIRERERETQdyVgQIRWD8ABY2cOA3Ck78eLjpfmXZjFZuUf1142Fb16JOi+nS2ldbjkupdw9qXP4svvftc0ObM7VTXNuP+xTzD5mPvw9IvfwO5wR3Q9W61mXHHhoZrH+MkXvu5WGeOKcnVJLrzyxk84ecaTWLJ8a7fK8aoq3v14GQ4/6UHc/9gnsNlcmu/r2KL+uvbEJeCW649BXGy0rttY9Xs5zrj4GVx2w8v4afFGXXrktbXb8dLrP+KIkx/Cg/M+Q3uHQ9djOuGoQowpZO9UIiIiIqJd6dgLMLOgoDh2dz8IysUxpKrchG6s/DtkYO/303slns0m5R8x1ijcOvMYXDn7P37Z3pLftmLJb1vRMy0Bhx1cgCkHDMaYUf1hMnV/QRKny4OvF67FOx8txa/LNgdkSF4wO+W4Mfjv24uwaat2i7O89PqPmH7YcBQMzPTp/Rm9EjGsIAurfi/X/HjXrq/C2Zc9i7TUOIwalo1jpo1E0Yh+SEyw7rUdbd66DQt/WocPF/ym2Uq/e3LElGFsnDpLS43DDVdMQ/ED7+v7+Sclvv1xHb79cR369E7B4QcPwcEHDMLIYX19TvLabC58v2g9vvzud3z7wx9wOP3zZUZSYgxmX30kGw8RERER0V/k9uvZ7c4meyCcFkcegBV//UHQJQBzC2flADipG0U0vDjvgn5sTv512OQhOOGoIrz3yTK/bXNbfStee3sRXnt7ESzRJowY2hejR/bDkEG9kde/JzLSk/bpwbiiuhGrfq/AkuVb8MMvG9HaZmOF7oFBUXDdZUfg8lmvaFam16vi5rvn491XrvJ5VempU4bqkgDcob6hHV98uwZffLsGABAfZ0FCvAVCiJ29wlwuDxxON+x2F5paOv2WPE5NjsXUQ4aycfrBqcePxXc/rcP3fpqKoLyyES/853u88J/vERsTjcIR2Rg9sh8GD8hEXv+e6JEWv9v31dW3YePWWqz5oxKLlmzCitVlfp9DVQiBf91y0l6T5UREREREkUjPlYAV4c1HKCQAFUXc2J39Gjm0z2uJ8dZr2Zz87445x2H9pmr8saHa79u2O9z4ZenmP60YbLGYkZQYg8TtiRoAcDo9cLq6er+0dzjQ0spk3/465KDBGFeUg1+XaTdv2PpNNXj1rZ9x/pkH+vT+444chSdf+EqX4bW709ZuR1u7PSjq4/ILDkWU2ciG6Z/PJzx012k44ZwnUFHV5Ndtd3Q68P3P6/+UfLRazUhOjEVCvAVer4q2DgdaW23otDkDHqtLzzsYhxw0mI2GiIiIiGg39FwIBHtYCCSoJo3KH39dJoBzulFE6ctPXcSlBgMkOsqEp+aeg6TEmKDYH7vdheqaZvyxoRpr11dh7foqbC7ZhoqqJlRUNTH51w03XDFN83n3nnj2S5T7uNBKSlIszj5lYsTVQ8HATJx24lg2SD+Kj7PgqQfPgSXaFPB9sdlcqKxuwtr1VVi/qQbVNc1BkfybMCYPV11yGBsLEREREdEe5PbTMQEoRO7u/jm4Zo33mK4CYPb17YUjsl+KjjYfzqYUOBnpSXjs3jNhZo+ksDasIAtHaDzs1O5w47Z73/V54YMLzz4oooYbGhQFxXOO5+IfATAgNx333X4KY7+HG5nH7j2DsSEiIiIi+gfJSTFISYrVp3CJnN39c9DcoW9fpeTibhRR8vKTF41ENxYPIW2MK8rB4/eeCYOBD4DhbOaV0zRP9P66bAs+/nylT++Nj7PgnltOjJj4X3HhIRhWwMXOA2XaocPwr9tO0mUF6lCV3jMRzz9+PhLiOe8fEREREdHe9M9O063o3f1j0GRoPBbbhQCSfH1/wcDeL5vNxmPYhILDlAMH4/7bT4Gi8OE4XPXOSMZpJ4zTvNx/PfIRGps7fHrvYZOH4ORjx4R97ItG9MOl509hIwyw448sxM3XHcVAoOsbzJeevBAZvRIZDCIiIiKifdA3K1Wvontt72T3J8GRADz5ZIMUuKobJVS8/tylAxFsQ5oj3DHTRuL+20+B1WpmMMLUVRcdqnlvn5ZWGx54/FOf33/rzGNQNCJ8FwKPj7PgwbtO4xDLIHHOaZNw83VHR/S0B2mpcXjlqYvRr28aGwQRERER0T7K7qNbAhDeaPvfHoqD4gkyvzT7JOyhi+K+6N+354vR0aaT2XyCz7HTR+GTN64P64RMJIuPs+DCsw/SvNwPP/sNPy3e6NN7o6NMeOaR8zAoPyMsY37/7aewl1WQOff0SZj/0pXIy+kVccfePzsNb714BfJze7EhEBERERHtBz0TgKpB/m0ewODoQiKU67rx7pr5r1zRCwBXnQhSmelJePX/LsY1lxzOxUHC0LmnT9IlIXXbve/BZnP59N642Gg89+gMDMhND6tYX33xYTjkoMFsdEFoYF463n3lKsw444CI6Z15xCHD8M7LVyEzPYkNgIiIiIhoP2X30XEEzW4WAgn4U8rAsTcWQsqxvr4/Md76ZKw16iw2neBmMCi4/IJD8PHr12FcUU5ExiCvf8+w7AkZZTbi6ku0X3y7uqYZT77wlc/v75EWjzdfuBwHTxoU8jEWQuDGa4/CFRceyotJkJ8LN157FN77z9UYMaRP2B5nWmocHig+BY/dewZirFGseCIiIiIiH/TtnaLnugl/G2Ub8ASgKtVruvH2hk/euEEAiGXTCQ3ZfVLx8lMXYW7xqUhNiYuIY87KTMbc4lPx0evXYejg3mF5jMdOG4WCgZmal/vy6z9h7foqn99vtZrx1IPn4MKzDwrZXlmxMdF44v6zMOOMA3gBCRED89Lx+guX4baZxyI+zhI2x2UwKDj39En4fP5MHDe9kCsgExERERF1g9lsRK+eibqULRFkPQBzR96UBgmf5+4zGpVH0tJiL2CzCS1CCBw7fRS+fm82rrn0cMTGRIflcebn9sJdN52ABW/PxLHTR4X1isiKIjDnmiM1L9erqrj57vnweLw+l2EwKJh11XS8/sJlei6zroshg3rjvVevxuEHD+GFI8QYFAVnnTIBX78/GxeefRCio0wheyxGowHHH1mIj9+4Djdfd3TYXrOJiIiIiPwtW6eVgIUIsgSgYvBcBMDXJ4mWBfNnVgLg6hIhymIx4/LzD8HX78/GeWccAEu0KeSPKTrKhOOPLMSbL16Oj1+/DqcePxYmkyEi6nNsYQ4mjc3XvNz1m2rwyps/d7ucEUP64P3/XIOrLjoMFktwr0wdY43C9ZcfgbdevBx9s1J4sQhhCfFWzLpqOr54dxZOPnZMSF0PLBYzzj5lIr56bzbuv+MU5GT3YIUSEREREWlIt4VAJPpOnlz8p0UYAtYlafLkYmN1p60EgE9jIqWUczcunTsBwCQ2mfDQ0mrDG+/9itfeXoSGxvaQ2e/4OAsmjcvHwZMGYfKkgZoO+fvws98wu/itbpeTlBiDX7+8XfdYbNhcg+POehyqKjUt1xJtwkevX4c+vbVJhtXVt+HxZ7/E+58sh1dVg6YtGRQFJx5ThGsunYrUZP/MbDD/wyWa1NcB4/KRwcUg9qqhqQNvvPsLXnt7EVpabUF7E3LSMaNxynFjkBBvZaUREREREenklTd+wr2PfqzP86XHm71uxcNlO/4esARg3ujZJwjgXR/f7rljzgnHnnHi2E/ZXMKPy+XBZ1+vwlffrcWipZt8XglWL7Ex0SgYmIkRQ/tg4tg8FI3oB4NBn860ZRUN+HXZlm6XExVlxHHTC/0Sn68W/o6m5k7Nyx2Yl47hGi+sUFndhOdeWYh3Plwa0ESg1WrG0VNH4vwzD9R1KXgKHna7Cx8uWIFvfliLJcu3wuF0B3R/EuKtOHRyAY6bNgqjR/Xj/H5ERERERH7w/c/rcfF1L+lStoQ4aNPSB37Y8fdAJgA/F8BUH9/+5oYlD7gBnM3mEt5cLg+WrSzB94s2YNGSTdiytc5viRqj0YDeGUno3zcN/fqmIS+nF4YO7o3+fXuE9Xx+kWjTllq8/+ly/La6DGvXV8Hl8ui6PZPJgLz+PTEgNx1DB2fhmGkjERfLedUild3hxuLlW7Dwp3VYvHwLSssbNO9FuzsZvRIxYUwejjhkKMaPzoXRaGBlEBERERH5UWl5A6ae9KAuZQuIszcsfeC1//09AHLHzu6tqCgF4NPTxthR/Y989ZlL3gdgZnOJsAdluwtrN1Rh9doKrPmjEmUVDaisbkZrm29D6YxGA1KSYtE7Mwn9+nQl+vr1SUP/7DRkZSbzgTgCOV0erNtYjfUba7Bhc9d/5ZWNaGjsgJT7l5QxKAp6pMWjf3YaBuVnYEBuOgbk9UJOdg+2Ldqj9g4H1q7vus79vq4SpeUNqK5tRnuHw6fyosxGpPdKREavJAwekIGRw/pieEEfpKXGMdhERERERAHk9aoYdsCt3Vr4co+kvGXjsgfv3fFXYyAOUFHl+YDw9el30avPXDIGTP5FJIvFjKIR/VA04s9rv3TanKiqbkZdQxs6Oh2wO9xwOj1o77BDCIG42GiYzUZYok2wWqLQIy0eqcmxSEmO5VA3+pMosxEjhvTBiL8MN3a7vaita0VtXSuamjrg8nhhszlht7vg9ngRGxsNS7QJligzUlJikdEzET17JOg2PJzCV1xsNMYV5WBc0Z8X7mprt6OqphkNje3otDnRaXPB5fago8MBRVEQGxO18zpniTYjKTEGGb0SkZrCRB8RERERUTAyGBRkpiehrKJB+8KF6LvrXwORABSAOMfXNxuF8hiAh9hMaFcx1ijk5/ZCfm4vBoN0YTIZkJWZjKzMZAaDAiI+zqLpIkNERERERBR42X1S9UkAAn/q1eL3rin5o2dPAZDj05sFypZ+d6frrwdBREREREREREQUanRbCFLiTz0A/Z4AFJDnd+PdT1it5vPZPIiIiIiIiIiIKNRlZ+mUABQB7AE4dNKNSRLieB/f3n7XjSd8AmAamwcREREREREREYU6HaeZiskvvGFndtGvCUCnQ54BwKcJjCTka6ceP+ZkACY2DyIiIiIiIiIiCnUZ6Um6la1C2dkL0K8JQCF8H/5rUAwvApjBpkFEREREREREROEgMz0JQghdylYMwv8JwLzRs0ZIYJRv75ZL1/16Xwp8XTyEiIiIiIiIiIgoyERHmZCSFKNL2ULKnQuB+C0BKKTic+8/IcSzAC5isyAiIiIiIiIionCi2zBgITJ3vPRLArCgoNgMIU/38e3txTcd/w2Ao9kkiIiIiIiIiIgonGT00icBqEpk7HjtlwSg29p5PACf1jWWEv897bhxxwOIYpMgIiIiIiIiIqJw0jtDr4VApH97AEKKs31+K5TnAJzJ5kBEREREREREROFGrx6AAsJ/PQALxl+XDIHDfHz7kk1L77MDKGRzICIiIiIiIiKicJOpVw9A4cchwC6v6RQAZp/2U4C9/4iIiIiIiIiIKGxl9krUp2CJ2NyxV8UDgFHvg1AkTpO+vFGgI8qhvglgBZsCERERERERERGFo8z0ZN3KVjyxGQDadO0BmDP6+iwJHODTm1X53qpVDw4DkMemQERERERERERE4chqNSMxwapP4Yo3E9B5CLAijaf5ug0J8Ro4/JeIiIiIiIiIiMJcZrpO8wDKrnkA9U0ACpzm41trbn5w2o8ATmETICIiIiIiIiKicNY7Q59hwELROQE4YMzMfhIY5ePbXz9v8uRDAKSxCRARERERERERUTjL0G8hEH0TgKqqnOT7vsnXAJzB6iciIiIiIiIionCXmaHPEGBV6JwAFAI+JgDFHxuXzF0P4GhWPxERERERERERhbuMnvokAIVETwAw6lF4zujrswCM9mnHhHwVwFQAcax+IiIiIiIiovCntrUDUkLabIDHs8u/df1cWC0Qpq4UhoiPAyAgLNEQZjODR2FBrx6AAHoAOiUADdJwEgSEL+e8R3peB3APq56IiIiIiIgohHk88NbUwltVDU9FNbxV1VDr66E2t0BtboXa0gK1petPeFWfNiGsViiJCVCSE6EkJXW9TkyAISMdht6ZMGRmwNA7A0piAuuDglqP1HjdigZ0SgBCiBN9ep/E95uXPlwL4ChWPRERaUpV4f5jA+MQBJQeqTD0iMx1vry126A2NLERBAFTwUBACAaCiEgD0u6AZ/MWuNdvhGfDJrg3boa3vALebXU+J/b2eds2G7w2G7zVNf/4eyI2BsbMDBj6Z8M0IA/G/DyYBubBkJnBzwMKCkmJVphMBrjdXq2LTiwsvNikeSsvGD2rlxuiCr7NL3jJhiUPlAL4glUfZA8sNbU7u2FT+BDRFsBsAoSAEs9R90F5M9XRCW/ttshsn/FxmiaJpM2G2hET2aiCgOWY6Uh86F8ReezNV86E48tv2AiCQPq6ZYDBwEAQEe0vjwfu39fBtWIVXCtXw7NuAzzllYCqhuThiNgYmPJzYRo8CKZRw2EuHAFDei/WMwXE5KPvQ822Fu3buQeZmvcA9AhxJKRPyT+v16R+AOBOVnnwaTr/cni2lDAQEUBER0FERQGKAiU5qasbfUoSlNRUKMmJMCQnQUlJgZKSDCU5CYaMdAhLNAOnE8fCH9Fy/U0ReeyWY49E4oOcESIcuVasjthjd69awwYQAdSmZsjOTgYi3O6R4ruGZomoKIjoKAaEIoa02+FavAyu5Svh+m0l3GvWQjqc4XN8HZ1w/bYKrt9WAa+9CQAw9OoJc+EImEaNgHn0KJgG5LGXIPlFWmqcLglA1Sh7aJ4AlFIcuXOWzv16I37Y/PODDQCOZZUTBfAD0OHc+YGuNrcA2HviV0mIhzGnP4x5OTBkZcKY1RvG3P4w9u8HGBQGlYj+xFtRCbW+EUpaSmQdd1V111AoCnvtDz0B2zsfMBARQImP60oKmE1Q4uKgJHd9QaqkpWz/IjURhl2/OO3VEyI2hoGjkPisdi5aDMe3P8D186+QLldkHX/tNtg//QL2T7sGJyopyTCPKUT0wQci6uADoSTEs5GQLvSaB1Aq0DYBWFBQbHbDdqhv7xbvApgIIJ1VThRa1NY2uH7r+kbwT2d1lBnG/v1gGjIIpqEFMA0bAlN+LmA0MmhEEc61ajWiDz04so45gns+EoXtPVBb+/9e1zcCW0v3+h4lIb7rC9Pc/jDm5sCY1RuGrN4w5udwNVMKHK8K19JlsC/4Cs7vf4K3upYx2fVcb2yCY8FXcCz4CjAYYB4xDFEHHwDLtMNgyOrNAJFm0lL1mZrLoCraJgDd1o4DAcWXvVWFV74PYCarmyh8SKcL7nUb4F63AZj/AYCuIcamwYNgLhoJ84SxMBeN5M0uUQRyr4i8BKB7xSpWPBFBbW2D2toG9+/r/vTvwmSCoW8WTAWDYBoyuOvL08EDOdyYdGyMKlwrVsGx4CvYF3wFtb6BMdkXXi9cy1fAtXwF2h96Asbc/oiedhgsxxwJY98sxoe6RbcegELjHoASypE+jYoXWLRhxdxq4IHjWd1E4U06nP/rLfjcSxCWaJhHDkfUwQcieuohMPTqySARRYBI7A3HHoBE9I/3SG43PJu3wrN5K+wfftr1jwYFpkEDEDVhHEyjhiNqdCFEXCyDRd3i2bwVtvnvw/HpF/DW1TMgGsSzY96z6HjyOZhHDIXlmOmIPno6F1kkn+jVAxBSTdN6HN6RvrxJqHhXSjkUQDarmyjCbnbtDjgXLYZz0WK03fsQTMOHwHLkEYiedpimK8ASUXBx/74W0u2GMJki41rncMKzYRMrnoj2j1eF+/d1/+staDDAPHwooqYciOgpB8GY258xon37HHK64Pz2e9jeehfOX5YAUjIomgdZwrViNVwrVqPtvkcQdchBsJ56IqLGj+ECIrTP9OsBqOEQ4EFjZ+V5VeT5sh+K1/s+gNNY1UT80HSvXAP3yjVou+9hmMcUwnrisYg+4jCIKA4TJgqr0317Qsw0ZHBEHO+OhCcRUbd4vTtHUrQ/9ASMOf1gmT4V0UdNhbFfNuNDf+PZvBWd/30L9o8+g2zvYED8dZ/jcu2cM9CY0w/WU06A5cRj2SuQ9ipNpwSgUGVPzZbn9HpxlI9vXbpuxcNlAKaxqoloJ1WF69elaJl1K+omHYa2fz0IT2kZ40IURiJpSCyH/xKRHjxbStA+7xnUTz0eDceehs5XXofa2sbAEFzLV6DpkmtQf+RJsP33bSb/Anyett33MOoOPAKtt93DZxr6Rz30GgIskKJoV5iY5tvb8J6UMh7ABFY1Ee2O2tqGzldeR/0RJ6DpkmvgXLSYQSEKA5G0KIabCUAi0vs6s24D2v71IOomHYaWWbfC9RsXHoo4Hg8cC75Cw8nnoPH08+H87gcO9Q0i0maD7a13dz7T8MtB2p3kpFgYDIoeRSdpMgS4oKA41g3bgT492Cv4CMBhAEysaiL65wuGCud3P8D53Q8wF45E3HVXwDymkHEhClGR9HDqWsWbfCLyD+l0wf7hp7B/+ClMQwYh5pwzYDl6OqDPAyUFA48Htvc+QsfTz8NbXct4hNIzzdgixF19GcyjRzEuBABQFIHU5Dhsq2/VuuhkTT4FXFbb4QB8WZ++ZNOvc9eBw3+JaH+vO8tXoPGsC9E04zK416xlQIhCkLe6Bt5tdeF/nBWVUOsbWeFE5Hfu39ehZfZtqJ9+IuyffA6oKoMSTlQVjgVfoX76iWi99W4m/0LxmWbxMjSeeQEaT5sB19LfGBACoNtKwInafA0kxJG+vQ+fSikFgCNYxUTkC+fPv6LhpLPRMvtWqA18wCYKuYfTVWvC/+aeQ3yIKMA8JaVouf4m1B9zGhxfL2RAQp2qwv7xAtQfcQKar5kNT2k5YxLq9wq/rUTjmReg6ZJr4P5jPQMS4XSaB9CkRQJQCCl9S+Cp4jMAwwFksoqJyGdSwv7Bp6ibehw6//Mmv90mCqUb3ghIjjEBSETBwrNxE5ovvw6N51wMz8bNDEgofqb8trLry+8bbuZiEmHI+d0PaDj+DLTMujUiRknQ7vVI02cl4G4nAAeOvXEUgIz9fZ8AbDaTayE4/JeINCLbO9B29wNoPON83hARhYhIWBzDvZIJQCIKLq5fl6L+uNPRdt8jkHYHAxICvNvq0DL7VjSefj7cv//BgIT1Q42E/cNPUX/4sWif9wykw8mYRJi0lCBNAKqqPMzHNv1d5S+P2sEEIBFpfVP72yo0HHsabG+/x2AQBTn3739Aulzhew9vd8C9fiMrmoiCj8eDzpf+g/ojT4Lr16WMRxB/jrQ/8X+oP+wY2D/4lKv6Rljdd8x7FvXTToDj868ZkAii0xyA3U8AComDfXqfEJ9KKWMBjGP1EpEeH5itt96Nlpm3QNpsDAhRsJ6rLhc8YZwgc69ZC3i9rGgiClreyio0nncp2h54FPB4GJAg4ly0GPVHnYyOJ59jL7BIPkerqtF89Sw0nXcpvBWVDEgESEqM0aXcbiUACwsvNkkhJ/ryXmEQCwAcAMDE6iUivdg/+gwNJ54Fbzk/LImCleu3VeF7bCtWsYKJKPipKjpffBUNp54Hb2UV4xHo6mhrR+tt96BpxmVM+NBOzkWLUX/kSeh47iXAyznPw1livFWXcruVAOwQCWMA+JKaXLv+1/tLAd96DxIR7Q/PlhI0nHgWXEuWMxhEQcgVxnPkubkACBGF0jVrzVo0nHAmXL8uYTACxPHt92g48iTY3nqXw33pb6TDifaHnkDDCWfA/fs6BiRMJSYEYQJQVcRkX94nBD7b/nIKq5aI/EFtbUXT+ZfDseArBoMo2B44wzhJ5lr9OyuYiELrnqmlFY0zLoftjXcYDD/HvfmKG9B86bVc/ZX2fu+0bgMaTjkH7fOe4VQjYSghwaJLud1KAPo6/5+q4ispZSKAEaxaIvIX6XKh+fobYX/vIwaDKIh4a2rhrd0WdsflKauA2tDICiaiELwwe9F6x7/Q/vjTjIUfOH9ZgoajT4Hjq28ZDNqPGw0POuY9i4ZTz4OnrILxCCOJCUE2B2BBQbFZAON9eKvL4lIXATgIgIFVS0T+vaFV0XLznbDN/4CxIAoi7pVrwu+YOPyXiEJcx1PPo/XO+zgUVS8eD9rnPdM11x97/ZGv9xurf0fDcad3DRunsBBlNsISrf1yGT4nAF1W+zgJ7PfAZAm5aPXqhzrB+f+IKFBUFa233Q3HZ18yFkRBwhWGyTLXSi4AQkShz/bft5kE1IFnaykaTjgTHfOeBVQu6EDdIzs70XrbPWi57kaobe0MSBhI0GEhEJ8TgELKg33boNjRr5nz/xFR4KgqWmbdCuePixgLoiDgDsNkGXsAElG4sL0+H+2PzGMgNOL49ns0nHw23Os3MhikKfunX6DxxDPh2biJwQhxeiwE4nsCUPjWg09AfCOlTAMwhFVKRIEk3W40Xz0bnk1bGAyiAHOvXQ/pcoXP9cVuh3vjZlYsEYWNjmdfQue//8NAdIdXRfu8Z9B8+fWQ7R2MB+nCU1aBhhPPgv39jxmMEBY0CcDsycXREhi7328U6IhRm5cCmAxAsEqJKOAP6Z2daL7iBnaVJwr0uehywb12fdgcj3vVGq7KR0Rhp+2BR+H4+jsGwgdqSyuaLryCQ37JP/dVThda5tyO1tvuATweBiQEJQRLAjDKbhsPINqHt/6wfPlzbgAHsjqJKFh4SsvQeuPtnNuGKMDCaRiwi8N/iSgcSYmWmbfCwx7O+3evuXETGo47Dc6ff2UwyK9sb72LxhmXQW1uYTBCTFKwJABV1ccFPCR2zP83kdVJRMHE8fVC2N54h4EgCqBwSpoxAUhE4UrabGi+ciZkZyeDsQ+cixaj4fTz4a2uZTAoMPcki5eh4aSz4SkpZTBCSNAsAuLr/H8S8hspZQyAoaxOIgo2bfc9xG+0iQLI/VuY9ACUsmsIMBFRmPKUlqH17rkMxF7Y3v0QTRdeyfn+KOC8FZVoPOU8uJb9xmCEiKBIAGYUFlshMcaHbTVuWhqzGl1zBxpZnUQUdM/sThdabr2L87IQBermtK4e3prQ7yHhKSvnUBsiCnv29z6C/bMvGIjd3lRKtM97Bq03FXP+NQoaamsrms67DPZPPmcwQkBQLAJiVTpHAzDv/0UQPwLFKoAJrEoiClbulWtgm/8+A0EUqHMwDIbOujn8l4giRNud9/MLj7/yqmiZc3vXYh9EQUa6XGiZeQs6X3qNwQhyicHQA9AglLE+NTQhft7+chyrkoiCWftD86A2NTMQRAHgWhn6yTPO/0dEkUJtbkH7Q48zEDueed1uNF83B/YPPmEwKIhPXBVt9z2M9oeeYCyCWFD0AJRS+pQANACLpJQCwHhWJREF9Wdiays6nnyOgSAKAFdY9ABcxYokoohhe+dDuH5bGfFxkC4XWq6ZDcfnX7NRUEjoeO4ltM19DJCSwQhCCQkWzcv0ZREQX+b/c3qabcsBDAKQzKokomDX+eY78JZXMhBEfuZeuw7S4QzdB8DOTrg3b2FFElHkkBJt/3ooopMI0m5H88VXw/H1QrYHCq1nnhdeQWvxvZwDPQglJsRoXuZ+JQDzx1+XCaC3D9tZvnnzPCfY+4+IQoXHg/Z5zzAORAE499x/rAvZ3Xet+h3w8iaaiCKLe81aOL78NiKPXdpsaJpxOZyLFrMhUEiyvfEOWm+9m0nAIJMQF+AegNJt9Gn+PinlT9tfMgFIRCHD/skC9gIkCsSDZAgPA+YCIEQUqdoffTLivgCRDieaLr2WQ6Ap5Nne+QCtt9zF4cBBxGQywGw2alrmfiUAFUWM9W0jXACEiEKQV0XnK/9lHIj8LJTnAXRx/j8iilCeraVwfPlNBB2wB83XzIbr16WsfAoLtnc/RNu9DzEQQSTGGqVpefvXA1DClwSg9HoNv0gpYwEMZBUSUUh9EL7zIdTWVgaCyI9CNokmJdyrfmcFElHE6nj+5cg4UK+Klpm3wvndD6x0Ciudr7yOjqeeZyCCRGxMoBKAJ59sgMAoH7axcfOK++oBjABgYBUSUUg9z9vtsH+0gIEg8iO1vgHeqpqQ229PSRm/MCCiiOb+/Q+4lv4W5jeHEi033g77Z1+wwikstT/+NDpfeZ2BCAIB6wGYX9Z/CCRi9/v6KHYO/y1k9RFRKLK99R6DQORnrpWhNwyYw3+JiADbm++E9fG1PzIP9g8/ZUVTWGu79yHYP/mcgQiwmID1AJTSp/n/oGLJ9ldMABJRSPJs3AT3738wEER+5A7BZBoXACEiAhxffgO1tS0sj802/wN0PPsSK5nCn5RonXM757gMsID1AJTCtwVADAaxbPtLJgCJKGTZP+UwDyJ/cv0WeglA9gAkIgKk0wXHJ+E3fYrzx0Vovf0eVjBFzrnsdqP56lnwlJYxGAESsASg8K0HoMvT2Pm7lNIKYACrj4hClePzrwEpGQgiP3Gv3whpd4TOTXJHJzxbSlhxREQA7J+E1xennk1b0HztHMDrZeVSRFFbWtF0wZVQm5oZjACIjYnWtLx9SgAOmDg7Dj6t4CtXbd48zwlgJLgACBGFMG9VNdzrNjAQRH572vLAvTZ0ht67Vq4GVJX1RkSErh7R3rr6sDgWtbEJTRdeCdnewYqlyHwOqqhE85UzId1uBsPPAjMHoFsZDR8SeBLg8F8iChvOhT8yCER+fYAMnTn1OP8fEdEuVBXOrxeG/nF4VbTMuhXemlrWKUX2Pdmy39B278MMhJ9Zo82alrdPCUAp5RhfChcCO9aAH8WqI6JQ5/xlCYNA5EehlFQLxVWLiYj05Pj+p5A/hrYHH4Pzp19YmUQAbP99C/b3PmIg/Cg62qRpefs4B6Ac7kvhUu7sAcgEIBGFPPdvqyDtdgaCyE9CZlENKeFe/TsrjIho12v4kuWAxxOy++/46lt0vvQaK5JoF613/AvutesYCD+JjgpEAlDClwSgI15tXSulNMOn+QOJiILsGd/thmvlGgaCyE/UxiZ4K6uCfj89W0qgtraxwoiIdr1v6uyEa/XakNx3z6YtaJl1GxeAI/rree10ofma2VDb2hkMP4jydwIwN/eqKAjk7W/BAlixfPlzbnQl/0ysOiIKB+5VTAAS+ZPrt+DvBRgyPRWJiPx9fVy8NOT2WTpdaL7uRkibjRVItBve8kq03ng7A+EH0dFGTcvbawLQmBIzBMB+b1VKsWP47xBWGxGFC3eIfpNNFLIPjyEwDyAXACEi2tN9U+hNj9A+91F4Nm5m5RH9A8fXC2F7610GQmd+HwKsStWnBJ6AunL7ywJWGxGFzY3sGiYAifx6zoXA4hrsAUhEtIfrY4glAJ0//YLO195ixRHtg7Z7H4anpJSB0FG0xqsA70PPPjEc8GHuA0XsuGNnD0AKWZajjoCIiQmpfVbb27vmK3G7IW12qG3tUBuboDY1QTpdrNRu8m6rg9raBiUhnsEg8gP3+o2QNhuE1Rqc19y2dnhKylhRRES7u0bWN8JbUwtDeq/g39emZrTMuZ3z/hHtI2m3o+WGm5Hy1isQJs76pgetewDuPQEo5TBfrp9RDnXH0jBMAFLIirv+Shh6Z4bPRbqzE57Kani3lMCztRSeLVvhWvV7SEyyH0w8W0thHjmMgSDyB68X7t/XwTymMCh3z71yDaCqrCcioj3dN23aEhIJwNab74Ra38AKI9qf+6Df16HjyecQd90VDIYOoqK0nQNwX0obut9JBmDL6tUPdUopYwBks9qIgoOIiYFpQB5MA/68ro+3phauJcvh/HERHF8v5KTHe7uR3VrCBCCRH7lWrA7aBKBrJYf/EhH9433TlhJEHTgxqPfR/sGncHz7PSuLyAcdz/0b0VMOhGn4UAZDYxZ/DgEeVHhzuheeHvudZAB2LJNZgH2YZ5CIAsuQ3guWY4+E5dgjIe0OOL77HrbX58O1ZDmDsxve0nIGgciP3EGcZOMCIET/Yxo+FIaMXiG337KjE/B6Ib1eqM2tUJuboDY1A1727tWCZ2tpUO+f2tyCtvsfZkUR+fxwpKLllruR9sHrgNHIeGjIaNQ2nfaPtSMN3mG+TP8HsTMByOG/RCFGWKJhmT4VlulT4Vq+Ah1PPAPnL0sYmF0/47ZtYxCI/Mj126quOZmECLKnRjXkJrgn0lPMuWfActQR4XEwUkJtboF3Wx08JaXwbCnp+m/tOnjKKljZ+8FTFtxfnLbd/UBXwpeIfD/PN25Cx4uvIvaS8xkMDZmMBk3L+8cEoFeVw3y515aq3LUHIBGFKHPhSCS/8iwcC75Ca/G9UJtbGBQA3to6BoHIj9TmFnjKK2HsmxVcN7ubt0C2d7CCiMKREFCSk6AkJ8E0aMCf7wPq6uFashyuXxbD8eW3UFvbGK9/uobX1AbtvjkX/gj7J5+zkoLltIsyQ0lMhJKYAJGUCKEogNEIEWMF3J6d0xSpnTbIlhZ4m5r5ORxEOp56DtFTD4Uxuw+DoRGjPxOAQsFQX3oAGhTjjgTgYFYZUeiLnnYYTKOGo/niq+Fet4E3srXsAUjkb+4Vq4MuAeji8F+iiGTokQbLUUfActQRiC++Gc4fFsH+zvtwfPsDV5DdDe+2uqDsxS07O9FafC8ryM+E2QxjXg6M+bkwDciDoU9vGDLSYcjMgJIQv//16HbDW10Lb1U1vFXV8GzeCs/6jXBv2MSenf4+pxxOtN7+L6S88kzwjdoIUX7tAQgJX2a5t6/vu3kLukYMDmCVEYXJzW7PHkh5499ovuy6iB8S7G1sYoMg8jPXylWwHHdkcO0TE4BEEU+YTIg+5CBEH3JQ1xC4p1+EfcGXTAT+JSmgtrZBSUwIqv3q+L8X4a2uZQXpTElOgnncaJhHDod51HCYBg8EDAZNz0Fj36zdfknoraqB67eVcP22Cq4ly+DZtIUVove90a9LYP/ws6C7ZwtVfusBWFh4sakdGOhDmX9g/nyvlDIKAPt+EoXTTa7ViqSnH0HjGRdEdE/ArsnCVcDANY6I/CUYF9vgAiBE9KcHq/w8JD52PyynHI/WW++Gt7KKQdlObWgMqgSgt7wSnS//lxWjE9PggYg+ZDKiDpoI05DBgBKYe2ZDZjosmemwHD2tq96ra+H84Sc4vvsRrp9+gXS7WVk6aH/4CURPnQJhsTAY3f1c0XgRkD2WZhPxAwBE+VDmjtmwcwAYWGVE4UXExCDp6UcgYmIiNwhSQu1oZ2Mg8iP3xk075/4JiofZ1jZ4SstYMUT0N1ETxiLtk7cRPeUgBmPHNbMtuO6b2h54FNLlYsVoyNg/G3HXXYG0Lz9E6gdvIPaqS2AaNiRgyb/dMWT0gvW0k5D87OPosehrJNxXjKgJY4NqH8OBd1sdOp5/mYHQgNZDgPfY0j2KYZiPZe7oFpTP6iIKT4bMDMTdcGVEx0C2MQFI5N+7SRXu1WuDZnfcK1dziB8R7ZGwWpH01COwnnYSgwFAtgfPfZPr1yVwfPUtK0WLdh5lhuW4o5Dy+otI+/x9xF52YcgsAKEkxMN64rFIfvkZ9PjqQ8Recj6U1BRWqkY6X3wV3hoOse8uo78SgIoqfVrAQzIBSBQRYk4/JaJXeJIOJxsBkb8f2lYGz5Bbzv9HRHtlUJBQfBOiDz8k4kMRND0AvSra/vUQ22Y3KclJiL14BtK++QSJc++GuWhUaJ+qWb0Rd8NV6PH9AiTOvRvGvBxWcneflewOtD88j4HoJr8NAZYCeT7toFQ3bn+Zx+oiCu+b2pgZZ0fuh5rHwzZA5GfBlHRzr1jFCiGifXjaUpD40L9g7J8d2ckAhyMo9sP2wcdwb9jEdulrc05LQfyts9Hj+88RN/NqGHqkhdXxCZMJluOOQton85H05ENMBHaT/eMFcK/+nYHoTpsUAgYNh6j/U0m+9OBT7bGxm7vxfiIKIZajp0FEmSPz4JkAJPI794pVwTHs1qvCtWYtK4SI9u0BLjoKifffFdnzjLkDf98k3W50PPU8G6QvSYOEeMTPuQ49vv4EMeecHv73/0Ig+vBDkPbx20h86F8wZGawEfh00km0P/5/jEMwnct7avLoWsRjf5WVLize8fUOE4BE4X5DGxsD84Rxkfl5xlXDiPxObWmFp6w88M+xmzZ3rQZORLSPTCOGIvrwKZGbBwiCL07t73zIlZn3l8EA66knIu3z9xFzwTkQlujIOn5FgeWY6Uj78gPE3zIrshdB9JHzx0VwLfuNgejWQ7eGTXp3/zhg5Ox0AHE+lLcBAKSUcQB6sqaIwl/U2KLIvA4buMg5USC4g2AYsJvz/xGRD2IvnhHBF+/AfnEqXS50PPMiG+F+MI0YirQP30TC3bdCSUmO6FgIkwkx556BtE/fQdRBk9g49lPHk88xCN1pf0K7DKCy+wdbxafeewLYdf4/waoiioCbg+FDIvPAzWZWPlEABMM8gC7O/0dEvtwzDRkMY36ETpMe4C9ObW+9xxVJ9/WZ3mpF/K2zkfrmyzDm5zIguzbjjF5Ifn4eEh+8B0piAgOyj5yLFrMXYHfOSb17AKpC9SkBuMsKwP1ZTUSRwdi/X2ReiKOiWPlEARAMi2+4V7IHIBH5xnLEoZF53xTAL06lk73/9pVpxFCkffQWYs45PbLnrNzbeXzskUj9ZD6ixo9hMPZR+xPPMAi+Xj917wEI6eNXUztXAM5mNRFFBiUpESIuNgJvZE2sfKIAcG/aEtD597rmIaxgRRCRT8zjInPqFARw0Qj7R59BrW9g4/snBgWxV16M1DdVysxnAACAAElEQVRegqFPb8ZjX0LWIw3JL/0f4mZdE/AerqHA9etSuFetYSB8ee7U8tl9d/8oBXxKAHpUw44EYF9WE1HkUBISeMxE5B9qYFfgDZqViIkoJJkKBkdksiBgPQClROdL/2HD+6d72sQEJD//JOKuvoyJrP0OnoLYi85Dyn+eg5KWwnjsRcdLrzEIPjUznXsAQhW+DAF2bl1uqdz+OpvVRBRBN3VWS2Qdr8kEEctVwIgCJZDDgF1cAISIunMPYYmGITM98h5gA/TFqfOHn+HZvJUNbw9Mgwci9f3XETVpPIPRDeaiUUid/xpMBYMYjH/g+OIbeKtqGIhAXov//k/FCgR8mdSrDChWt79mD0CiSLqZjbAEoJKcpO1srES0XwKZhHNx/j8i6iZjn6zIe+hMTgzIdjtefJUNbg+iDpiAlNdegCEzg8HQgCGjF1JefxFRBx/IYOyJ14vOV99gHAJ5Lf7rPwwY09EXQPR+JwCkKN3lr9kMLVEEXUis1sg63pRkVjpRALlXrAJUNQA3rircq9eyAoioe/cREbh6aCDundx/rIfr16VscLthPfNUJD83jyNaNCYsFiQ//QisJx/HYOyBbf57AZ3LOTQblo5DgAUM+b6VpJYAgJQyGUAca4kockg1subDMmRlstKJAkhta4entNz/D5MbNkLabKwAIures1yEfXEKIaAkJfl9s7bX3mJj243Yyy9Cwh03Agau8qvPg4IBCffcjphzz2Asdvfc2NEJ27sfMhD7wePxalbW3856VfVtBWApldLtL7NZRUQRdiF32CPqeI3ZfVjpRAHmCsA8gG7O/0dEGoi0qVMMaakQ0VH+vTft6IT90y/Y2P4ibubViLv2cgZC95NcIP6WWYi58FzGYjds899nEPaD6tWus42ym7bqUwIQEqXbX2Wziogii7Q5IutGtg8TgESBFohkHOf/IyJNcgMR1gPQ0Nf/cx7aP/oM0m5nY9tF3A1XIfbiGQyEH8XPvhYx55/NQPyFZ+NmuFf/zkDsI6+G0978LQEoAZ+GAEvpLdn+kguAEEUYta4uoo7XmJPNSicKsEAk41wBXH2YiChk75sCMHKCPYz+LPaKixB7yfkMRADEz7mOcwLu9hz9gEHYB16vtnNe727gv08JQI/RXLr9JbvGEEUQabNBbWmNnAM2KDANGsCKJwowz+atUNva/bY9tbEJ3vJKBp6Iun/vZI+skRPG/v38uj337+vgXruODW0765mnIu4aDvsNGCGQcNetiDpoEmOxC/unn7OX7j7wRwLQlyWa7CWL793RBYiz4xNF0kN4ACbiD+hNbE4OhMXCiicKNFX16/ARF+f/IyKNRNpiQqaCQX7dnm3+e2xk20VPOQgJt85mIALNYEDSY/fDmJ/HWOy4DnZ0wvH51wzEXvgjAegDUQJgx8yEGawmosjhXhVZ8zeYhw5mpRMFy/XHj0k5N+f/IyKNqPUNkXOwQvg3AejxwLHgKzYydCVeEx+9j6v9BsupEBOD5Gcfh5KawmBsZ//gEwZhL7Sc/w/QLAEod+0CxB6ARBEk0ubEMo8pZKUTBcv1x49JOc7/R0SaPdBVVUfMsRqz+0LExfpte85FiyNrapo9PeQnJCBp3oMctRJkDJnpSHqESdmd5+uSZVAbmxiIf/q8CM4egKgAACmlANCL1UQUKVckFc4fF0XUIZvHj2G9EwUJ96o1gMbfjO7h7gvu3zmfFBFpQFXhqaiKnPsmP39xav/sS7YxRUHiw/fC0Jv9coLynBg3GnFXX8ZAbH+WdHz9HePwDzz6JgCLFQD7vy69wI6vsVIARLOaiCKDa+nyiPrWxpiXA0Ovnqx4omB5jm5rh2drqe7bca/byImqiUib68mmLRE1B2DUxHF+25Z0u+H8ZmHEt7HYKy5C1IETeLIFcx1dcj6iJoxlIADOA7gXHo9X0/L+lAAcVOjqCcDsw+V2x7J4/JqBKILY3vkgoo436sCJrHSiIOOPxTlcKzn8l4i04V61JnIO1qDAPH60/z4PfvoFamtbRLcv09ACxF12IU+0YKcoSHjgLigJCREfCuevS6E2NbNN7IHD4dG26e36F6/wZPlUiqrs6MfOBUCIIoS3dlvEDbOwHDmVFU8UbA/TfkjOubkCMBFp9bC78MeIOVbz8KF+TXDYI7wnkYiJQdJj9wNGI0+0EGDo2QPxt3GFZni9cLDn7h65XG5Ny/tTAlAK9PbpYmPwMgFIFGE65j0DeDwRc7yGrN7+XcWOiPbtxsgfPQCZACQiDUibDc6ffomY442e7scvTtXIm5f6r+JuuBKGrN480UKI5ZjpiDr4wIiPg/O7H9kY9hQbl449ACGkT0N4pUfumAOQQ4CJIoB75RrY3v0osj6gpx8OCMHKJwoyni0lUFv1W/FRbWiEt7KKgSaibrN/vADS4YyMg1UURE89xH/3pn+sh9rQGLFtyzR8KGJOP4UnWQhKuP3GiF+t2fnLkojqWLI/XHomABUIX4YAOzYuf3jH1TadVUQU3mRnJ1puusM/K28GCyFgOfFYVj5RUF6UJNyr1up347WC8/8RkQZUFZ3/fi1iDtdcNBKGnj38l0D44efIbVsGAxLvvQMwKDzPQrH6MtMRe+n5Ef986Yqk+VH3g8Op5xBg1achwFUA5PbXXB6TKMxvXltm3QbPlpKIOuyoAybAmN2H9U8UpPRcpIPDf4lIC/aPFsBTUhoxx2s95QS/bi+SE4AxZ54CY14OT7JQrsPzz4EhI7L7Ujl//pUNYXdx0XUIsAJfegDuOi4mlVVEFKZUFa233AXH199F3KFbzziZ9U8UxPRcpIMLgBBRd8mOTrQ9+FjEHK+SlIjoqYf67xa1tQ2uVb9HZNtSEuIRe+UlPMlCnIgyI+76KyM6Bs4ff2FD2A2XU88EoPRpDr/qXV73YBURheGNq92Blpm3wPbuhxF37Mbc/oiefAAbAVEw3xytWgN4dZiWwOOB+491DDARdUvr7fdArW+ImOO1nnI8RJTZf58BvywBvN6IbFuxl10IJTGBJ1kYsBw9DaaB+RF7/O7f1+o6p3Oo0rEHYLECHxbxkBDbdvlrGquIKLx4tpai8ZRzYP/k84i9sYLCOVWIgpns6IRny1btb0bXbYC0OxhgIvJZ58v/jah7KBFlhvXs0/26TdfyFRHZtpS0VFhP5yiV8Dl5BGKvuDhyj9+rctTFbjhdOs0BWDC6sweA/f6qRki1DgCklAYAiawiojB5oHY40f7Y02g45lS4N2yKyBgYs/vAMn0qGwNRCPj/9u47vK3qfgP4e662ZFveM4FAFiGBDCdhtuVHKS0dQAfQ0paWUgqlQAuFMEqLu4CMQtl7b1L2DARIyCJ2nO0kHkmc5cR7SrIl3Xt+f8hOFBMntpYl3ffzPAFLtu74nqOrc786w7s28o1Gzv9HROHwvPEOOu66W1fnbPvJD2HIjW2fEG/5Wl3Wr5TfXwZhs/KNlkSsZ5+p616AbHd9ldvtjej29icAfTCMDGkLQmns/Skb/YcUE1HCkZ1d6Hr0aTSc+T10PfQ4pNer21ikXn8NV1QjShDR+NbYtzb5G6LCZo3pUD0ivXA99zLabv07oGm6OWdhMiHl8l/Htt3q8cC3pUp39UvJyoT9gh/xjZZ0byIBx29/pd+23FomAL/yWeLuiej2jAcqm38E5NBvdIVEQ++PXACEKEFJjwc9y0vR/d6H6P50EWR3j+5jYj5pOqzfOYuVgyhBeNdEfiVg7+p1SR8304mT4NuwCYCXlYgoEm0qlwvtt98Bzzsf6O7c7T+/EIbC/NgmDNZtBPx+3cXa8fOL+OVNkrJ992x0zrsP6r56/bXl1lcE5nRmB4z9opYAlBAjRAgbUBW1LwHI+f+IEqRh6t+xC/6abfBX1cC7ag286/XZeBqQQUHaX25kHCgpCJsN0udL+ve4f/sOaO3tUJyRmQxda2yCWrc36euHefrU3gQgEYWr+8NP0HHHPKj1Dbo7dyUzY1hWo43Glz9x/7lutcB+Mef+S1pGI+wXX4DOux/Q5X2qr2YrTOPHsh706nJFKQEooOQDcuiF5Df2DQFmApAowtzz30L3++FNHC27eyC9PdA6OqE1NnFC+0Fw/Ornup5/g5LvRsE4bgx86zYkeatRwrd2AyzfOD0yN5Wr9XFTaS6eCtfTL/KNQhQqTUP3oiXoeuRJ+NZu0G0YUv90FZS01JjvV49zhlm/8y0omRl87yUx+0/OR+d9j+iyg4Zv7XomAINEbwiwlLkh3ViYXOwBSBSNe1mvF133PgS1oZHBiCHjqKOR+qc/MBCUVMzTpyZ/ArD3RjBiCUA99CoxKDBPPZFvEKIhN9IkfFuq0P3+Anje+xBq3T59f8ZMmwz7hcMzH51/c6Xu4m3/6Y/5HkxySnYWrN84Dd2fLtbdufu2VLMCBHG5Itt5J2gIMHJDGALcU7Py/o7en7NYPESR43nzXSb/Yv5pq8B55+0QVgtjQcl1czZ9GlxPPpf8jcYIJu30MBG1acJ4CIeDbxCiI1D31QemTqmugXfdRnhXroLW3MLAABAWM5x3lgBK7Ofs0trbdTfc2jj6GJinTWHF0wHbj8/TZQLQX13Dwg/S5Y7aEGCE0gMw+IqbzuIhilRLU9PFzXq8Sf3D72AunspAUNIxT58auDlL8tUoIzV5tPT54KvYrIN6MY1vDko6vo2b0fX406G//zs6ASn3T52iNrdwnuTDtZ3+eBWMx4wankTBZv2t/ms7//usdDphPeNrUJxp0No7dHXe/uqtLPwgLlfUVgFGdghTADYF/cyJCIgipHvBQvhrdzIQsbwRPnkmUq66nIGgpKQ402AcMxr+quQeVhGpyaP9m7ZA9iT/qrj8woOSUed/7kPPsi8ZiBi1nRyX/nLY9u+r0l9PIet3vsWKpxdGIyz/9zV43npfV6ettbZBa2nlPJe9Ij0H4IGvyKUIoQegaA564GTxEEVG1xPPMggxZCjIR8Z/7+KS85TcN2oz9JHsicQwYL1MKm+eNplvDEoq3tVrmfyLVdspP2/Y207+Sn3NFWaaNAHGo0ey8umI9eyzdHne7AV4QFQSgCNOuc4GyLShv1wGT36RzuIhCl/Psi/h27iJgYgR4XAg49F7+S0TJT29DPeMRPLOq4P5/4yjjoaSk803BiWVznseZBBi0XYymZD+39nD3nby6WyuMOuZZ7Dy6YzltJMhLGbdnbe/hgnAPh0dnohuTwEAs9cc0gq+QsjWoIfpLB6i8Lkee5pBiBWDgvT//Bum48YxFpT8jciZxbo4z0j0APStTv4VgM3TOfyXkkvPilJ4V65iIKJNCDj//be46EGs7tilr8/xb5zG+qe3t5vNqsvpOvw797DwAXg8XvR4IzsHrQIAJoMMZQEQSCnagh6ms4iIwrzp3LgZPStKGYhYUBQ4//U3WM/8BmNB+qjyOdkwHDUi+RuNO3ZBa2kN/YayoRHqvvqkjxMTgJRsuu5/lEGIgZSrfxcXC1FIjwdaa5t+PsMz0mGaOIEVUIfMp52su3NW9+5lwQNo63BH/loCAFILLQEoBNgDkCiSjdfHnmIQYkEIOP96E+w/Po+xIH01IvUwDFhK+NZtCPnlvvK1uqgLJi4AQkmk54vl8K5azUBEmf2CHyL16iviI0GwS189hMynzAQUzlWtR5ZTZurunNW6fSx4AO0RHv4L9C0CoiCkSWA0LdADUEopwEVAiMLir92J7k8+YyCiTQik/XUW7D+/kLEg3dFLr69w5gHUw/x/Sk4WJ5KnpNJ5/yMMQpTZzv8+nP+8DRAiPhIEe+r09fk9bQoroU6ZJoyHsNl0dc7qXiYAgcjP/wdA6+0BKPJCakAe6AGYCsDAIiIKneuJZwFVYyCiyaDA+a+/wvGLnzIWpEvmGfqYBzCcJJ53jR7m/5vGNwMlje5PF4fV65eOzPaDc5B+59/jqgeafzcTgKSX+xcDTCccr6tT1pqaIb1e3Rd9a5sr4ptUAEBRENIiIJrcvwhIOt+ZROFd5Dxvv8dARJEwm5Fx7xzYL/ghg0G6ZTx6JAy5OUl/nr51GwFVHfLrpNcL/6bK5L+R5PBfShZSouu+hxmHKLJffAHS5/4LMMTX8FM99QAUFjNMx41lZdQx04mTdHdt1/Y16L7cozAHYFOgB6AUIa4CrLT1/pjCtyVR6FzPvAjZw285osWQm4OsF5+A9exvMhjERqQOhgFLjwe+yuohv863cbMuvnHmAiCULLoXfArf5koGIkpSfncpnCW3xuXcc1pTs27KwTj6WMBoZIXUc9ttnP4SwKqO3uMD6eiM7BBgAbQogR+0rJAKRd0/BNjBtyVRiDeqXS64Xp7PQETrA3PiBGS99hxMk09gMIign+SPL4R5AH06mP9PpDhgGj+ObwRKfJrGuf+idZ0wm+G843ak3nBt/BZ/GKu9Jxrjcbxm651x7LH6u0fu7NR9ube1R7oHoOztAQgR0gIeQor23h+ZACQKkevF1yA7uxiIKLBf9GNkvfIMDIX5DAZRL84DeJjX6GH+v2mT424oH1EoPO8vgL96KwMRYUpmBjKfegj2n5wf18eptbXrpkxMY0ezYuqccfSxulsFWutgAjDSCUAJpbmvL3FGKBvwOy19pcIEIFEob0KvF67nXmIgIkykOOD8x22wff87DAbRIW4kFKcTWnty3zyFkszzrU3+hQQ4/x8lBVVD1/2PMg6Rvj5Mm4L0e2fDkJcb/8kBHfUANBw1gpVT7/c2VgsM2VlQGxr1c5/c0aH7cm9uiWwnIQGtqS+NnB7KR2/topLu3p+ZACQKgeeNd6A1NjEQEW0lGZDxwH+Y/CMaiKLANG1y8ucHdu4e0hxRat0+qPXJP+E0VwCmpGg/vf0e/LU7GIiI3RUKOC75GbJeeDwhkn+AvnoAGooKWUcJhqICXZ0vewACTS2RjYGE0tyXAEwL4ZMieE1iJgCJhnx3qsH11POMQ8TjqqLlN1eh9Y+z4N9ey3gQHYJe5gH0rts4+L9dm/zDf4XJBNOk4/kGoMTm96PzwccZhwhKveFapN02K2EWmpBeL6TbrZvy0VvihwaqB/pKBGucIiviPQAhtCYFF1xgQEgJQBl8NEwAEg1R94KF8NfuZCCi8omhofvDT9D43R+jbdZt8O/YxZgQBdFLLzDfEJJ6oSwakmhMJxwPYbPyDUAJzf3621B37WYgIqhz7r1o+fWV8FVsTojj1dPc2cJshuJ0spISlJxsXZ2vdLl0Xd5SSjRFOgGooU45Ye/oNAAihJcHH42db0miIb6BnniGQYg2VYPnrffReM6P0PGvOZBdLsaECIBZJ4kg7xCSel4dJAA5/JcS/obI60XXw08wEFHQs3wlmn78C7T96ea4/4Jaer26KRclI52VkwJ1wZmmrxP2q7ou745OD7xef0S3qcGwV/F6/SFdVcTBCUD2ACQaSiNr6Qr4Nm5mIGL2AeKH67mX0fDt8+F+9XVA0xgT0jejEabJJyb9afrWbwT8R248ye4e+DdXJn08zMVTWPcpoXnmvwm1bh8DES2aBs8HC9D43R8HvjiN12G2Pr9uikRJZ+8/6qsL6bq7HulZY3Pk50BUDUqdomrGkGqSBDgHIFGIXI8/wyAMx+dIYxPa//ovNP/8t1B3cvgQ6Zt5RvLPAyi7e+DbUn3ke8mKTZA+X3IHQwhdLP5CSfx+7vGi69GnGYhY6P3itPE7P0L3Rwvjry4k+/U6+NKdmsr6SIG6kKavuiBVffcAbGqO+FQH/u1HVTcpBoOWHuIGOASYKAS+DRXoWVHKQAwjb/kaNH7/J+h67Gn2BiTd0stw0MEs7qGH+f+MY8dwHilKaO6XXoO6r56BiCF1Xz1ar70RrX+cBa09flbd1dMQYGE2sSJSoC6YdFYXdH6P1hT5HoD7MH++qkiJEFuDIjgByBmliQapi73/4qPx2N2Dznn3oeXya6DWNzAgpDvmKSfqojE5mOSeLub/mzGVlZ4S9zPb42H7aRj1LazW88XyOLmw66cHIExMAFJfXTDq63x13wMw0glAuRcAFCDUBKAMnhTCzHck0ZH5a3eg++PPGIg40rNkOZrOvQjeL9krk/RF2KwwTjwu6c9zMMk937oNSR8HczETgJS4XM+/Aq2pmYEYRlpjM1p+dw065vx32IfgSr9+5gAUekv60MB1wayvlIuUUtflHekVgCVEIAEoNGSEtoGDEoAWviWJBtGAffxZDjmNx0ZtaxuaL70qMCSYSEf0MAxY3b0HWuPAiQN1Tx3UhsbkL2suAEKJehPodsP11PMMRFw0mDS4nngWLb+8fFgTskIx6Kf+q7xvoL6KL/R1ukZ9J7/31bdF+GKCOgBQpJAhrietBE++wB6AREe6CW1ohOft9xmIuC0gFZ3z7kP7LSWDWjWUKBmYp+ujV5h33cC9APUw/NdQVAhDQT4rPCUk19MvQmtpZSDi6Zq6eh2afvRz+Co2D88B6KlXnI7mOyQKJnQ+/H1vfWTnXRWidwiwECIlpA1AdgffQ7CKEh2hAfvMi7qatDhRuV9/Gy2/vw7S081gUNIzF08FFCXpz/Nw8wD61qxL/nLm/H+UoLSOTrieZu+/eKTuq0fzz3+L7oWLmBiIIj2teEx0cONF3wnAukj3ABR9PQClDHEFX9ET9IBDgIkO9+Hd5YL71dcZiATRs3gpWi77A2RnF4NBSU1xpsE0dnTSn+fhevnpYgEQzv9HCcr11PPQOjoZiHht37rdaL3mz3C//naML2r66XsiXW5WNArQ2aIYeu4BqGoaGho7InstgdLbAxAitASg1IITgOwBSHS4BuyLrzKZlGgJg1Wr0XzJ76C1tjEYlNRMOpgH0Ldh4yF7UcjuHvi2VCX9+ethrkdKPlpbO1zPvcRAxP+dKtpv/Ttcz7/CxEA03getHP5OvXWhS2f3kmb9ppiamjvh90c24Ss10dsDEAgtAagowePj2AOQaKA3W48XrudeZiASMWlQsRktv70a0s1vXymJ21c6GB4qe7zwHyLR59tQkfRzfioZ6TAeO4oVnRKO64lnIbtcDERCXGQlOv41B65nXozJ7oSOhgZy/kva/zbTWW9QPfcArNvXFvFtqgZlfwLQFtrVSHIREKJB8Lz+NrTGJgYiQfk2VKDlyus4fyMlLcuM6bo4z0MN9fXqYf6/4im6WzmQEp/W2gbXi68xEIlESnTcMQ+uF6LfE1DYbfoJa3cPv4imQF3Q2Rcienqf91ff0B7pTfq3H1XdBIQzBFiR7AFIdCSqxsmrkyFx8GUp2m/6G6BpDAYlHSUnC8ajRyb9eR5qsQ/fWh3M/8fhv5SAuh55EtLF3n+JqOPfc9H98afRTQw4HBA6Gh6o7tnLikVQGxr11T7NzNBtWUe6B6AA6jB/vgoAChDiIiDaQYuAGPmWJPoqz0efwL9jFwORDGX5/gJ0Pfg4A0FJSQ9JokP2AFy3IfnLtngKKzglFK2xCe5X/sdAJCpVQ9sNf4F39droJgfSnfoJ6e49rFcErb5BV+erp/d4f3vrI9sDUArs3B9XhDgHoBAHJQAVviWJvsr1xLMMQhLpfPAx9HyxnIGgpGOanvzzAKp1e6EGNZ7VXbuhNTYn9TkLmxXG449jBafE+qx96AlITzcDkcBkdw9ar/wT1D110bu+pafrJp7+XUwAkg57AOroPd7f3kjPAahhf4+kkBOAUhw0ByATgET99CxZDl/FZgYimWga2v58K7+JpaRjmVGsi/P0BfX4O1SPwGRjmnyirifRpgS8wa3bB8/8NxmIZGgytbWj9dpZUZtDWcnUT3LAX1XDCkVQdZYIVjLSdVvWu/ZE9gtqCRl+AlCTInhdYiYAifrpepy9/5KyQdvejtbrbgFUlcGgpGE4agQMuTlJf57BST89JAD1sMIzJVnb6aHHuehWEvFtqEDHnXdHJzmgo+GBvspqViadkx4P1H31ujpnPScAd0Y4ASighD8EWJEaE4BEh2nweL8sZSCStXzXbUDXk88xEJRU9DAPYPBCID5drADMBCAlDnXXbrjfeIeBSDLuF1+F5/0FkU8OZGXqJob+qhpA5UJ0eubfvgOQUj8nbFB0OwdgY1Mn3O7IfhGmRWIOQEVRmAAkGkDXo08zCMlexvc9Av/W7QwEJQ099BbzbdwM6fVCejzJ36PCYIB58iRWbEoYnQ88Bvj9DEQSav/bvyLee8lQWKCb+EmPB/6tW1mRdMxfpa/yN+TmAgaDLst6x+6miG9T6ZcAtISyEVWTwV9DMAFI1HeB3l6L7oWfMxDJ3hjzetF+awmg8RtZSg4mHfQAlF4v/Jsr4VtfkfTD+E3HHwfhcLBiU2K0nWp3wvPOBwxEsl57O7vQ/rd/RzZBUFSgqxh6V61lRdIxb9AcxnpgGFGo27LeuTvyC9QpUHYf+BkQIW2EPQCJDsn1xHNMCunlw3jNeg5XoqRhGjcGitOpi/etd60O5v+bzuG/lDi67nuYc+smuZ5FSyI6FNhYpK8EgXf1WlYiHfOt36ir8zWMKNJtWe/a3RLpTbq2lN65P6sYcuJOkzK4jz4TgEQA1PoGeN56j4HQ003Lfx+C9HQzEJT4hIC5eEry30StXQ/fGiYAieKFv3orPB98zEDoQMc/Z0Nra2eCIJTPri/L9DUHHO0nu3vg19lCMHruARjxIcDywPBfIIzEndDAIcBE/biefgHS52MgdERtaITr+ZcZCEoK5hl6WAhkffIPpREC5mlTWKEpIXTe/whHTuiE1tKKrocej8i2lKxMCJtNV+1N35YqViId8pav0d3q6EYd9wDcsSuyQ4CliFACUDOoHAJMFPzm6uyCe/6bDIQOuR57OmLfaBMNJz2sGqvu3QetuSWpz9E46mhdrZBJictfVY3ujz9jIHTE/eJr8O/YFZFt6a2XUM+iJaxAOuRdUaq7czYUcQ7ASBGIVA9A9aAegOyPTLrnevFVyM4uBkKHtI5OuJ5+gYGghGeaNEFXPSqSFYf/UqLovOdB9v7TGenzoeu/D0ZkW8axo3UVu+7PvmAF0qGe5V/q7pz19t7u09rmQkenJ9JX3d0HxTbUzSiGgxYB4Sc36V7KlZch5crLEqPx5XJB+lVIlxtaYyO0llaozS1Qd+yCf/sO+Ldug792JyfkHgL3y/ORcuVlEDYrg0EJ3OIywjzlBPTo8NvmZMIEICUC34YKJjR0yvPBx3BcdglMk44PazumcWPQraP5I33rNsC/YxeMR49kJdIJdV89fBVbdHXOhtwcKBnpuizvrbUNkb/v79cD0Bipusm3J1HiEA5HYPlvZxoMhfmHvlh4PIHVMsvK0bPsS/jWbeTkw4ehtbXD8/Z7sP/0JwwGJTTz9GlMACZ8GTIBSPGv896H2K7QKynR9ehTyLh/XlibMY4fp7vQdX/0CVKu+A3rkG7Ke6HurpPG8WN1W97V2+ojf9+vKTXBj0MeAiy1g17LHoBESUbYbLCcehJS/3gVsl97Drmff4C0m66DcfQxDM4AXM+8yJsZSnjmGUweJTIlJxuGkSMYCIpr3tXr0PPFcgZCx7o/+TzsuQBN48foLm6edz5g5dHT+0SHc6Qax43RbXlv2x75HoA+o+GgJaRD7gEopSaCHjIBSJTkDIX5cFx2CRyX/gLdn32Brseegm/tBgYmiH9bLXqWroDla6cyGJSwTFMmQ5hMXNE8QVlmFDMIFPfM0yajoGpNXB+j9Pkg3YG5mKTLDdndDa2lBVprG7SGJqh1e+Hfth3+rdvh37WH06YMlabB9cwLcN5+S+ht06JCiBQHZJdLP23N6q3wrl4H87TJrENJTt1TB+/qtfprh+qwZ2+fmkgnAAW6tq+846BuhaEnAA3sAUikS4oC61lnwHrWGej+8BO0/3M2tKZmxqWX550PmACkhCasFpgmTYB3zXoGIxEbztOnMAhEkbgWmkwQTlPggTMt8P9jRx36vqhv2pRVq+FdUQbvmnVc3GQwbaY33kHqtb8Pfb4vIWAaN1Z3SRL3K/OZANRDOb/xji6vI8Zxo3Vb5jXbIzwEWKL6K7fyIReMNLAHIJHOWc/5FnI+fAPWb53JYPTq/uRzSI+HgaCEZp4+jUFg2RHRIO2fNuXa3yPr5aeQ+8VHSLttFkyTJjA4h7s39XTD8/b7YW3DNHmS/tqaH34CraWVFSiZaRo8b7yrw2upFSadDgHu7OpGQ2NHpCNa0/+Z0OcA5BBgIgKgONOQ8cA8pF5zJSAEG7NuN7o/XcyKQQmNi0gkaMM5xQHT2DEMBNEwM+TmwHHJz5D9xkvIeu5RWE4/hUEZgOet98L7vJo2RX9tzR4vXC++ysqTxLo/+wLqnjrdnbdp8gmA0ajLMq+JwgIgEBHsASgVDgEmor6Li0DKNVfA+bebGAtwgmZKfObp0wCDwkAkWrlNm8JyI4q39+XJM5H51EPIeu4xGAcYQqxnvk1b4KusDj2+xVN0GTf3c69Aut2sQEnK9cwL+rxe6vT9DERh+C8AoWlb+z8XRg9AJbirD2e9JSLYf34RUv98je7j4F2xEtLTzQpBCUukprAnWSI2nGdw+C9R3L4/T56B7LdegeOSnzEY/XjeDH2oo5KdpcuVz7X2drhffYOVJwn5KjbDW1quz+vkVP3Obbk1CisAa0KJ3BBggxTBr2UCkIgAAClX/Aa2735b1zGQPV54y8pZGSixG2GcSy7xykzH35wTJQJhtSDttllIv+vvEBYzA9Kr+/0FgJRhXPv0mTToevQpSJeLFSjZyvWhJ/R54oqi6wRg9dbI9wBU/DKCcwAaDpoDsIdvVSLqk/b3W2EoyNd1DHqWLGdFoITGeQATLLFgNsN0wiQGgigB2H50LjIeuRfCzCQgAKj1DfBtrgz982rqFF3GTWtpheu5l1mBkohv0xZ0L/xcl+duGjsaIjVFt2W/uSricz66KtfM2dv/yZATgJqK4NkZvXy7EtH+C4szDWk3X6/rGPQsXcGKQAnNPKOYQUikhvMJE9mjiCiBWE47Gel338F5O/vaTYuWhP55dcpM3cat64lnoTW3sAIlS3ne90hYvWETut156km6Lfd9De1obu2K9GZrAHylMoX8iSMgTUEPmQAkooNYv3MWTCfqtzeKf+t2qPvqWREoYSk5WTAePZKBSJSGM3tsEiVeW+nsbyLl979lIAD0LF4a8muNo47S7eeV7OxC5933swIlAe+XZej+bLFuz9/ytVN1e+6bKiO/4rOAqDlk+z70OwMR/DUzE4BE1O+qI5B67ZW6DoFv/UbWA0po7AWYQGXFBCBRQkr9w+9gLub717t+I7TWtjCSB6fpNnbu19+Bb0MF30yJTNXQccc8/d422qy6bnNuqY58AlBCRjYByB6ARHTExtjpp8Awoki35+/bsImVgBIak0oJQlFgmnIC40CUiAwGOP/9N8Bg0HccVC2sBdQs39BvAhCahva//gtQuS5nonK/+jp8W6r02948aYaupzHZtCXyCUAIecgb0dDnAITCBCARHfGm1H7B+bo9fd9GJgApwRtkXAk4IZjGjYHidDIQRAnKeOwo2H90ru7j4FsX+sgJ80kzIKwW/cZu0xZ0PfEs30wJSGts0v0wbsvXT9X1+W+q3BP523BhOGS34NCHAEstOEXLVYCJ6JCsZ39Tv42xjZt0O5EvJQfDUSNgyM9jIOKcicMHiRJeytW/030vQO/a9SG/Vlgtup+2ouuBR+Gv2cY3U4Jp//td0Do6dR0DPQ/h7+j0oG5fW6Q3q5k9/i2H+kUYQ4DZA5CIjsw4+hgYCgt0ee5aewfUur2sBJTQzMVTGIR4L6MZTAASJTpDQT6sZ5yu6xj4Nm4Kaxir9Vv/p+v4yR4v2q6/BdLLW/NE4Xn3Q3R//KmuY2AaP1bXi85trqqDjHSHEYFt69fPcx3qV2H0AAQXASGiQbGcfopuz91fu5MVgBIahwEnQBlNm8IgECUB+09/ouvzl55u+CqrQ3699dtn6b4XpW9LFTrn3ss3UwJQ9+5Dxz/u0n0crN/7tq7Pf3MUVgAG5ICrAkVqERAOASaiAZkmTdDvh/uOXawAlNDYuyy+GUYUcZg2UZKwnHYyRGqKrmPgr9oa8muVjHRYTp6h+3rkeu5ldH/yGd9QcX2DoKLtulugtXfoPhTW73xL1+e/YdPuiG9TaGLACVXDWAQEwQlAF9/FRDQQ03Hj9duQ3ckEICU249gxUNK5wES84krNRMl0wTXCcpK+E1j+2h1hvd763bNZj6RE241/hb96K2MRpzpm3wPv6rW8R5w0AcZRR+k6Bms3Rn60mBaVHoBC2oIedvFtTEQDtmfHjwGE0OW5qzs4BJgSnBCcBzCOMQFIlFwsX9P3apj+7bVhvd569pmA0aj7eiTdbrRefQN7mMUhz3sfwfXMiwwE2PuvubULu+taIr5dxRCFBCAg7EEP2AOQiAa+WthsUJxp+mzI7tzNCkAJj/MAsmyIKDZMJxyv6/NXt4fXA1BxOmE57WRWJASSqa1X/BHS081gxAnfhgq0/+XvDAQACAGbznvsrl0flY4ifrW5p3LAa2ToBQZH0CMmAIno8A2y3FxdnrfW3MLCp4THXmZxel3NSIfxmKMZCKIkYhwzGjAouj1/f+0OQNPC2ob9x+exIvXyrl6L1quug/T5GIxhpu6pQwsTsgfalifNgGFEka5jsK4iCglAieqamvsHXKNDCX27B/UA5BBgIjosQ16OLs9ba28PuyFLNNxMk46HsNsZiHhrPE+fptvpFYiSlbBaYDxav3Niye6esIetWs86A0p2FitTr55lX6L91r8DUjIYw3U/0NqGlsv+AK2pmcHoZb/wh7qPwdoNUUgAioEXAAHCmQNQSvYAJKLBXzNSHPo8cVWD1tHJCkCJzWCAecoJjEOcMU+fwiAQJeMlt6hQ1+cf9ugJoxH2H/6AFSmI5+330f6PuxiIYSA7u9By2VXwb6tlMHop6U5Yv3WmrmOgaho2bI7CYpFy4Pn/gLDmADxoCDB7ABLRYQmLRb8N2ZZWVgBKeJxrjmVCRLFhyM3R9flHopeU7YIfsod0P+4XX0Pn3Q+wJ2AMyS4Xmi+7Cr6NmxmM4Pfned+DsJh1HYOabfVwu72Rv+cGopQAlEwAEtEQLkZ6TgC2MgFIiY/zAMbZNdVmg2nCeAaCKAkpOdm6Pn+1Jfz5k42jjoJ5ZjErUz9djzyJtptvB1SVwYh2+7+9A82/+T18azcwGP3YL/yR7mOwJjoLgACKVn7YX4fe8uQiIEQ0hEuGQ7/zh0mXhxWAEp5pyokQJhMDESfMU04AjEYGgigZ20ypKbo+f605Ml+cOn52ASvTIXjefBetf/gzF6OIIrW+Ac0/u5TJv0O1X6ZPg3HsaN3HYX1FVBKArZWl82oP9wdhLAICLgJCRINmKMjX7blz5TVKihtSqwWmE45nIOKoAU1EyXq9ter6/GWE5k62fvssGEaOYIU6hO7PFqP5kt9Ba21jMCLMX1WN5ot+DX/NNgbjEBy/+SWDAKB0dTTqhygHcNgx/qEvAgL2ACSiwdP1hNY9PawAlBSYdIofJg7JJkpaep8bS3ojNC+WQYHjkp+xQg3At24Dmi/+DdTdexiMSDX5Fy9F00WXQq3by2AcgnHU0bCe+XXdx2FvfRt27WmJwpZl+ZH+gouAEFFMKGmp+m3IsgcgJQnOAxgnDAaYJ09iHIiSlHA4dH3+MoJfnNov/CGUdCcr1QD8W7ej8dyL0L3wcwYjrEor0fXY02i58o+QLvaNGojjsl8CiqL7OKws3xqdzw4RzQSgOGgIMGs5ER3+kmG36bdNwAQgJQlz8VTAwIbbcDNNnABhtzMQREnKOKJQ3wHwRq7dJGw2LjhwpHZqlwutV9+AzvseBlSNARkirb0dLVf8EZ3z7mP8DkPJzIDtvO8zEABKV2+PzntZGqKYAJSwAxAAIITwA+AYNyI6XBNMv6fu87P4KTnexakpMI0dw0AMM/bEJEpuhqNG6vr8ZYSnTrH/8qdcxOpINA1dDzyG5p9zSPBQ9KwoRdMPLkLPoiUMxhE4fvFTCKuFgQBQGp0egK1VZXcdMbMYztf4yohTrgueoZbDgIlo4MacnrvDm7hSJyUP8wzOAzjsZcAEIFFSU9LSAKHfL04jPXLCkJcL2wXns2INgnf1OjSeexHc898EpGRABqqj3T3ouPNutFz6e6j76hmQI17TUmH/5U8ZCERz/r8jLwAChJcAhLXbGrxGPYcBE9GAtM5O3Z67MJtZAShpcCGQ4b6gCJinTmYciJKZQdH1MP9o9NZLuepy9j4aJNnlQvtf/oHmiy+Df1stA9KPd+UqNJ33U7iefh7QOOR3MByX/hKKM42BAFBaHp3VoaXUVg/m7xQAIY9NM1okFwIhokFRa3fqtyFrYYOTkgcTgMPLeOwoKFmZDARRstNzYiEKX5wacnM4F+AQecvXoOm8i9B5z4OQbjfvZfbuQ9v1t6D5l5fDv72WFWSQlHQnHL+6mIHotXJ1dBKAilDKB/V3EOgOdSd+6Qv+aooJQCIa+HqxfYd+T55DgCmZGnI5WTCOOoqBGK774mIO/yXSA+n16vbcozVyIuWKyyBsVlauodTDHi+6Hn4CjWefD88b7+hykQvpdqPzngfR+O3z4XnvI1aKIXJc9iuIFAcD0StK8/9BQqwaVDseMvShu4pmCi5JDgEmogF5V6/Vb0PWysYmJRfOAziMsWcPTKKkp7W1A6qq33aTJToJQCUnC/aLL2QFC4Ha0Ii2m29H4/d+DM9b7+kiESg9HriefQkN3zoXXQ8/AdnNNU+H/J7LSIfjF3zP9anb2xql+f/QNpgFQIDAEOCQ+/MqEhwCTERHbjTUN8C/dbtuz1/JzGAloKTCJNRwxn4Kg0CU7O2mXbt1ff7RnDol5XeXQklLZSULkX9bLdpm/RWN510EzxvvRHzBlnigtbWj65En0XDm99Hx77nQGptZ8KG+366+AsLB3n99vlhRFa1Nl2EQC4AAYSYANajBQ4DbWKREdCjdH3+m6/NXMtJZCSipcBXa4WHIy4VhRBEDQZTkfFuq2W6K4rZTrr6ClSxM/qqaQI/A//seuh55ElpjU1KcU3vJHWj4xnfQefcD0JpbWNBhMI45Fo6LL2AggixZURmlLculg74GAjKMGT2V4KVcmBonokNyv/q6fk9eCBg4YT8lGcPIETAU5DMQMcbEK5E+eL8s1fX5R3uhI8cvLoLxmFGsaBGgNjSi8+4HUP/176D1quvR/dnihOoVqLV3wP3K/9D0k1+i8fsXwP3SfEhPNws2AtJu+TNgMDAQvfx+FV+u2hqlrcvlg/1Lo4BwyxB3IwSCx7UxRU5EX9GzohT+qhr9NmLTUgEjFwGh5GMunsLJsGMdcyYAiZKe9PnQs+xLXccg6lOnGI1Iu/XPaLn8Gla4SFFVdC/8HN0LP4fiTIP1rP+D9ZxvwTxzOoTVEleHqrW0ovvzL9D94SfwrihNymHMw83yf1+H5WunMhBBVq/bgS5XVJLLfpM7ZdAfGkYZzhBgIYO/nmEPQCLqd5HQ0Dn7Hn03YnOyWQ8oKZmnT2MCMMZMnHuRKOn1LFwEraVV322n7OiPnLB843RYvn4qer5YzkoX6eZ/ewfcr78N9+tvQ9isMM+cDsvXToV5xjSYxo0FDEpMj0e63fCu2wjvilL0LF0O36ZKQNNYUFEiTCak3XI9A9HPki+jNfwXaysqSga9HkdvD8DQ+gAKyR6ARDQw9/w34du0RdcxMB49khWBkhJ7o8W4QZ2aAtOY0QwEUZJzvfCK7mOgZGXFZD9pt96Ipi8vgvR6WfGiRHq60bN4KXoWB6YoEykOmKdOhun48TCOHwfTuDEwjDoKwhyZlZ+1tnb4q7fCX1UDX2U1fOs3wldZpYtVi+OF/VcXwzjqaAainyVRWgBEQiwb0r2pFNIdYv4PAmAPQCI6JP/2WnTcdY/u42A4+ihWBkpKxrGjoaQ7obW1MxgxYC6eGvNeE0QUW92ffAZv2Wpdx0DJSI/ZKr3GY0ch5YrfoPP+R1j5YkR2udCzZDl6lgT1vBQChtwcGEYUwVCQByU9HUpGOkSGE8JkAoxGKHY7pKpCulyB7XR2QWttC/xraYV/dx3UPXX7f0/DdN8zcgRSr7mSgeinqbkTW6r3RueaKbShJQAFpFtChPYGPngIMHsAEtH+D+XWq67nhzAAIxOAlKyEgHn6VHQvXMRYxIC5mD0uiZK67dTl4henAIyjYttuclz5G3g++gT+6q2shMNW+SXU+gao9Q2MRYJz/v1WCJuVgehnyZdVkFJGZduqECuG8veKhBL6KsBSsAcgER1Ea+9A86+vhH/rdgYDgGEUE4CUvMycky52sZ7BBCBR0pISbbeWQN21m+2mGH9xKkwmpN9xO3tYE4XJ9qNzYTn9FAbiEJasiNr8f7U1K+cM6YNDEZoMOQEowTkAiegAtaERLb++Er4NFQxGL9O4MQwCJS3OAxijG1SzGaaJxzMQREmq8/5H0P3RQgYCse8BCACmySfAcfGFDD5RiJSMdKTN+hMDcQh+vxq1+f8gsGTIZaUp8IS+vwNzAAohOgBwBlUinfJ+WYqmH14MX8VmBqOXoagQSlYmA0FJyzRxAoTDwUBEO84nToKwmBkIoiTUed/D6HrgMQail3H8uGHZb+r1V8MwoogFQBQC5+23QMnMYCAO4ctVW9HR6YnKtqU2tAVAAEBRpOwKY5/972xbWcRE+qK1d6Djjnlo/vXvoTU2MSDBN+2TJjAIlNwMBpgnT2Icoow9LYmSj+zsQtt1NzP5FydtJ+FwIH3evzgUmGiIbOd/H9bvns1ADOCTRdEbGWeQWD7U1ygaREcY+7SOOOU6W9BjzgNIpBd+P1zPv4LGb50L1zMvAprGmPRvxJ4wkUGgpMd5AGMRYyYAiZKJd9VqNJ73U3jeX8BgBN/M5ubAkJc7fNfaaVOQcuVlLAiiwb5nRxTB+bebGYgBaJrEp19ELQHYsqXcNuSNGyFlB4QIea/2QC/APX0HwWImSm5qfQPcr/wP7tfeZI+/IzUkp5zIIFDy1/MZTABGlaLAxGsJUVLwb69F538fCsz3F6UVIROZ6cTh/+I09eor4F2+Et4161kgRIdjMCB93r8hUjgVzEDWbdyJxqbOKG1dfAqUDLkHjhHh9QCE4jUHJwDZA5AoCal796Fn8VJ0f/YFepYsB1SVQTnSJdluh2kqb9pJBzdsk0+AMJshvZwGOCrxHT8WSloqA0GUqKSEd2UZ3K+8Ac+ChWxDHeHzZNj1JjUaz/spZJeLhUI0gNSrLod52mQG4jA+WbQxmh8tn4byOqMA2sNKDChcCZgoqfj98FVvha9iM/ybKuFdtRq+LVWMyxCZZxZDmEwMBCU9YbXANGkCvKvXMRjRuJZw+C9R4lE1+DZWoOeL5fC8+wH8tTsZk0GwnHZyXByHYeQIOG+/BW033sZCITpk22QaUq76LQNxBJ9+sSlq25ZSC2npeCOkoQMi9G+ihJDBC4GwByAlFV9VDbS2jqQ5H+lyQaoqZFcXoGrQ2tuhNjRC21sPtaER6r56qDt2sSdPJBqxp5/CIJB+GoIzpjEBGK3YFjMBSBTvtLZ2+DZXwr+lEt51G+FdthJaezsDMwRKRjpMxx8XN8djO+978K7dAPeLr7JwiILfqzlZSP/vXYDBwGAcRlXNPtTujNJ0WQI7asrnbg3lpUahqR0yjMWOhHZQApA9ACmptF75JwaBQmL5+qkMAumGefo04NGnGYgoMLEHICUQdfce+DZuTqpz0jo7ASkhO7sge3qgNTVDrW+A1tgEdV8D1F27odY3sPDDbTedehKgxNcKvM6/3AB/ZTW8q1azgIgAwGhExr1zYMjNYSyOIJrDfyHxcchFaFG19m5j6BdbKQSHABMRBd+wHzcOxlFHMxCkG+ZpUwCDAqhcDTySDEeNYCObEkrn3Q+g8+4HGAgaMsvX4vCL095kR9MPfwa1oZGFRLrn/MsNgS996Yg++mxDFLcuPw31lcr69fPcAPyhbkDIg+YA5BBgItI96/e+zSCQrojUFJjGjWUgIozDf4lIF4xGWL75jbg8NCUnC+n3zeW8zqR7tnO/C/vPL2IgBqFmez2qavZFa/Oa5jd+FvI1DYAEEPLaxBrnACQiOoj1O99iEEh3zDP4jXDEY8pv2YlIByxfOxWK0xm/1+Jpk5H211ksKNIt0+QT4PzX3xiIQXrnwzVR27YA1tasuTPkLsl9Y3/bQz8AEZwArGdxE5GuPyBPnATj0SMZCNIdJquiEdMpDAIRJT3bd8+O+2O0//QncPz2Vyws0h3DiCJkPnwPhNXCYAyClBLvLVgbvR0IfBrOy/sSgJ2hnyFygx7tY5ETkZ7Zf/pjBoF0yTxjGiAEAxEhSmYG5xIloqQnrBZYv3lGQhxr2o1/hO0H57DQSD/vz9QUZD7yXyjZWQzGIK1ZvwN79rZGbfuqkAvDal8GShbhrFOfH/RzK4BuFjsR6fKGPS0Vtu99h4Egfdb/rEwYjz6KgYgQ83QmVIko+dl+cA5EiiMxDlYIOO8ogXnaZBYcJT+jERkP/AfGcWMYiyF47+O10dx8j9vvWBpWex0AoIWRABQHEoBCCAkOAyYivTZif3I+hM3KQJBucR7ACMayeAqDQERJz/6zCxPqeIXFjIyH/wvjKH7hRUlMUZB+199hOWUmYzEEqqrhw4Xro3f9kWJxXXmJO6yi7f1vSxjbyBh1RknwHe9eFj0R6Y5BgePiCxkH0jUmABlLIqJBX+emngjTpAkJd9xKRjoyn30UhqJCFiIlpbSb/gTbud9lIIZo2cpqtLS6orZ9CbwT9vULAKQMb/VeW3tnXtBDJgCJSHds3z8HhqNGMBCk75u56VMZhAgQdjtME8YzEESU1Oy/+GnCHruhIB+ZzzwCQ24OC5KSSuqfr4Xj0l8yECGI8vBfKEbxftjb6P1POD0AoRoMTAASkX4ZFKT8/reMA/GtMKIIhoJ8BiJM5qknAgYDA0FEyft5cdSIhFj993CMR49E5vOPcYEEShopf7gcKVdcykCEwO32YuGiimjuYt2WL++qDXcjvT0ARVgJQAFREPSQKwETka7YzjkbxmNHMRBEYC/AiMSwmDEkouSWetXlSfFFh/GYUch86iEozjQWKiU0xy9/itQ/XsVAhOiDhevgcvdEcQ/i7UhsRen9f1hDgLWDVwJmD0Ai0g1hMiHl2isZCKJe5umcuy78GDIBSETJyzByBGznfS9pzsd03DhkPv0IlIx0Fi4lJPvPL0LabbMYiDDMf6s0uvecQr4bie0EegBChpUAFJBMABKRPj8wf3UxjKOOZiCIejF5FSajEabJJzAORJS0Uq+9MummOTBNmoCsl57inICUcFJ+dymct98MCMFghKh66z6s3bgzmrvYW1k6pzwSG1IAwGBQwhoCLIXkHIBEpDtKdhZSOfcf0UGMY46FkpnBQIR6EzlxAoTNykAQUVIyTz0xaVcXNY4+BlmvPA3DiCIWNMU/IZB203VIveFaxiJMr71dFu1dvAtARuT+NVD4CLMHoMIegESkO2k3XAuRmsJAEPVrUJqnTWYcQr05Zg9KIkpWioK0v9yY1D2NDCOKkPXCEzCOOorlTXHdVkv7y41wXHYJYxEmr9ePdz9aE9V9yAgN/wV6E4B+6QpzEZCDhgA3AFBZFYgomVlOPQm2H/6AgSA6BM4DGEbsuAAIESUp+4/Pg+nESUl/nobCfGS9+BRMk45noVPcERYzMu65C45LfsZgRMCCzzeitc0VzV14XKrjs0htTAGAmpX3dwDwhroRGbQIiBBCBdDEqkBESfvBmeKA844SzpVBNADzDCYAQ7u4sPckESUnQ24OUmf9STfnq+RkIevFJ2D95jdY+BQ/9dLpROZTD8P63bMZjAiJ9uIfEPLjuvISd8TqQNDPrWFsJ7/fYw4DJqKklXbLDTAU5jMQRAMwHX8chMPBQAyRcfQxnD+RiJKS899/g+JM09U5C5sNGQ/czZ5WFBcMR41A1mvP8EvaCNqxqxmlq7dF9zqi4Z1Ibi8oASjCmQfQdmzxTc6gx0wAElFSsn73bNgvOJ+BIDpsK9MA8xSuZDtUHDpNRMnI9qNzYfnG6Tr9PFSQdtuswNyHisLKQMPCNOUEZL/2HIzHjGIwImj+26WQUkZzF16z1fBmJDcYdBWSYS0EYhKSC4EQUVIzjjoK6f/6GwNBNAhMZoUQs+IpDAIRJV3byXnbLN3HwfGri5H56L266wVJw89+wQ+R9cITHGEQYZ5uH+a/XRrt3Xy8YeldrZHc4P4EoIBoCGdDKhOARJTEhNWC9HvnQKRwWCPRYHCISQgxY9KUiJKp7WQxs+0UxPKN05H99qswnTCRwaDov//MZjj/eRuc//4bhNnMgETY2x+sRlu7O7plCLwS6W3uTwBq0BrC3FBwAnAfqwQRJQ1FQfrsf8I0YTxjQTRIpsknQFjY4BwsQ14uDEUFDAQRJQ3n3//CtlP/a31hPrJeegr2n5zPYFD06ll+HrJefAL2i37MYETJi/9bHu1ddKuK592I39b2/SBEeD0AxcEJwD2sEkSULNJuuBbWc77FQBANpV1gMcM08XgGYpDYY5KIkonj1z+H7UfnMhADfD4677gdaX+7iT2zKOIsp52M7LdfgWky52KOlqUrq1BVE90+b1LgvZqV93dEersHEoBS1IezIU2iMOjhTlYLIkoG9gvOh+O3v2IgiELApNYQYsXhv0SUJCxnfA1pN13PQByB4xc/RfabL8E0fiyDQeEzGpFyzRXIfPJBKBnpjEcUPffKsqjvQ9HwalS22/eDJsMbAiyEOCro4Q5WCyJKdNZvfxPOf9zGQBCFiAnAIcRq+hQGgYgSnmnSBGTcOxswcMXbwTCOHY2s/70AxyU/A4RgQCi0enTsKGTPfw6p11zJ1aajbMeuJixZURnt3bgsXu3DaGw4qAegUh/mtkbu35YQTQBcrB5ElKis3zoTGffcBRgMDAZRiMzTpvAmcDCNMWcajGNGMxBElNCMx4xC5qP3Q9hsDMYQCIsZabfNCvTcyslmQGhIbOd/L9CTdOIEBiMGnn1lKTRNRveaAPn2+vXzopJP298qVwxKQ5jbOqrf412sHkSUiKxnnRH49tpoZDCIwmnApDhgGj+OgTgC07Qp/MaeiBKacdTRyHrhcSg5WQxGiCynn4Kct1+B9btnMxh0RIbCfGQ+fj/S5/yLSfcY6XJ14+0P1kR/R1K8Gq1N729tdns94SYAC884oyT4brmWVYSIEo3tvO8h4765TP4RRQiHAQ8iRsVTGAQiSljGUUcj68Un2HstEjfn2VnI+O9sZD52HwyF+QwIfZUQsF/0Y+S8/z9YvnE64xFDr71Vii5Xd7R30662eRZE7RrT90Pt2v+2AegJY1uGnZ0eLgRCRAnLccnPkD77H0z+EUUQF7dgjIgoeZkmTUDWy08x+RdhljO+hpwP30DK7y7lVBq0n3HcGGS/+iyc/7wNwuFgQGKox+vH0y8tifp+pBCv19Tc3xOt7fe/moTVC9B48DBgJgCJKDEYFKT95Uak3TaLw/CIIsw8YxonNj8MYTHDNInz9hBRAl7fT56BrOceh5KVyWBE4/PBZkPqDdci68UnYZowngHRe124/mrkvPUyTFNOYECGwRvvrkJDY0f0b0slnozm9vvf6Ya1EIg0gCsBE1FCUZxOZD7xIBy/upjBIIrGeywzA8ZRRzMQAzBNPgHCbGYgiCih2M77HjKfeAAihb2Qos08bQqy33wJ6XP+CSWbcyzqihCwnvMt5HzwOlKuvIyjlIaJ36/iiecXx2JXVVvKZq+Iarv84AoWXg9AIZkAJKLEYRw7Gln/ex6W005mMIiiefPCeQAHjk3xVAaBiBKHQUHqDdcife6/+OVFLCkKbOd/H7kL30HKNVcw9jpgmnQ8sl5+Chn3zoGhqIABGUbvfLQGu+taor4fKfEEgKguMXxQAlBC7AvzkEcGPeAQYCKKW7bzv4fs/z0P49EjGQyiKOMcd4eLDROARJQYFGcaMh+7PzAvHQ0LYbcj9Zorkf3efFi/cxan2EhChpEjkD7v38h+/QWYp01hQIaZpkk89uyiWOzKZxby+Wjv5KA+pIpEXTjpRnFwAnAPAH//fRARDWvDKcUB5z9ug+3732EwiGLEPINJrkO38hWYp5zIOBBR3DNNPgEZd98Bw8gRDEYcMI46Chn3zYW/qgadDz6G7o8WAlIyMIncJCjIh+M3v4T9Zz9hD884suCzDdi+ozH6O5J4v2LV3H1Rv3b0e1wX3jGL/UOAhRB+KWUdDl4YhIho2Fi+cTqc//gLDAX5DAZRLBu1RYUwFOZDrdvHYATfUI8fB5GawkAQUfxSFDh+cRHSbr6e84/FIeO4Mci4dw58ldXoeuhxdH/4CYOSaG+xrEw4Lv0FHL/6OYSFib948/hzi2KyH02Ip2JyzTjokUQdwutF3D/ZtwNMABLRcH+wOtOQesO1sF/0YwaDaJiYi6fCU/chAxEcEw7/JaI4Zhx9DJz/vh3maZMZjDhnGj8WGffOgffX6+F68jl0L/wc0DQGJp7fX0ePhOPXv4DtJ+cz8RenPluyGRVb9sRiV/ucWutHMbkvPviRDPfsMiZOLAn+KpsLgRDR8FEU2C/8EXIWvMXkH9Ew4zyAh4gJFwAhonhkMCDld5ci+61XmPxLtM+VqSci44F5yP3kbTgu+RmEzcagxBnTpAlIn/NP5Hz0Juw/v5DJvzglpcRDTy6M1e6eLS9/zBeLHR3cA9CHunBn7OtJ6TwKwKbeh1wIhIiG58P1xElw/nUWTJNPYDCI4uGmhCsBf/U6VTyFQSCi+LpWnzQdzr/OgnHcWAYjgRlGjkDabbOQcvUVcL/0GtwvzYfa0MjADFuBGGA96ww4Lv0lk+oJ4uPPNmLDpt2x2ZlmeCZW53VQuq9yzPb6cbXHqAAMIddtTQlOALIHIBHFlHHMsUj941Wwnn0mV0Yjiqf35uhjoGRlQmtuYTAQGPpjyM1hIIgoLhjy85B6/dWwnfc9tp+SiJLuRMpVlyPlysvQ82UZ3K++ju5PPgf8fgYnFu+rgnzYfnAO7BdfCEMh5yBPFKqm4d5HP47V7pZUld+5JWbtz4MezZ+vYsZN+wBZFOoGgxcCAXsAElGsPmCPGoHUq6+E7dxzAEVhQIjijRAwT50cmJeIOCSaiOKCkpGOlN9dCvvPL4KwWhiQpC1oBZZTT4Ll1JOg1jfA8/rbcP/vbai79zA2kW7uWMywfutM2C/8IcwnzWBCPQG9+V45ttY2xGZnUjwUy3M7xIBfrQ4QIScABcTIoIfsAUhE0b2IjRuLlN9eAtsPzgEMBgaEKI6ZZ0xlArAXh/8S0XASKQ6kXPpLOH7zCwiHgwHREUNebqBX4FWXw1+9FZ6334fnrfc4RDisoCowTz4R1nO+Bdu534WSkc6YJKgerx8PPhGzuf/qUmXr6zG9d/7qpwHqIEPfoJRacA/AWgAa+i82QkQUVqtVwHLKTDh+80tYvnYqv1kjShDmGcUMQl8s2AOQiIaBkpkB+88vhOOSn0FxOhkQnTOOHY3UG65F6vVXw1u+Fp4PPkb3xwuhNTYzOEcMnhGWU2bCes63YP3WmVCcaYxJEnj5fytQt68tJvuSkA/HavGP/dX2q0chwusHrIhjD9yjC4+Usg7ACFYlIgqXSE2B7bvfhuOSn8E4djQDQpRgTBPGQzgckC6Xvm/As7NgHHUUKwQRxe6mb/QxcPzqYth+eC5XHaVDfDApMM+YBvOMaXDefjP81VvR/fkX8C5fiZ7Scs4ZGPT5bTn9ZFj/7xswn3YylLRUBiWJuN1ePPbsoljtrsevmB6P+WdB/yekQJ0IowcgJPrfldeACUAiCpXBAMvpp8B2/vdh/eYZnJ+GKMHfz+apJ6Jn6Qpdh8HM4b9EFJNrrgLL10+H41cXw3LKTI6YoMEnCcaORsrY0cDvLoXW3hFIBC5dDm/5Wvi31eomDkpaKkxTJ8NyykxYvnYqOyAkuSdeWIzm1q6Y7EsAL21feUd9zN/bX3lGoi7MbeafeOINjvXr5/V9vV8D4AxWJyIa/KetAvPUybB++5uwfe87UHKyGBOiJGGePpUJQA7/JaIoMh1/HGznfQ+2H5wDJZttKAqzWe5MCwxzPedbgXRBlwve9RvhLV8DX/laeMvXQPZ4k+Ncc7Jhnj4V5mlTYC6eCtPx47m4oE40t3bhmZeWxGx/qiYfGI7z/EoCUEDbFeaUfcJnxjEANvY+rmF1IqIjXjisFphnFMN61v/Betb/MelHlKQ4DyBgLp7KikBEkb2pG3U0rN8+E7YffBfGcWMYEIpemz3FsX9FYQCAqsK/rRb+mm3w1WyFb+Nm+Gu2BVYYljI+z8FkguHokTBNmgDjmNEwjjkW5hMm8f5Dx/778AK43D2x2t2SmvK5q4fls6L/E4ow7dSkGtZGNRhG40ACcCurExF9haLAOGY0LCdPh+Xrp8M8s5jDe4l0wDR5EoTFnDS9BYZ802G3wzRhHCsCEYXdjjIdfxysZ34D1rPPZNKPho/BAOPY0TCOHQ0rvnUgJ9DeAXXXbqi766Du3gP/njqou/ZA3VMHtaERsjN6Qy2FxQwlPR2GokIYRhbBMKIQhqJCGEf0/lxYwJ59tN+myjq8/s6q2LUFJe4brnP9SgKw227ZaXa5JYCQJ4mQykHzALIHIBFBOBwwjR8L8/SpME2bDHPxFK4+R6THa4HZDNOkifCWr9Hl+ZunTQYMBlYEIhoyQ34ezDOmwfK102D52ilQsjIZFIpbijMNivN4mCYdf+g/UFVoLW3Q2tqgtbXv/z80DdLTDekNfFEoOzoPtCGsVsBs2r99IPDFmpLuhJKRASUjHUpmOoTNxgKgQZFS4t//eQeqpsWqJbwnRba+PVzn+5UEYO2iku5xM2Y1AsgNI4r9E4BhJRSJKJE+7RUYCgtgPPZoGI89BsaxY2CeeiKMx47iN200vEwmpPzuUt2ddjw2gh2XXaLbhTDMM+Jv/j/HpT8HfDpc4ZELIlA8MxhgPOZomIunwlw8BebiKTCM5LqKlFx1XMnJ4rBbGlbvfrQWq9Zuj+UuHygvf8w3XOdrHOD5nQgjAShxoAegEKJLSlkPIJ/Viyg5KFmZUDIzoGRlwZCXA+Ooo2E85mgYjh0F4zGjICxmBoni717fZELqDdcyEHHAetYZsJ51BgMRJ1L/eBWDQDSc7aqM9MCXpseOgnHMMTBNPgGmicezPUVEFEVutxfzHvgwhjcj6FKgPD6c53y4BOD0kM9LoP/62DVgAjCxb9a+eza0hiYGIlkZDVAcjsD7Ny010BhNSQEMCoTNFujCn5sDJSsThqxMDl+LZdGMOgr2n/1El+dunnwCKwARESU8YbNCycmGITsr8OXp0SNhPGYUjKNHwXjsMVDSOSUKEVGsPfz0p6hvbI/dDiUe3FJ2Z/Ow3lse+riwU4R3YkefcUaJcdGikr7xJDUATmcVS1yp11zJIBANA9Ok4+EcaO4UIiKKS+aZxfyyLMkJizkwH5nRCGG3QSgKRGoKgH4jJXKzOR8ZEVGc2bm7Gc+8vDSWu+w2aMZ7h/u8D5kAFELsCnPJbtNed9dIAH2DqbkSMBERERHpgu3878N2/vcZCCIiojh0x93vwuuN4fzHUjy+ufyOvcN93oeckV9ocmfY5ye5EjAREREREREREcWHz5ZsxudLN8dyl16/xLx4OPdDJgBlYA7AsEhpCE4AsgcgERERERERERENiy5XN/4x563Y7lTi+W3ls3fGw/kfMgFoEjICB6cdG/SgmlWNiIiIiIiIiIiGw7wHPsTe+rZY7lJVFMOceDn/QyYAK8rm1gPoCWfDQogxQT+3AWhmdSMiIiIiIiIiolgqX1uLV99cGevdzt9SemdVvMRAGeB5GYFhwMf2e8x5AImIiIiIiIiIKGa8Xj/+ducb0DQZy91KRRN3xFMclMP8bluY2x7d7zETgEREREREREREFDMPPfkparbXx3SfEnh3S/nsDfEUh8MkAGW4CcDUiTNuzA96XMVqR0REREREREREsVBZsxePP7841rvVhBB/i7dYDJwAlGJ7uBvvAcYHPdzMqkdERERERERERNGmaRK33/km/H41xnuWL1WVzl4Xb/GIZg9ACKkcF/SQCUAiIiIiIiIiIoq6p178Ams27Ij1br2A4fZ4jMeACUApEXYPQKEc1AOwGoCfVZCIiIiIiIiIiKKleus+3Pfox7HfsRSPVpXdtS0eYzJgAlCDsjX8E5f7ewAKIXqA8JOKREREREREREREh9Lj9eP6v76MHm+M+6AJdPkMhn/Ha1wGTABuK5/dDqA1zO2P7/eYw4CJiIiIiIiIiCgq5tz3Pqpq9g3Hrv+zfeUd9fEaF+UIvw+32+KoEadcZwt6zAQgERERERERERFF3NIvq/Di/BXDsesmTXjujufYHDYBKEXYQ3YVh2YYG/R4C6sjERERERERERFFUkurCzf9/TVIKWO+byHx75qV93fEc3wO3wNQC38lYEgRPAyYPQCJiIiIiIiIiCii/vKv+Whq7oz9jgV2qG2eh+M9PkcYAqxEIgF4XNCjzQAkqyUREREREREREUXCy69/ic+WDE+fMyHxl5qa+3viPUaHTQAKIWvC38VBKwF3ANjLqklEREREREREROGq3laP2fe+N1y7X1JZNuelRIjTYROABr8adgJQQvRfCXgTqycREREREREREYXD5e7BH29+AZ5u33DsXoUQ1yBBRroeNgG4eU3qLgCeMPdxHAAR9JgLgRARERERERERUciklLjln/OxtbZheA5A4OGq0tnrEiVeR5gDsEQDEO48gI4xJ80qCnrMhUCIiIiIiIiIiChkT77wBRZ8umG4dt+swFCSSPFSjvgXEtVh70TTghcCYQ9AIiIiIiIiIiIKycryrbj7oY+G7wCEvHlL6Z3NiRSzIyYAhRJ+AhBS6b8SMBERERERERER0ZA0NXfiz399GaqqDdchlFeVOp5KtLgdMQEopaiOwF72LwQihNgLoJVVloiIiIiIiIiIBsvnU3H1Tc+jsalzuA5Bg8RVvVPmJZQjJgCVSCQApTy+3zNcCZiIiIiIiIiIiAbtrnvfw5r1O4bvACSerlo1pzQRY3fEBKBm6gk/AQgxqd8TG1htiYiIiIiIiIhoMF5/dxVeeG35cB5Co6YabknU+B0xAVi14p46AK4w95M7+tQbcoMeMwFIRERERERERERHVLZmO0pmvzm8ByHFtTVr7mxM1BgqgzlFSGwNd0dGvzG4F+B6Vl8iIiIiIiIiIjqcbbWNuOqGZ+H1+ofzMN6rWjX7lUSO42ASgJAKqsLdkSa14ATgBgCS1ZiIiIiIiIiIiA6lubULl//pKXR0eobzMFqFH1ckeiwHlQBUpNgS7o4EMHH/z0K0A9jFqkxERERERERERP31eP34ww3PYXddy7Aeh4S8vnLNnLpEj6cyyNPdEoF9cSEQIiIiIiIiIiI6LCkl/vLP+VizYcdwH8qn1WVzn02GmA4qAahqcnP4uxKTAIigJzgPIBERERERERERHeQ/D36EdxesHe7DcAHK75AkU9gNKgFo98nK8E9Ypk2Y+uejgp5gD0AiIiIiIiIiItrvtbdK8fhzi+LhUGZVld21LVniOqgE4Pr181wQ2BnuzvwmY/+FQIiIiIiIiIiIiPDhwvUouevNYT8OASyuKpvzcDLFVhnsH0qJLRHY2cSgh1sA9LB6ExERERERERHp27KV1ZhV8ipUTRvuQ2kTBuXXSJKhv32Uwf9p+CsBS00LXgnYD6CSVZyIiIiIiIiISL/WrN+BP8x6Dl6vf/gPRorfb/nyrtpki/HgE4Ai/JWAhRD9VwLmQiBERERERERERDq1vmIXLrv2SXg83ng4nMerVs1+JRnjPIQhwOGvBCyB43HBBYagpzgPIBERERERERGRDlVv3YfL//QUXO7hnyFOAtUmt/36ZI31oBOAqmLaEoH9WcdvP2ZM0GMmAImIiIiIiIiIdGbHrmZces0TaGt3x8Ph9ADywoqKkq5kjfegE4DbV95RD6A53B1qkFwJmIiIiIiIiIhIp/bWt+HXVz+OxqbOuDgeCcyqLpu7NpljrgwtIDL8hJ0Qkw/8KHYDaGLVJyIiIiIiIiJKfnV7W3HJ7x9D3d7WeDmkD6vL5tyf7HEfUgJQSGVD+DuUU/o9tYbVn4iIiIiIiIgouW3f0YifXf4wdu5ujpdDqvcpxksByGSP/ZASgBDhD9mVEFP6PcUEIBERERERERFREquq2YdfXPEI9jW0x8sh+STEhb1T3iW9ISUANUVGYs6+keOK/5wd9JgJQCIiIiIiIiKiJFWxZQ8uueoxNLXE0RobUlxXXTb7C72UwZASgJYu+0ZEolukYpgc9Gg13wpERERERERERMln9bpa/Oqqx9Da5oqfgxJ4vmrV7Af1VA5DSgD2Loe8PQL7nRL0cw2ATr4liIiIiIiIiIiSR+nqbfjtH59CZ1d3PB3WGrfBd4XeykIZ8itEJFYCRvBKwBqAdXxbEBERERERERElh0XLtuC31z4Jl7snng6rQYX/vN0r7vHorTyGnACMxErAkAf1AAQ4DJiIiIiIiIiIKCm8/k4Z/nDjc+jx+uPpsHwa5IVby+7epccyUUJ4TSQWApkw6owSa9BjLgRCRERERERERJTApJS4//FPcOu//ge/X42zg8P1NWVzF+u1bIxDfYFmkBtE+GVotHq6JwIo733MBCARERERERERUYLyev249Z/z8e6CtfF3cALPV5XNeUDP5TPkHoBFVns1gLBnb5RSmxL0sCIS2yQiIiIiIiIiothq73DjsmufjM/kH/CF1uK5XO9lNOQE4KJFJX4Am8PdsdRE8EIgfgAb+ZYhIiIiIiIiIkocu/a04Ke/fQilq7fF4dGJTRaLcn5Nzf09ei8nJaRXyUisBCyn9HuGw4CJiIiIiIiIiBLEuo07cdFvHsS22sZ4PLw6v4ZzNiy9q5UlFWICUEJEoLeemAxABD3BBCARERERERERUQJ4/+N1uOT3j6G5tSseD69d0cR3tpXP3smSCjCG8iKDItZrUoa5a5k2etrNo7euvqum94nVLA4iGiqXuweqqgWu8B0eAICqanC5Az28e3p86O7xDfj67h4/vF7fYffh86lwe7z7HyuKQGqK9bCvsVhMsJgHvsQqirJ/G0Ic2J5BEUjp/VlRBFIcVhYyERERERHFDb9fxZz7P8CzLy+N10P0CgU/3FI2ewNL64CQEoDSJzeE9sqDGQxqMYC+BOB6AD4AJhYLUeJyuXvg9frR5epBd7cXXp+K9g43vD4V3d1edLkCv3e5e+Dp9sHr9aOj0wOv1w9Ptw9drm54fX64XIEEXkfngaReV+9zXq//sEm9ZGRQFDgclsCF26jAYbf0XkcP/JyaYg0kFlOtUIRAWqptf3LRaAi83mg0wG4zw2w2wmY1wWw2wWoxwmbte84Mk8mAtFQrrFbzYZOYRERERESkL03NnfjjLS9i1drt8XqIUkr566qVcz9naR0spDu7yjVz6sbNmNUMICucnQshigG82vuzR0q5EcBUFgvRsF0p0dnVjfYODzq7utHZFfh/R6cHXV3d6OjsRkfXgZ+Df9/3WNMkAxkFqqbtT4YCQEurKyb77euFaLeZYbWa4LBbkOKwwmY1wWo1w5lmg8Vigs1qQmqKFXabpffvzEhxWA96jTPNhhSHFYoiWKBERERERAmmfG0t/njrC2hs6ozje1rcVL1q7sssra8KuWuHhNwgIM4IM9lQ3O+pMjABSBQxHo8XrW0uNLV0oaXNhdbef03NnWhtc6O1zYWWNheaW7rQ1u5Gl6ubQaODaJrsTfB6IrZNe29yMNVhRUqKFSkOC1JTbEhLtSLF0ffYCkfQz2mptv3POVNtMJkMLBwiIiIiohh57tVlmH3v+/D71fg9SCHuqS6bPZeldWghJwCFVDZAyDPCLJ1pCCwE0tdlqAzA71gsRAPzdPuwr74NjU2d2FvfhsbmTjS3dKGltQut7W60tHahuaULrW0ueLp9DBjFHbfbC7fbi4bGjpC3YbOZ4Uy1IS3NhvQ0O9JSbXCm2eBMsyMtzRb4XaoN6c5+v0u1sQciEREREdFg7z89Xvz1jtfx7oK18X6oD1WVzv4zS2xgoU/uJBCJyRTT+y0EUsYiIT1rau5EQ1Mn9jW0o76xPZDk29eGhqYO1De0o76xI6I9sYgSuSHi8Xixr6F9yK/t61HYlxzMSHcgI92OdKcD6U47Mpx2pDsDjzMzAs/1zbNIRERERKQXtTubcM3Nz6OqZl+8H+oTVWVzrsaBzmV0CKEnAKVchwh0ojAocjoOLARSAcANwM6ioWTj9fqxu64Vu+tasLuuBbv2tGBvfRvqGzuwr6EdjU0d8PlUBoooygLzW3Zjz97WQb/GbDb2JgXtvUlCRyBx6LQjI91x0O+ys1KRme6AzWZmsImIiIgoIb32VinuuOddeDzeOD9S8UxVme0KMPl3RCEnAL0p9vVmlzvsVXuFIqcBeAUAhBB+KeUaAKexaCgRdXR6sGtPC3btae79f8v+x3V726BqGoNElIC8Xj8aGjuGNGzZYjb2Dke2IzcnDTnZqfuHLedmpyEnO23/4/xcJ1JTrAw0EREREQ2r1jYXbvv361i4uCIBjlbML3TYLq9CCW+0BxOtcF48bsas1Qh30Q6Jz6tWzTlz/0Mp/wvgjywaikd+v4qdu1uwtbYeO3e3HNSbb8/eVni9fgaJiEJit5uRnZmKrIwUZGQEehjmZqUiMzMFOVmpyMkO/C4vxwm7nb0LiYiIiCiylqyoxM3/mI+m5s5EONzXqkZtvxjz53MY3SAZw3x9OcJNAAocaiEQomHl9fqxY3cztm6vR/W2etRsa8CuPc3Yur0B3T1cWIOIIs/t9mKnuxk7dzcf8W/7ehfmZqcF/gX1MMzNSUNOVuC5gjwnjEaumExEREREA+vx+nH/Y5/gyRcWQ9MSYSSteDNVa/0Fk39DjFo4Lx47c9aVQuLhcA/CoMhxm1fOrQYAKeU4AJUsGoqFhsYObNvRiG21Ddha24BttYGfQ1lYgIgo7j7khUBWhgOZmSnIzUpDdlYKsrNSkZudhszMFOTlpCGrt4dhWqqNASMiIiLSmc1Vdbjhr6+gZnt9gjRw5dsml+PCiooSL0tvaMLqAagAqyKRG1ZVpRhAde/DagCtADJYPBQpXa5uVFbvw+aqOmyuqkPV1n3YvqMRnV3dDA4RJS0pJZpautDU0nXE1dssZiOyslKRl52GzEwHcrPTkJ2Z2pswTD2QMMxIgdlsZHCJiIiIEpiqaXj6xSX47yMLEmcxSimfK3Q4LltUWsK5t0IQVgtebfFsUDJsXgBhTUYkhFaMAwuBSCllOYCzWDwUin0N7dhcVYct1XsDCb/KOuza0wIpuSgQEdFAerx+1O1tRd0gVkdOd9p7k4MpyMt1Ii+nb8hxOnKyUpGf50R2VioMisLAEhEREcWZzVV1+Osdr2PDpt0Jc8wS+G/1qrnXV3G135CFlQCsqbm/Z/yMWRslMC2sgpSiuN9TZWACkI5AVTVsq204kOirCvy/tc3F4BARRVFbuxtt7e7DDhUxKAqyslKQn+tETnYqCvMykJOdirzcNOTnpiMnOxUFuelc0ISIiIgoRjzdPjzw+Cd4+qUlUNXEWThXCtxWXTrn3yzB8IQ9hkcCqxBmAhAC04ESBQeWbuZCIHQQTZPYtqMB6zbsxNqNO7Gpsg7VW/ehh6vuEhHFJVXT0NDYgYbGjsP+ncNuQUFeOnJz0pCbnRroRZgdWMAkJzsN+blOZGWmQFEEg0pEREQUoqVfVqFk9pvYtacloVIBUuAP1aVzHmEJhi8Sk/iUR2AbqWNmeCbUlKGi9/FKFo2+9c3Zt3p9LcrX1mLNhh1oa3czMEREScbl7kHN9vojTjydlmrDyKLMg1Y9zs1OQ052GvJy0nDUiCykplgZUCIiIqIg7R1u/OfBj/DqmwmXZvEC8pLq0rmvshQjI+wEoKIo5ZoWftdRATkTCCQAhRB1UsodAI5mESU/VdNQs60ea9bvxLqNO7F24w5s39HEOfuIiGi/jk4PKrbsQQX2DPg3aak25OWkIS/HidycNOTnOZGX40R+nhNF+enIy3VytWMiIiLSBSkl3nivHLPvfR/tHQnXmcalCPHjLaVzFrAkIyfsBKChy7pBs7t7AFjC2Y4i5EkAng566kswAZiUWlpdWLsxkOxbs34HNmzeBbebK3gTEVF4Ojo96Oj0oHrbwL0J7XYzCvMykJ/nRH6uEwV56SjIT0d+biBRWJifAZvVxGASERFRwqqq2Yd//udtlJZvS8TDr5eadt6W8nkcGRphEZlQZ9yMWWUApoe5mTVVZXP2zyUopfwTgHtYRInP5e7Buo07sby0BstLq7Gpso69+4iIKG5ZzEbk5qRhZFEWRhZl7h9uHPg5DSMKMmCzcfESIiIiii9t7W48+MRCvPi/FQm1yEeQDYpBOXfLl3fVsjQjLyIJwPEzb3xESnFFmJvxW3u09PXr57kAQEp5EgK9ACnBuN1erN24Y3/Cb3NVHTSNCT8iIkoeaam2/fMRjizK7JcozEJhfjoMBoWBIiIioqjz+VS8/PoK3PfYJ+js6k7U0/hQUzw/rVl5fwdLNDoisQgIpFTKgbATPMYes5gCYFnv4zUAugFwRu845+n2Yc36WpSvq8XqdTtQunob/H6VgSEioqTVN9z4cIuX9F+4ZH+iMCvwuKggg6sbExERUVg+W7IZd9z9TqKt7nsQAdxXWWa/DpijsUSjJyIJQE2KVYoIv4eXVJST0JsAFEJ4pZRrAJzCYoov3T0+rFm/AytXbcXK1duwvmIXE35ERET9HGnhErPZiIK8wDyEhfkZKCxIR2HvnISF+RkoyE+HxWxkIImIiOgr1lfswh33vIs163ck8mn0QOCKytI5z7JEoy8irUqnbNnYKdLD760n5cx+z3wJJgDjwt76NixatgWLl27Bl6tq4On2MShERERh8Hr92LGrGTt2NQ/4N9lZqSjM700K5qWjsCADRb3JwcL8dKQ77QwkERGRjtTta8PdD32E9xasTfS59RuFlD+sLJu7jKUaGxEbdzJuxqyVAGaGuZntVWVzju17IKW8AMBrLKbYUzUN6zbsxKJlW7Bo6RZU1uxlUIiIiOKMzWZGUW/vwb4VjQvz0lFUmIHCvHTk5To5FyEREVESaGjswKPPfo5X31wJny/BR+BJrFeMynlc7CO2IpYAHDvjxocExO/D3Y5PMeZvX3lHPQBIKUcC2Mliio32DjdWlNVgeWkNPv1iE5qaOxkUIiKiBNc3F+HIoizkZqcGzUcYWOU4LdXGIBEREcWp1jYXnnzhCzz/6jJ09yTBSDyB563d2u/7FoCl2InkxDKlAMJOABqlbwaA9wBACLFLSrkbwAgWVXRU1ewL9PJbthlr1++EqnHOTSIiomSyfy7CLYeei9CZZkdBnhOF+ekoKsjcP7y4ID8dRfkZyM5KgRBcrISIiCiWmpo78fRLS/DS6yvgdnuT4ZRcEPKqqtK5z7F0h0fEEoCKFCtkBNqGiiZORm8CsNeXAH7CoooMVdVQunobPv58IxYt3Yy6fW0MChERkY61d7jR3uHGlupDT/dxyMVK8jNQ2JcozEuHmYuVEBERRcTuuhY88fxivPHuKvR4/clyWhWaol5Ys/I/m1jCwyeSX+eKcTNmNQDIDm8z8rOqsrnf3P9IyusA3M2iCp3Pp2J5aTUWfL4Rny6uQFu7m0EhIiKiiMnJTj1oDkIuVkJERDQ0VTX78Pjzi/D+x+ugqkk1Mu9Za4/2Bw75HX4RHc8xbsasdwF8P8wj6iq02zMWLSrxA4CUcgYCw4tpCHq8fnyxfAsWfBbo6dfZ1c2gEBER0bAIXqykr9dgYX4GigoCScK8nDQuVkJERLqjaRKLl2/Bsy8vxYqymqQ6NwG4NeDq6rI5T7Ok40Okx2ssR7gJQImU3V3dJwBY0/vMGgBdAFJYXIenqhqWrazG+x+vxcLFm9DlYtKPiIiIhp/H40XN9nrUbK8/5O8NioLcnLSDhhf3701ot5sZSCIiSgoudw/efK8cz726DDt2NSXhGYpNilQvqlw1byNLO35ENAGoSGWFJsLvqqoI7RT0JgCFEH4p5ZcAzmJxfZWmSaxeX4v3P16Hjz5dj5ZW9qolIiKixKJqGvbWt2FvfRvKUXvIv3Gm2fcnBkcUHBhenJ/HxUqIiCgxVNbsxStvrMS7H61J1lF6moC8u8dh/2vtohL2SIozEU0Amr3+sm6L4g93uxI4FcBDQU8tAxOAB6neVo+33i/H+x+vw976NgaEiIiIklrfYiWbq+oO3Q4NWqykIC8dRYUZKOybl7B3PkILFyshIqIY6+7x4cOF6/HqGyuxZsOOZD7VrdDEryvL5yxlqceniH9NOm7GrFUAisPczLaqsjmj+x5IKb8JYKHeC6u1zYV3F6zFW++Xo2LLHtZeIv3pBOAPuoB3yqDHUZKKg7/UMQNwsCiIKBFlZ6bsTwjm5zmDehJmoCAvHZkZvLwREVFkrNu4E29/uBrvfrQWHZ2eZD5VCeBha482iwt9xLfIJwCn33QfhLwm3O2YIAsqyubuAwAppQNAKwCT3grI51OxaNlmvPl+ORYvq4Tfr7LWEsWeF0AHgA4BtEkhfJDoBKQPEF0S0isAlwC6JeCBhEco6NYg3UKKHgG4IKRXakoXhOqTGjoNRqNfQO1QNcP+N7XmF502h9yf0MsyWjv7FkSKZyecfnNG8GOPT3MomrJ/si5N8VmNMNk0VTNAaGmB67pwKgoUCWGHhAVSmIQiUwK/Q+/2ZAogTAAsgLALQJGAE5ACQLoELAKwA0gDhBmQaayqRBQOq8UUmIcw78AQ4+DH+blOmEwGBoqIiA5pb30b3v5gNd7+cDW21TYm/fkKYKeEdllV2byFLP2EKK/IGjv9xp8JIV4K/8i0H1WVznuz76GUciWAmXopmK21DXjtrVK8/cFqtLYxiU4UxlWuC0AzJJog0SEFOgVkByA6AHQKgVbIwM+QsgMGdAooHZqGVs0vOtHZ1VFTc38PA5kYRpxynS3DYLH6/HBKv2YRBiVF1aRDQDULITIghVkGejCmItCb0SkhrELKFAiRJiScUsgUSKRAIBVAOr7aC5KIdEpRBLKzUgOrF+cFrWhckIGigsDPaak2BoqISEfaO9z4+PONeG/BWpSu3gZNk7o4bynEU1K4r6tZeX8Ha0FiiPgNjVHVlqvG8L8ZFVBOAfBm0FNLkeQJwO4eHz76dD1ee6sU5WtrWTuJvsoDoAlAs5CiQUI2A6IJ+/+PZqH0Pm/wNnktzmZOPqsvu1fc49kdqCetkdzuqDNKrObOzhQopjRNwimETBVSSxFCSZGQ6QBSIZEihEyREGkI9FB0CiHSITUnINIBOAEwM0CUwDRNoqGxAw2NHViDQ8/j5LBbUJifjqKCDOTnpSM/z7l/LsL8XCfyc50wcy5CIqKE1uXqxsLFFfjgk/VYtrJabyP1tkPKq6vL5nzAmpBYorJU2rgZs/YAKAzzyJZWlc75Wt9DKeUPAbyRjIVQVbMPr761Eu98uCbZ5wYgGkg9gL2Q2AOBOgjUQYo9Umh7DcKw1+uXjd2wNdWVl7gZKkpkY8ZcY5G5FqfJb0rXpHRKqaUrikyXUkmXUqYLJZAwlBDpAnBCIB0STgDpEMiARAqjSJT4srNSkZ/bt2CJc39yMNCbMB3ZWakwKAoDRUQURxoaO7Bo2RZ8vmQTlq2sRo/Xr7cQeIXE3E5pv4P3ZYkpKgnAsTNnzRcSPwlzMz1aq8fZN/ROSpkLYF+0jjnWfD4Vn35RgVffLMWKshpIKVkbKRl1A6gDsBcQdQJyLwTqJOReSFmnwbDX3qPWcrJYosEbccp1Nke3KUOYlQK/JgsVoWUIiQwpRO//kYHAPIoZgMgAZAaAHHAYM1FCSUu1YWRRJkYWZSE3OxW5OWkYWZSJnKw05OakoaggA4oiGCgioiiq3laPRUs347Mlm7Fm/Q7d3rcLYLGqqFfVrPzPJtaKhC7HyBs386brIeV/wt2O1LSTq8vnrdz/WMotAMYncsDrG9vx6pulePXNlWhq7mQNpETXA8jtgNgOyG2A2C6B7YDcpmrK9m3ls9sZIqL4+LyfeMp1Gd09lkyDomUKITM1iQwoyBZSyQZkNiByBGSuBmQJIBuBf0waEsUpi9l40LDiwoKMA70K8wM9C1McVgaKiGgIunt8WFFWg0VLN+PzJVtQ36j725k6SPHnqlWzX2HtSHxRadhrQi5XIpAYV4RyCoCVQU8tRYImAEtXb8OL81fgk0Uboaoaax4lCgmIOkBug5TbAbENitwOVdkGs3d71Yp76gJ/Q0Tx/l6uWHFPC4CWobxo4inXZfp9ppxAglDJBrQsKUQeJAJJQ0VkB35GLgSyOUSZKHZ6vH7U7mxC7c6mAf8mxWFFQd6B5GAgURhYrCQ3Ow35eemwWU0MJhHp2p69rVj6ZRUWLd2MFWU18HT7GBTAL4EHpOK5nYt8JI+o9AAcM+Yai5JhawMQ5teOYn5V2ewL99+9SPkrAM8kzDvGr+KDT9bj6Ze+wKbKOtY2iudLQQcgtwigAkJs0aBtUjRRrbZ5arkCLhEN1qgzSqxGjztbaDLbIJQ8KWU2ILM1iCxAZguIPADZgOjtdYhsAJzojGgYpaXakJeThrxcZ29S0IncnDTk5QQShrnZqcjOSmWgiChp7NnbitLV27By1VaUrt6GPXtbGZSDLYEQ11SVzl7HUIRn3CnXFcFvPB3AFEBMAsSxgMyAQCokugG0IzAf/iYJbBBQVlSVWcuBkqj0GovaxCHjZsxaCuC0MDezu6pszsi+B1LK0QBq4r2QOzo9ePXNlXjhteXY18ARkBRXmgFsArBZQG7SpNikCf+WrWV372JoiGhYGkbFf84GzNmAlg2DzIYUOVLIXEhkC4EsSGQLIE9C5AEyFwC7KxHFmMlkQE52GvJzncjLCcxBWJCXjpysVOTnOZGXE0gaWri6MRHFod11LShdvQ2l5duwcvU21DHhd2gSmwVwc+WqOe8wGKEZM+Yai5JuP1NCnisUnAWJMSHes38ihHzD0i0/iOR8+dFMAN4B4JZwt6PCf1RwckJKGf4Kw1Gya08LnntlKf73bhncbi9rPw2nfQAqILBZAhUGTdniV0VFzZo7GxkaIkpk44r/nK0pxjyDInM1KQoUTeZKIfMAJR+BxGEBgDwEFj5hspAohjIzHMjJSkNBcC/CPCdyslIDw45z0pDutDNQRBRVO3Y1o3zd9kAPvzXbmfA7sr2AuL3QYXt60aISP8MRYht1xo0XAeJBAFmR2qYA3JoQryiQD1eWzlkVge1Fx5iTbjxb0cSC8Lckf1pVNvfV/Y+kfA3ABfFU0FU1+/DYs5/jg0/WQ9U4vx/FlgB2SonVQmC1JsRqo2pYvbn8jr2MDBHp3Zipt+TAqOUenCxEPoB8COQwWUgUexazsTcpmIaC/HTkZqf29iwMJA1zc9KQnZXK3oRENCgNjR3YsGk3NmzaFfj/5t1o73AzMIPTKSHn2HrkPZHsZaY3x828JUuT6oMALjrCjXsNJD4HsEqB2CilbFZVQ4vJ7E/3+2WmMCjHQRPFEPJrAKYc4vUfaEK9MZyVmKOWACwsLrGnKO5WAOZwtiMh7q0um/2n/Y+lvBbAvfFQ0Jsq6/DoM59jwWcbdLscOMXcXgDlECjXpChXFUPp9pV31DMsREThGXHKdTa731IATRZqCjIUyAIIFPYmCQsBZAAoADASTBYSRZ3FbERuThpystPgTLX1/pyK3OzAc3k5acjJSkVWVgoMCqcSJdKDLlc3Kqv3oWLLbmzcsger19Vi154WBmbofACeNkHeXlE2dx/DEbpx02/8LoR4oreN2J8mgJUQeFtT8E71l3M2D3a7E6b++WjVYPgBBM4F8A0cyKv5AfzH5Lb/raKiZMjDTkVUgzFj1jIAp4a5mdKqsjkn9T2QUk4FsHo4C3nZymo8+sznWFm+lTWeokVKoEYAq6VEuRBYbbEoqzcsvYv914mIhtnoU2/IFT5DjgKZL4B8KWWuBPKFEHkI9Cgs6v1/LqNFFF0Gg4KszBTkZKUGEoKZKcjLcSIz04HcrEBvwuysVORmp8JmMzNgRAlxIySxZ28rarY3oGZbPTZV7sGGTbuxc3czgxMeVUC+qigo2bxybjXDEbqJE0vMfrt7rgSuPcSvGwXEo/DLhyvXzAl7NdhRU/6UbjaZL4PANZA4uvfpckC5sKrsrm1D2VZUE4Djp8/6lxT4S5ib8bmNPufuFfd4ei8GBgQmRXTGupCXrKjE/Y8vxLqNO1njKdI6AbESwHIBbYVPU1ZsK5/NFWSIiBK8cdiT4s4FMMKgijwpZBECi5kUAsgXQKEMfGOcC8DAiBFFl81mRl5OWm/C8EAPwrycNGRlpCAnO/BcZqaDvQqJYqSuN9FXtXUftm5vQPW2fdha28A59SPLJ4AXFEXeycRf+CYU31qgKv43AJzc71cSkA+Z3I6bKypKuiK93+Li35k6FOdNAuKvCPQIrBcC3x/K3IBR7gF4w1mA8km425EQ36gum/3F/sdSfgjgO7Eq4GUrq3H/Y59gzYYdrO0UKbWAXAqIFRBiWdXR2zZi/nyVYSEi0qELLjBM2DY21wdfgTAoBQpkvpS9yUIhiyBFHoARCCQK2YWJKMoURSAzIwVZGSnIzUlDVoYDGekOZGelIrP354x0B7IzU5CZngK7nW9LosPx+VTU7WvFzt3NqN5Wj5rtDajuTfi53D0MUPT0SMinDAbDnC1f3lXLcIRv/PRZ46XARwBG9ftVu6bIC2tWzv042scwZvrNUxWhvY3AtDSdQuDMwSYBo5oAjNQ8gIC4paps9l19j6SUNwO4M9qBXVm+Ffc++jHK1/K9QmHbKoVYLKAt9qvKom3ls9mNlIiIht7om3pLjsngy5OKoUiDzIdEoQDyNYFCEZivMB+BOQttjBZRbFgtJmSkO5CZ4UBWZgoyexOEWZkpyMxI2f+7vudTU6wMGiWdtnY3du5uxq49Ldi1p+//LdhV14L6+nYulhlDAnBrwGOKH3MjMQSVAsbNmPVNAK/iq6v87tIgzqkpm10Rq2MZP3VWoTTiAwCTATSoqnLa1tV31QyibkQ5SDNnLYHE6eFVYPluZdncc/seSylPAbA8Wse8Zv0O3P3QRyhdvY21nEK1DcBnAmKxqshFNSvn7GZIiIgoVo4tvslpMMlCRSIfmiiSkHkQokhKmasAI3ofj4BECqNFFFsGg4IMpx3pTgecThvSe39OT7Pt713oTLMFnnPakZ5mR7rTDpOJMwXQ8FA1Dc3NXahv7EBjUwf2NbRjz97Wg5J9nV3dDNTw6wTkg6pJ3rN1+bwGhiNyxs+48Y8SYh6A/kvU1wqhnVlZOm97rI9p4inXZfr8pgUApktgo0uzn1RXXnLYJbBF9AN10z8l5G1hbqapqmxOLgAJAFJKE4AWILKN1upt9bj7oY/w2RebWMNpqFoExOeaxCdSagtryudyhRgiIop7J554g6PbZBqpKf48A5SRGpAPyCIBFECgKGgVZPYoJBpmDrulN1lohzPNjtRUK9JSbHCm2ZCaYkVaqg2pqTY4U22B36XakJZiQ1qaDRazkQGkQ2pu7UJTcyf21bcH/t/QjoamTjQ0Bv5f39iOlhYXe/DFt20Q4kG/iic5j3zkjZ9x0+8l5ENf+YXADoNP/cbmNf8ZtrniehcI+QTAdEj5XNWqub863N9HvwdgoJvkwnC3IySOq1w1p7LvsZRyAYCzI3GMe+vbcP9jn+Ct91fzwkaD5RfAMinlxxCGT6pGbV3NOfyIiChZnXD6zRmeHlkopCwUiiyAFEWQogBCFiEw7HgkAisfczI0ojhkMRv3JwfTehOEKQ4rUlMC/+w2Mxx2CxwOC1JTAr9z2C2w2wPPp6Xa4HBYuDhKnGvvcKO1zY3Wdhfa2t1o73Cjrc2NtvbAc8G/a2t3o7XNBZ+PtzAJSgL4TEjcV7nK/h5QwkRGFIybftM5EPIdfLXn325A+cZAq/COm3HTzYD8yeAKUnYKKdogUAchVwrIJUPpUdjbE/AzAJMhxc+qVs1+ZaC/jXoCcMQp19nsflMrAEuYtfs31WVznt7/WMpbAfw73Avko898jhdeW44er5+1m46kAcCHAuKDHl/Px7Vr/9vGkBARER1wzEm35pnhzZOqGCGAfCkwQgL5gWHHoq83YR646jFRQrJaTPsTg31JQbPJiBSHFRaLEVaLCSkOC4xGA1JTrLCYjbD0vsZkNCA11Qqz2Qib1Qy7zQyj0QBnWqCDscNugcGgrwSjz6fC0+2Fz6/C7faio9MDt8cLj8cLt6cH7R2e3p8D/zo6PXC7e+Du9h709+0dgYSepklW0iQnALcEXtAg7ovlnHN61Nu7bjMCX3QGl0KHUNSvVa6ct36g146bMetBAFeFuGsJgWVSkw9VH1P72mA6GvXOCfglAIfw44SB5n4UsQjcuBmzFgP4epibeaKqbM7l+yMi5WkAloayIb9fxYvzV+CBJxaio9PDmk0Dv/GA1YB4H1K+X7XKvorfrBAREYXpggsM42uOyYMJhaoUBULIIiFFAWRvb0KBEb2N7TwGi0h/FEUgxRFYKKUvqQgAKQ4rFEXAYFD2/95qMcJsNu1/rc1qgnmA4c5mkxFWqymkY1JV7bCr1fpVDS5X4PddXd3QpISn2wuv1w+/X4PbE/hdR2c3ZO/v2POOhkRgh9TwoNnke7JixT0tDEj0DZTEExLnVa6a804orw1BlQJx6Zay2UdcA6N3deAvAXxaVTbne735jH7VKCaBu+nvgPxbmDV+U1XZ7Il9j6SUZgCtAOxD2crnSzdj9r3vY/uORtZoOuTnOyS+kAJvafC/ubXs7l0MCRERUexNnFhi7rZ35AmhjBCaKFQERkiIkQCKAIyEwAhIFAIwMVpERJSEvIB4XwOerhm17QNOORU7o2dcP9IA4zb0G/orgKcry+b85kivj2ACEABcBkVO3bxybvWR/nDszFl/ERL/klJcWb1q9qP9fx+T2WCFIhdJDWEmAOWEiadcl9mX7RZCeKWUKwB8czCv3lbbiLvufQ+Ll21hbab+ugGxVEB7zwi8WrFq7j6GhIiIaHhVVJR4Aezq/TegvvkJFagFgHIsBAoDi5eIYwEUQsijuNoxERElDrFJCPmc36g9vX813zJGJZaM0niFFF/Jl7mMRt8NIWzucUB77bAlDmHUhLhMSBxq3kCHXxPzAJx3pB0V2e2z61zu3woh54445brndq+456AhrzFJAPbY7CssLrdbDrG3Xv+Y+HzGkwF8EPTcYhwhAdje4cY9Dy/Aa2+VQlU5epP28wrIBZpQXjG7bO9UVJR0MSRERESJZ8PSu1oRGBUy4FxIx5x0a57B7yuCohQpEkdByCIIjJBSjgREkQBGgCsdExHR8GmBwEuaKp+uKZ+zmuEYTiWKFO5D9fJ7NpTh10KImsrSeYNZGHfB2OIbZsJgGC2kvAJB0+gJ4Nxji286alv57J2H28CiRSX+cdNvvA9C3G31m88C8G7w72OSAKxdVNLdOw/gOeFsR0Cciq8mAA9J0yTeeG8V5j3wIVrbXKzDBAAqgM+ElK+YrYY3e2/8LYsAABOoSURBVG8YiIiIKMltX3lHPYB6AAPeVI0r/nM2DMYiCW0kIEZAolAARwGBocZC4Ogwv8wmIiLqf3/6sYB4Rm11v11Tc38PQzL8xs10nQYpCvo93Q0o/4nyrmV1+byVAFYeV3zTBk2RpQCsfb80GrSzATxxpI34pfKUUcg7FcgfYDgSgAAgIBdIiLASgBI4td9TKwF40O8b202VdfjHnLewZsMO1l4ChFgJDc+rZnX+/i7UREREREGqyv/TBKAJwLqB/uaE02/O8Hf7i1SIo6CgEBAjhMRRGlAoAvMTjgBkGqNJREQDUAG5WAoxXzNqb/D+NP5IKX7Uf7EMAflAZdld22J1DFvKZ28YN/2mxyHkNQeOC9MG89pt5bPbx86YtUgAZ/b/nTF2URQfhb3kiBDFCCxcIgMPRY+UciWAMwCgs6sb9z7yMV763wqoGof76txuAM9DMzxXVX4nJ34kIiKisAUNN9440N+MP21WqupXRyqaoQBCFkGKIkhREFjdWBYAYiQg82LaDiciouGkAuJzKfE/qSpv1Ky5kyuSxjEh8e1+uSvph3pfzI9Dketk0Dq+CpTcQb8WeAfAg2NOmjWiZuWc3X3Px6zhUblqTuW4GbNqAYwKfSsybcJJN47pt/rJIgBnvLdgLe7873toau5kjdXrGxVwS8g3pBTPVa+yfwqUMAtMREREMVW5bE4ngE29/wZQokwo9uZJo1bo12ShELJISFEgIEdKIF8CIwVQACCLESUiSkh+AJ8D+B809Y3eXuYU50bPuH4kgAn9nl6/tezuXbE+FgnpQ1AmUoMc9IJmKvzvGmB8QNHkaQBe7Xs+pt88CiEXSCmuCGcbqoZpAPYnAD/6dH3lW++vxudLN7O26tc6AI+piueFmpX3dzAcREREFN9KtM3l2AtgL4Dygf5q1BklVrOruxCaLITACAEZSA4KmS8hRkKgABJF4AImRERxQHQAcqEQ+ECq6ttM+iUeozCcHNzrLlCs4rNhORipfL938CsAQIFsHuxLt5bdvWvcjFlrhRQnYLgSgBLiIwBXhPmmmhw4gRJl3Az3lX+69aW75FdKiJL+0gq4JcRrmiIfrVk550tGhIiIiJJN7aKSbgDbev8N6ITTb87w9MhCo8AIVWoFAEYIiAIJjBCBYcdFAPIAGBhVIqKI2iCl/FAxiI9S/K1Ly8sf8zEkCUwqJwYn3QLPIea9zY4tvukoQP7o4MPAzqFsQwBLNIETgp+LaQJQE57PFGnzATCFsZnCccW3HAeD+3FInM7kn96ITVJoj3i9vudr1/63jfEgIiIi3d99HpibsGLAP7rgAsP4mmPypKEvOShHCiBfCowQUhRIIQsA5Pb+E4wqEdEhdULiUwh8qML/4XAMDaXokZDH939OA/bF8hjGT51VCAV3y35f2ilCWTSkcxGyXEjx9eDnYpoArFl5f8e4GbNWAPh6GJv5NhT1IsgDyyFT0tMg8JEm5L01K+d8gq+k5ImIiIjosObPVyuBOgT+DeiMM0qMe9vduaoi84VBKYCUuYAsElLJlYosEEC+lMgTQCEABwNLREnOJ4BVEnKxEIZPjC7r0oqKEi/DkrSy+z+haGiNyZ4vuMAwrvbYGyXkn3oXCwtW529xLxrK5qQqK4UiDppLOParj0m5AEKEkwDMZ53UCYEuSLykKeq9NSv/s4kBISIiIoquRYtK/BhEohAIzFFoaXdnCrNS4NdkoQJZAIFCIZEhIQoAWYjAYiYjEd4IICKiWPEjMMf8Qg1imabhi23ls9sZFt1w9n9CM0p/OBuUwI/GzZg1+nB/IyCyZK0sBuSoAf7k7zU19/cMbb+iSQCpwc/FPAGoSXykCPyb9YoOYzeA//pV8QQvtkRERETxqXeOwr5kYfnh/nb0qTfkmr3I9UMJ9CIUIk8IFEopc4VEIYTIA2Q+gExGlohiJTC3vPwSwGINWOx3OFb2XttIhyRgj/gcGFKeBOCkw+9XDlw/BeZWlc55bMj71YwdUNTO4KdingCsKZ+7ZtyMWfUITERMFKxSSDnH6HG8wG7VRERERMlj6/J5DQAaAGw83N+NGXONRWaYchVNKVSEkicF8iFRAIFcSBRCIBeBXoW54BBkIhoaDRKVgCyTClZJIcosXfbVvPekPgLo6v+cosrMYTiQLgDPGKX8d0Xp3JDmIDSakKFJtB303DDEVELiPQhcxupFvdZCyHuqjq59EfPnqwwHERERkT71DnHa1fvvsPqGIKtGkaFALYAQgeHHQmRAogCBeQozAJEBYAQg0xhhIl3ZC6AcAuWaFOUWo3dZxYp7WhgWGpBE21eWwVK+Oi/g0DeLBYrA5wc9p2Fsv7zYLgh5mxBiV4/NviLcnqhS8+dAiIOSh8Zhiaki3hRSMgFIXwDaP6vK5i0EAJQyIEREREQ0OP2GIFcc6e/HnzYrVfHLfKkpOVLKbKnIXAmRBylyFGg5EiIHQA6ALAFkScDOKBMlBB+AKgAVEnKDAqySmraqqvw/TQwNDYlA/VefEpPC3qyUX1SWzZ198LMlyrgZ7hMAzOx9YiQ0xVu5avbnkTgVKcRESGwIfm54EoAt7oUiw97Bb+F0a7kGcVdN2ex3GQoiIiIiioXKZXM6AXQCqB7M34845Tqbo9uUoRpFhqIhQ1OQoQgtQ0AUQKJQCmRAIgP7exnKQgDpjDRRVAV69QEVEHKTIgwVXUrPpt0r7vEwNBQuKbBR9JuOT0pZHJ29lWiaduPvFUWUAjAAAIR8aNwp1y2pWnHPngjsoFgKuSL4iWFJANbU3N8zbsasDwFcxCqmHwJYoUncXr1qzieMBhERERHFs96EggeDWBG5z4kn3uDoMhmyFGjZRkNvT0OJDCGQoQGZAsgQkJm9w5QzEFj0JAOAlREnAhDozbcbwC4I7BAadkKILaoUFf4U62Yu0EHRJKVYL/otyCEgTh5xynW2aCSZa8rnrh4/Y9aDEri296kM4TM/BeA7wAArgwz2XID/01TD3ODnjMMY2jcBwQSgPqwSkH+tLJv7EUNBRERERMlq/fp5LgAuADuH8roRp1xnswOZBp8hwy8MmYpEhia0DCGUTCGRISEzIZEBEUgaSiBDAE4AaWDykBKHhsBiQPsksFNIsUNC7hJC7lSg7JJ+WVu5xr4PKNEYKhoORqEs16SqAVD6npOA3eo3nwUgOiMYzbgNXvFjQBYBgBTy7HHTZ/2hatWcB0Ld5JiT/ny80GDauvqumoPOb7gCK8ziA+lFDwALq1nS2i6l/Ev1qrmvIMzsNRERERFRsurtWbKn99/QbvTGXGORuRYnuo1pJhOcmubPkFI4FcAJiDQJOKEIJzSZJhU4hRTpgExHIHno7P3HJCKFSgXQAohGSFkvBeoANCpC7JXQ9gmJBiiyzqiJhopRtY1c9JHi2ZbSO5vHzZi1GsD04OcVyHMRpQRg5bI5neNn3nidlOK1vueEwOzx02d9UrlqTmUo2zRIww8k8EH/54ctAVi5bE7nuOmzFkLge6xmSacZUv7b5HE8yCXViYiIiIiip6bm/h7UoAGBnlUhmTixxKw6elI1KZ1C8aeoUOyKpqUIqaRLRdolhF0BnJAiRUpph0AKAolDByDtgHACSEFg4ZS+3yksnYTiAUSLhGwVQAskWqQiWoSUrZBy/89SihaDQWmR0t/iUw0t28pntw96D2UMMsU/CXwo+iUAAXwfKFGi1Tu1snTu/HEzZn2EwNBfSMAOIZ8/44ySUxctKvEP+RwkzgXwt/7PG4czsELBm1IyAZhEuqWU9/n8vjtr1/63jeEgIiIiIop/vV/aN/f+i4hRZ5RYU/3dNr/Ll6YaTQZNU9MNBqFIqaUrwmCQ0NI0KCYhZYoErIqATUphB6QFkCmAMAFIA4Sht8eigt5FViRgEQdWaTYhkHRE798m+0KTLgBeAD0A3AD8CCxuA0C09v5NJwA/pOaBEN2A9EEo7ZCyRQItQqBVStFilGqLpiotLquvlYtoEPWRbwDir/2ezB9X7Dm1qhxLo7VXTZNXK4rYAMDW+36eUed23wagZCjbmVB8a4EK/7GFDvviqn6/G9YEoOozvKMYVf9wHwdFgJBvQxqur1511zYGg4iIiIhI33oXa+gG0Dpcx3DC6Tdn9P3s88Opqb29EoVMVYQ4cA+qSYsG1T6o1IAQVmX/DfoR7nel0q1A9Xz11kl4hMHwlcUsNL9wQZH7R1ApBmgmI9oBYMNSazvnxiOKvuqyuWvHzZhVAWDiQb9Q5B+A6CUAa8rnbh0748Y7BMQ/D1xw8Jdx02d9ULVqTulgt6Mp6lUQ4qlD9Rwc1sRbzZo7G8fPuPFDCfEDVrPEJIFqIeWfqsrmfsBoEBERERFRvNiw9K7g5GMrI0JEg6Ep+K2iYQkOzpn9ZPzMG26tLJ23PVr7la3dc0WG7RcAxvc+ZYTAc4XFJdPqykvcR3r9+NNmpUqv/K0q/TMP9fthn5dBCvk0q1dCckHg77LVc0LVKib/iIiIiIiIiCjx1ayc86WQmN3vaaOU4gkAImr7rbm/R4O8Agcvojo+RXHNGczrpRfzBOQLW8vu3nWo3w97AjBV7XgPYUxYS8NBzBd+jKsqnVNSU3N/D+NBRERERERERMnC6LH/A8Cag58VZ46deePV0dxvTdncxYB8sd9+rzpu5k3fPtzrxs686XsAzjG6HX8f6G+GPQFYXv6YDxIvsHolhL1Syp9Ulc2+sHLNnDqGg4iIiIiIiIiSTUVFiVdT1F8gMJfpfkKKe8ZPn3VuNPftU0w34OBpC4Qm5VPHzbwl61B/P2H6DZOElE8KKX9WUVHSNdB2DfEQ2Iyi0/cI4CpWsbglATyuKZ7zasruWctwEBEREREREVEya9mzojGr6LRWAN8LelqBgh/kFJ6+uKlu2SGH2maNOLUQUHoAsQkQm6BonzfvWb5lsPtt27PElVV0ai2gyP3bgNgFSK25btn64L+dcNKNY1UYFgoh/1hZNvejw21XxEtgx82ctQQSp7OKxRmJzQLy8spVc5cxGERERERERESkJ+Nn3PiihLj44GdFh9TUs6vL560cruMaN+PmYyG196Bof6kqnffmkf5eiZeASg3/YLWKKxqA/3hT7NOY/CMiIiIiIiIiPerUHJcLYMXBz8o0oRg+Pm7GTacOxzFNOOnGsYD2jCLFRYNJ/gFx1AMQAMbNmHWXAK6RgJ1VbFjVSohfVZfN/oKhICIiIiIiIiI9O27mLVma1L4A5PEH/UKgC5q4sGrV7A9jdiwn3Vysado/DZrxss3ld+wd7OsM8RTQ5rplCzOLTv1AQMkDkALAyWoWYxJPCgvOr/pyTjWDQURERERERER617RnqSf/6JmvaJrhdABHBf3KDIGLsotO7WiuW14a7eMYP33WT6TULhEW8ZstK+9qHsprRTwHeFzxn7OhiClCGKZJKacCcgogxiGOhi4nkQYN4rc1ZbPfZSiIiIiIiIiIiA426owSq6nLfY8QuPKrv5Wfqarhiq2r76qJ9H6POenWPJPmnw0h1leVzr4HgcVah0QkWrAnTiwx99g9YxWhFQspiiVQDGAaABurYmgEsBh+XFy5Zk4do0FERERERERENLDx02edKwUeBDCi369UKfCmQVMe3HLM1iWYP18NZz+9w32vBORkCOXyqtLZ60LdlkiGwJ9xRolxt8szXhFaMaQ4HsBEAKcAyGK1PCwpgPtTtLYbyssf8zEcRERERERERERHVlhcYncorusFlBsBmXaIP2kC8L6U8l2zx7GgoqKk60jbHDPmGosx036GJuW5AH4AoBDAPK3Vc3tNzf094RyvSObCGD91VqFqFMWKkMWQKEagt2ABqykAoFER4pdbSmcvYCiIiIiIiIiIiIZu4sSSFK/N83Mh5OUI5J0OpQfAKgGUS6ACAg2Q6NQg7AIyG1IeJ4QohsBJkEjpfc1aIeXVlavmLovEcQq9Fcz4qbMKNZOYCqlNVaBMkZBTARyrqyBIfG4S8uKKsrn7+FYlIiIiIiIiIgrf+Jk3HCOl8iNAfAeQpwOwDuHlbQJyCYBPJQzvVpXdtS2SxyZYPMCYk65JU/z2E4WiFUvsH0I8HYAlCU/3sVSt7WoO+SUiIiIiIiIiio4Rp1xns6vG6UIqkyTkJCmQK6RIB2QGgBYAzQB2CGADFG1D5cqUjUCJFq3jYQJwAMXFvzO1Kxnj+i02MgWAI0FPqUdIeVXlqrlPsXSJiIiIiIiIiPSDCcChuOACw7ja0UdrkBOD5hWcCSA3zot5j9TUH1eXz1vJQiQiIiIiIiIi0hcmACPguJNvHqVp/qlSKlMFMBUQUwFZFCeHt9wE+WPO90dEREREREREpE9MAEbJqCl/SjcbLJOEohVLIYohRTEgjwOgxLB433QbvT/fveIeD0uEiIiIiIiIiEifmACMoYkTS1LUlO7xmlQnBs0rWIyhrQoz2IK9r7LMfl00J5AkIiIiIiIiIqL4xwTgMDvjjBLjbpdn/IHFRsTxgJwGIDPETapSyOuqS+fez+gSERERERERERETgHGpRDluZs8YTfqnAmKqkGKqFHIqgJwjFKZbCvy8qnTOW4whEREREREREREBTAAmlDEnzRoBTUw1QE6RgYVGpgBIl0ATgM2Kov21cuW89YwUERERERERERERERERERERERERERERERERERERERERERERERERERERERERERERERERERERERERERERUYT8P3QNHYy/loWHAAAAJXRFWHRkYXRlOmNyZWF0ZQAyMDE4LTA3LTE3VDE4OjI5OjUyKzAwOjAwT1F+7wAAACV0RVh0ZGF0ZTptb2RpZnkAMjAxOC0wNy0xN1QxODoyOTo1MiswMDowMD4MxlMAAAAASUVORK5CYII=" parent="WIyWlLk6GJQsqaUBKTNV-1" vertex="1">
          <mxGeometry x="184.92" y="218.75" width="80.15" height="37.5" as="geometry" />
        </mxCell>
        <mxCell id="spAQAHMtD3b3j4mXvkF8-127" style="edgeStyle=orthogonalEdgeStyle;rounded=0;orthogonalLoop=1;jettySize=auto;html=1;exitX=0.5;exitY=1;exitDx=0;exitDy=0;fontSize=10;" parent="WIyWlLk6GJQsqaUBKTNV-1" source="spAQAHMtD3b3j4mXvkF8-10" target="spAQAHMtD3b3j4mXvkF8-111" edge="1">
          <mxGeometry relative="1" as="geometry" />
        </mxCell>
        <mxCell id="spAQAHMtD3b3j4mXvkF8-10" value="" style="rounded=1;whiteSpace=wrap;html=1;" parent="WIyWlLk6GJQsqaUBKTNV-1" vertex="1">
          <mxGeometry x="127.5" y="330" width="185" height="115" as="geometry" />
        </mxCell>
        <mxCell id="spAQAHMtD3b3j4mXvkF8-11" value="Leer variables&lt;br&gt;con las credenciales&lt;br&gt;DNS de la BD&lt;br&gt;&lt;br&gt;Agencias= N Registros&lt;br&gt;Pos_Env = v_Position&lt;br&gt;Num_Agencias" style="text;html=1;align=center;verticalAlign=middle;resizable=0;points=[];autosize=1;" parent="WIyWlLk6GJQsqaUBKTNV-1" vertex="1">
          <mxGeometry x="147.5" y="337.5" width="140" height="100" as="geometry" />
        </mxCell>
        <mxCell id="spAQAHMtD3b3j4mXvkF8-138" value="" style="edgeStyle=orthogonalEdgeStyle;rounded=0;orthogonalLoop=1;jettySize=auto;html=1;fontSize=10;entryX=0.5;entryY=0;entryDx=0;entryDy=0;" parent="WIyWlLk6GJQsqaUBKTNV-1" source="spAQAHMtD3b3j4mXvkF8-12" target="spAQAHMtD3b3j4mXvkF8-14" edge="1">
          <mxGeometry relative="1" as="geometry" />
        </mxCell>
        <mxCell id="spAQAHMtD3b3j4mXvkF8-12" value="" style="html=1;dashed=0;whitespace=wrap;" parent="WIyWlLk6GJQsqaUBKTNV-1" vertex="1">
          <mxGeometry x="112.5" y="570" width="215" height="70" as="geometry" />
        </mxCell>
        <mxCell id="spAQAHMtD3b3j4mXvkF8-13" value="Leer el registro de &lt;b&gt;BD Conexiones&lt;br&gt;&lt;/b&gt;respecto&amp;nbsp;a %v_Position%&amp;nbsp;" style="text;html=1;align=center;verticalAlign=middle;resizable=0;points=[];autosize=1;" parent="WIyWlLk6GJQsqaUBKTNV-1" vertex="1">
          <mxGeometry x="120" y="590" width="200" height="30" as="geometry" />
        </mxCell>
        <mxCell id="spAQAHMtD3b3j4mXvkF8-137" style="edgeStyle=orthogonalEdgeStyle;rounded=0;orthogonalLoop=1;jettySize=auto;html=1;exitX=0.5;exitY=1;exitDx=0;exitDy=0;entryX=0.5;entryY=0;entryDx=0;entryDy=0;fontSize=10;" parent="WIyWlLk6GJQsqaUBKTNV-1" source="spAQAHMtD3b3j4mXvkF8-14" target="spAQAHMtD3b3j4mXvkF8-47" edge="1">
          <mxGeometry relative="1" as="geometry" />
        </mxCell>
        <mxCell id="spAQAHMtD3b3j4mXvkF8-14" value="" style="rounded=1;whiteSpace=wrap;html=1;absoluteArcSize=1;arcSize=14;strokeWidth=2;" parent="WIyWlLk6GJQsqaUBKTNV-1" vertex="1">
          <mxGeometry x="120" y="670" width="200" height="70" as="geometry" />
        </mxCell>
        <mxCell id="spAQAHMtD3b3j4mXvkF8-15" value="Conectar a la BD de&lt;br&gt;Plataforma Comercial" style="text;html=1;align=center;verticalAlign=middle;resizable=0;points=[];autosize=1;" parent="WIyWlLk6GJQsqaUBKTNV-1" vertex="1">
          <mxGeometry x="150" y="690" width="130" height="30" as="geometry" />
        </mxCell>
        <mxCell id="spAQAHMtD3b3j4mXvkF8-16" value="TMP_OnHand_%agencia%" style="swimlane;fontStyle=0;childLayout=stackLayout;horizontal=1;startSize=26;fillColor=#e0e0e0;horizontalStack=0;resizeParent=1;resizeParentMax=0;resizeLast=0;collapsible=1;marginBottom=0;swimlaneFillColor=#ffffff;align=center;fontSize=14;" parent="WIyWlLk6GJQsqaUBKTNV-1" vertex="1">
          <mxGeometry x="460" y="760" width="200" height="366" as="geometry" />
        </mxCell>
        <mxCell id="spAQAHMtD3b3j4mXvkF8-17" value="itemID" style="shape=partialRectangle;top=0;left=0;right=0;bottom=1;align=left;verticalAlign=middle;fillColor=none;spacingLeft=34;spacingRight=4;overflow=hidden;rotatable=0;points=[[0,0.5],[1,0.5]];portConstraint=eastwest;dropTarget=0;fontStyle=5;fontSize=12;" parent="spAQAHMtD3b3j4mXvkF8-16" vertex="1">
          <mxGeometry y="26" width="200" height="30" as="geometry" />
        </mxCell>
        <mxCell id="spAQAHMtD3b3j4mXvkF8-18" value="PK" style="shape=partialRectangle;top=0;left=0;bottom=0;fillColor=none;align=left;verticalAlign=middle;spacingLeft=4;spacingRight=4;overflow=hidden;rotatable=0;points=[];portConstraint=eastwest;part=1;fontSize=12;" parent="spAQAHMtD3b3j4mXvkF8-17" vertex="1" connectable="0">
          <mxGeometry width="30" height="30" as="geometry" />
        </mxCell>
        <mxCell id="spAQAHMtD3b3j4mXvkF8-19" value="codigo_agencia" style="shape=partialRectangle;top=0;left=0;right=0;bottom=0;align=left;verticalAlign=top;fillColor=none;spacingLeft=34;spacingRight=4;overflow=hidden;rotatable=0;points=[[0,0.5],[1,0.5]];portConstraint=eastwest;dropTarget=0;fontSize=12;" parent="spAQAHMtD3b3j4mXvkF8-16" vertex="1">
          <mxGeometry y="56" width="200" height="26" as="geometry" />
        </mxCell>
        <mxCell id="spAQAHMtD3b3j4mXvkF8-20" value="FK" style="shape=partialRectangle;top=0;left=0;bottom=0;fillColor=none;align=left;verticalAlign=top;spacingLeft=4;spacingRight=4;overflow=hidden;rotatable=0;points=[];portConstraint=eastwest;part=1;fontSize=12;" parent="spAQAHMtD3b3j4mXvkF8-19" vertex="1" connectable="0">
          <mxGeometry width="30" height="26" as="geometry" />
        </mxCell>
        <mxCell id="spAQAHMtD3b3j4mXvkF8-21" value="fecha_ultimo_cierre" style="shape=partialRectangle;top=0;left=0;right=0;bottom=0;align=left;verticalAlign=top;fillColor=none;spacingLeft=34;spacingRight=4;overflow=hidden;rotatable=0;points=[[0,0.5],[1,0.5]];portConstraint=eastwest;dropTarget=0;fontSize=12;" parent="spAQAHMtD3b3j4mXvkF8-16" vertex="1">
          <mxGeometry y="82" width="200" height="26" as="geometry" />
        </mxCell>
        <mxCell id="spAQAHMtD3b3j4mXvkF8-22" value="" style="shape=partialRectangle;top=0;left=0;bottom=0;fillColor=none;align=left;verticalAlign=top;spacingLeft=4;spacingRight=4;overflow=hidden;rotatable=0;points=[];portConstraint=eastwest;part=1;fontSize=12;" parent="spAQAHMtD3b3j4mXvkF8-21" vertex="1" connectable="0">
          <mxGeometry width="30" height="26" as="geometry" />
        </mxCell>
        <mxCell id="spAQAHMtD3b3j4mXvkF8-23" value="disponible" style="shape=partialRectangle;top=0;left=0;right=0;bottom=0;align=left;verticalAlign=top;fillColor=none;spacingLeft=34;spacingRight=4;overflow=hidden;rotatable=0;points=[[0,0.5],[1,0.5]];portConstraint=eastwest;dropTarget=0;fontSize=12;" parent="spAQAHMtD3b3j4mXvkF8-16" vertex="1">
          <mxGeometry y="108" width="200" height="26" as="geometry" />
        </mxCell>
        <mxCell id="spAQAHMtD3b3j4mXvkF8-24" value="" style="shape=partialRectangle;top=0;left=0;bottom=0;fillColor=none;align=left;verticalAlign=top;spacingLeft=4;spacingRight=4;overflow=hidden;rotatable=0;points=[];portConstraint=eastwest;part=1;fontSize=12;" parent="spAQAHMtD3b3j4mXvkF8-23" vertex="1" connectable="0">
          <mxGeometry width="30" height="26" as="geometry" />
        </mxCell>
        <mxCell id="spAQAHMtD3b3j4mXvkF8-29" value="existenciaInicial" style="shape=partialRectangle;top=0;left=0;right=0;bottom=0;align=left;verticalAlign=top;fillColor=none;spacingLeft=34;spacingRight=4;overflow=hidden;rotatable=0;points=[[0,0.5],[1,0.5]];portConstraint=eastwest;dropTarget=0;fontSize=12;" parent="spAQAHMtD3b3j4mXvkF8-16" vertex="1">
          <mxGeometry y="134" width="200" height="26" as="geometry" />
        </mxCell>
        <mxCell id="spAQAHMtD3b3j4mXvkF8-30" value="" style="shape=partialRectangle;top=0;left=0;bottom=0;fillColor=none;align=left;verticalAlign=top;spacingLeft=4;spacingRight=4;overflow=hidden;rotatable=0;points=[];portConstraint=eastwest;part=1;fontSize=12;" parent="spAQAHMtD3b3j4mXvkF8-29" vertex="1" connectable="0">
          <mxGeometry width="30" height="26" as="geometry" />
        </mxCell>
        <mxCell id="spAQAHMtD3b3j4mXvkF8-31" value="total" style="shape=partialRectangle;top=0;left=0;right=0;bottom=0;align=left;verticalAlign=top;fillColor=none;spacingLeft=34;spacingRight=4;overflow=hidden;rotatable=0;points=[[0,0.5],[1,0.5]];portConstraint=eastwest;dropTarget=0;fontSize=12;" parent="spAQAHMtD3b3j4mXvkF8-16" vertex="1">
          <mxGeometry y="160" width="200" height="26" as="geometry" />
        </mxCell>
        <mxCell id="spAQAHMtD3b3j4mXvkF8-32" value="" style="shape=partialRectangle;top=0;left=0;bottom=0;fillColor=none;align=left;verticalAlign=top;spacingLeft=4;spacingRight=4;overflow=hidden;rotatable=0;points=[];portConstraint=eastwest;part=1;fontSize=12;" parent="spAQAHMtD3b3j4mXvkF8-31" vertex="1" connectable="0">
          <mxGeometry width="30" height="26" as="geometry" />
        </mxCell>
        <mxCell id="spAQAHMtD3b3j4mXvkF8-35" value="totalEntrada" style="shape=partialRectangle;top=0;left=0;right=0;bottom=0;align=left;verticalAlign=top;fillColor=none;spacingLeft=34;spacingRight=4;overflow=hidden;rotatable=0;points=[[0,0.5],[1,0.5]];portConstraint=eastwest;dropTarget=0;fontSize=12;" parent="spAQAHMtD3b3j4mXvkF8-16" vertex="1">
          <mxGeometry y="186" width="200" height="26" as="geometry" />
        </mxCell>
        <mxCell id="spAQAHMtD3b3j4mXvkF8-36" value="" style="shape=partialRectangle;top=0;left=0;bottom=0;fillColor=none;align=left;verticalAlign=top;spacingLeft=4;spacingRight=4;overflow=hidden;rotatable=0;points=[];portConstraint=eastwest;part=1;fontSize=12;" parent="spAQAHMtD3b3j4mXvkF8-35" vertex="1" connectable="0">
          <mxGeometry width="30" height="26" as="geometry" />
        </mxCell>
        <mxCell id="spAQAHMtD3b3j4mXvkF8-37" value="precio" style="shape=partialRectangle;top=0;left=0;right=0;bottom=0;align=left;verticalAlign=top;fillColor=none;spacingLeft=34;spacingRight=4;overflow=hidden;rotatable=0;points=[[0,0.5],[1,0.5]];portConstraint=eastwest;dropTarget=0;fontSize=12;" parent="spAQAHMtD3b3j4mXvkF8-16" vertex="1">
          <mxGeometry y="212" width="200" height="26" as="geometry" />
        </mxCell>
        <mxCell id="spAQAHMtD3b3j4mXvkF8-38" value="" style="shape=partialRectangle;top=0;left=0;bottom=0;fillColor=none;align=left;verticalAlign=top;spacingLeft=4;spacingRight=4;overflow=hidden;rotatable=0;points=[];portConstraint=eastwest;part=1;fontSize=12;" parent="spAQAHMtD3b3j4mXvkF8-37" vertex="1" connectable="0">
          <mxGeometry width="30" height="26" as="geometry" />
        </mxCell>
        <mxCell id="spAQAHMtD3b3j4mXvkF8-39" value="multiplo" style="shape=partialRectangle;top=0;left=0;right=0;bottom=0;align=left;verticalAlign=top;fillColor=none;spacingLeft=34;spacingRight=4;overflow=hidden;rotatable=0;points=[[0,0.5],[1,0.5]];portConstraint=eastwest;dropTarget=0;fontSize=12;" parent="spAQAHMtD3b3j4mXvkF8-16" vertex="1">
          <mxGeometry y="238" width="200" height="32" as="geometry" />
        </mxCell>
        <mxCell id="spAQAHMtD3b3j4mXvkF8-40" value="" style="shape=partialRectangle;top=0;left=0;bottom=0;fillColor=none;align=left;verticalAlign=top;spacingLeft=4;spacingRight=4;overflow=hidden;rotatable=0;points=[];portConstraint=eastwest;part=1;fontSize=12;" parent="spAQAHMtD3b3j4mXvkF8-39" vertex="1" connectable="0">
          <mxGeometry width="30" height="32" as="geometry" />
        </mxCell>
        <mxCell id="spAQAHMtD3b3j4mXvkF8-41" value="venta" style="shape=partialRectangle;top=0;left=0;right=0;bottom=0;align=left;verticalAlign=top;fillColor=none;spacingLeft=34;spacingRight=4;overflow=hidden;rotatable=0;points=[[0,0.5],[1,0.5]];portConstraint=eastwest;dropTarget=0;fontSize=12;" parent="spAQAHMtD3b3j4mXvkF8-16" vertex="1">
          <mxGeometry y="270" width="200" height="32" as="geometry" />
        </mxCell>
        <mxCell id="spAQAHMtD3b3j4mXvkF8-42" value="" style="shape=partialRectangle;top=0;left=0;bottom=0;fillColor=none;align=left;verticalAlign=top;spacingLeft=4;spacingRight=4;overflow=hidden;rotatable=0;points=[];portConstraint=eastwest;part=1;fontSize=12;" parent="spAQAHMtD3b3j4mXvkF8-41" vertex="1" connectable="0">
          <mxGeometry width="30" height="32" as="geometry" />
        </mxCell>
        <mxCell id="spAQAHMtD3b3j4mXvkF8-43" value="fecha" style="shape=partialRectangle;top=0;left=0;right=0;bottom=0;align=left;verticalAlign=top;fillColor=none;spacingLeft=34;spacingRight=4;overflow=hidden;rotatable=0;points=[[0,0.5],[1,0.5]];portConstraint=eastwest;dropTarget=0;fontSize=12;" parent="spAQAHMtD3b3j4mXvkF8-16" vertex="1">
          <mxGeometry y="302" width="200" height="32" as="geometry" />
        </mxCell>
        <mxCell id="spAQAHMtD3b3j4mXvkF8-44" value="FK" style="shape=partialRectangle;top=0;left=0;bottom=0;fillColor=none;align=left;verticalAlign=top;spacingLeft=4;spacingRight=4;overflow=hidden;rotatable=0;points=[];portConstraint=eastwest;part=1;fontSize=12;" parent="spAQAHMtD3b3j4mXvkF8-43" vertex="1" connectable="0">
          <mxGeometry width="30" height="32" as="geometry" />
        </mxCell>
        <mxCell id="spAQAHMtD3b3j4mXvkF8-45" value="piezas" style="shape=partialRectangle;top=0;left=0;right=0;bottom=0;align=left;verticalAlign=top;fillColor=none;spacingLeft=34;spacingRight=4;overflow=hidden;rotatable=0;points=[[0,0.5],[1,0.5]];portConstraint=eastwest;dropTarget=0;fontSize=12;" parent="spAQAHMtD3b3j4mXvkF8-16" vertex="1">
          <mxGeometry y="334" width="200" height="32" as="geometry" />
        </mxCell>
        <mxCell id="spAQAHMtD3b3j4mXvkF8-46" value="" style="shape=partialRectangle;top=0;left=0;bottom=0;fillColor=none;align=left;verticalAlign=top;spacingLeft=4;spacingRight=4;overflow=hidden;rotatable=0;points=[];portConstraint=eastwest;part=1;fontSize=12;" parent="spAQAHMtD3b3j4mXvkF8-45" vertex="1" connectable="0">
          <mxGeometry width="30" height="32" as="geometry" />
        </mxCell>
        <mxCell id="spAQAHMtD3b3j4mXvkF8-47" value="OD_Producto_%v_Agencia%" style="swimlane;fontStyle=0;childLayout=stackLayout;horizontal=1;startSize=26;fillColor=#e0e0e0;horizontalStack=0;resizeParent=1;resizeParentMax=0;resizeLast=0;collapsible=1;marginBottom=0;swimlaneFillColor=#ffffff;align=center;fontSize=14;" parent="WIyWlLk6GJQsqaUBKTNV-1" vertex="1">
          <mxGeometry x="120" y="760" width="200" height="108" as="geometry" />
        </mxCell>
        <mxCell id="spAQAHMtD3b3j4mXvkF8-48" value="codigo_producto" style="shape=partialRectangle;top=0;left=0;right=0;bottom=1;align=left;verticalAlign=middle;fillColor=none;spacingLeft=34;spacingRight=4;overflow=hidden;rotatable=0;points=[[0,0.5],[1,0.5]];portConstraint=eastwest;dropTarget=0;fontStyle=5;fontSize=12;" parent="spAQAHMtD3b3j4mXvkF8-47" vertex="1">
          <mxGeometry y="26" width="200" height="30" as="geometry" />
        </mxCell>
        <mxCell id="spAQAHMtD3b3j4mXvkF8-49" value="PK" style="shape=partialRectangle;top=0;left=0;bottom=0;fillColor=none;align=left;verticalAlign=middle;spacingLeft=4;spacingRight=4;overflow=hidden;rotatable=0;points=[];portConstraint=eastwest;part=1;fontSize=12;" parent="spAQAHMtD3b3j4mXvkF8-48" vertex="1" connectable="0">
          <mxGeometry width="30" height="30" as="geometry" />
        </mxCell>
        <mxCell id="spAQAHMtD3b3j4mXvkF8-50" value="descr_producto" style="shape=partialRectangle;top=0;left=0;right=0;bottom=0;align=left;verticalAlign=top;fillColor=none;spacingLeft=34;spacingRight=4;overflow=hidden;rotatable=0;points=[[0,0.5],[1,0.5]];portConstraint=eastwest;dropTarget=0;fontSize=12;" parent="spAQAHMtD3b3j4mXvkF8-47" vertex="1">
          <mxGeometry y="56" width="200" height="26" as="geometry" />
        </mxCell>
        <mxCell id="spAQAHMtD3b3j4mXvkF8-51" value="FK" style="shape=partialRectangle;top=0;left=0;bottom=0;fillColor=none;align=left;verticalAlign=top;spacingLeft=4;spacingRight=4;overflow=hidden;rotatable=0;points=[];portConstraint=eastwest;part=1;fontSize=12;" parent="spAQAHMtD3b3j4mXvkF8-50" vertex="1" connectable="0">
          <mxGeometry width="30" height="26" as="geometry" />
        </mxCell>
        <mxCell id="spAQAHMtD3b3j4mXvkF8-52" value="fecha_ultimo_cierre" style="shape=partialRectangle;top=0;left=0;right=0;bottom=0;align=left;verticalAlign=top;fillColor=none;spacingLeft=34;spacingRight=4;overflow=hidden;rotatable=0;points=[[0,0.5],[1,0.5]];portConstraint=eastwest;dropTarget=0;fontSize=12;" parent="spAQAHMtD3b3j4mXvkF8-47" vertex="1">
          <mxGeometry y="82" width="200" height="26" as="geometry" />
        </mxCell>
        <mxCell id="spAQAHMtD3b3j4mXvkF8-53" value="" style="shape=partialRectangle;top=0;left=0;bottom=0;fillColor=none;align=left;verticalAlign=top;spacingLeft=4;spacingRight=4;overflow=hidden;rotatable=0;points=[];portConstraint=eastwest;part=1;fontSize=12;" parent="spAQAHMtD3b3j4mXvkF8-52" vertex="1" connectable="0">
          <mxGeometry width="30" height="26" as="geometry" />
        </mxCell>
        <mxCell id="spAQAHMtD3b3j4mXvkF8-72" value="Join by&lt;br style=&quot;font-size: 10px;&quot;&gt;codigo_producto and itemID&amp;nbsp;" style="text;html=1;align=center;fontSize=10;" parent="WIyWlLk6GJQsqaUBKTNV-1" vertex="1">
          <mxGeometry x="320" y="760" width="140" height="60" as="geometry" />
        </mxCell>
        <mxCell id="spAQAHMtD3b3j4mXvkF8-73" value="Tmp_OnHandWProductName" style="swimlane;fontStyle=0;childLayout=stackLayout;horizontal=1;startSize=26;fillColor=#e0e0e0;horizontalStack=0;resizeParent=1;resizeParentMax=0;resizeLast=0;collapsible=1;marginBottom=0;swimlaneFillColor=#ffffff;align=center;fontSize=14;" parent="WIyWlLk6GJQsqaUBKTNV-1" vertex="1">
          <mxGeometry x="120" y="910" width="200" height="392" as="geometry" />
        </mxCell>
        <mxCell id="spAQAHMtD3b3j4mXvkF8-74" value="codigo_producto" style="shape=partialRectangle;top=0;left=0;right=0;bottom=1;align=left;verticalAlign=middle;fillColor=none;spacingLeft=34;spacingRight=4;overflow=hidden;rotatable=0;points=[[0,0.5],[1,0.5]];portConstraint=eastwest;dropTarget=0;fontStyle=5;fontSize=12;" parent="spAQAHMtD3b3j4mXvkF8-73" vertex="1">
          <mxGeometry y="26" width="200" height="30" as="geometry" />
        </mxCell>
        <mxCell id="spAQAHMtD3b3j4mXvkF8-75" value="PK" style="shape=partialRectangle;top=0;left=0;bottom=0;fillColor=none;align=left;verticalAlign=middle;spacingLeft=4;spacingRight=4;overflow=hidden;rotatable=0;points=[];portConstraint=eastwest;part=1;fontSize=12;" parent="spAQAHMtD3b3j4mXvkF8-74" vertex="1" connectable="0">
          <mxGeometry width="30" height="30" as="geometry" />
        </mxCell>
        <mxCell id="spAQAHMtD3b3j4mXvkF8-76" value="descr_producto" style="shape=partialRectangle;top=0;left=0;right=0;bottom=0;align=left;verticalAlign=top;fillColor=none;spacingLeft=34;spacingRight=4;overflow=hidden;rotatable=0;points=[[0,0.5],[1,0.5]];portConstraint=eastwest;dropTarget=0;fontSize=12;" parent="spAQAHMtD3b3j4mXvkF8-73" vertex="1">
          <mxGeometry y="56" width="200" height="26" as="geometry" />
        </mxCell>
        <mxCell id="spAQAHMtD3b3j4mXvkF8-77" value="FK" style="shape=partialRectangle;top=0;left=0;bottom=0;fillColor=none;align=left;verticalAlign=top;spacingLeft=4;spacingRight=4;overflow=hidden;rotatable=0;points=[];portConstraint=eastwest;part=1;fontSize=12;" parent="spAQAHMtD3b3j4mXvkF8-76" vertex="1" connectable="0">
          <mxGeometry width="30" height="26" as="geometry" />
        </mxCell>
        <mxCell id="spAQAHMtD3b3j4mXvkF8-80" value="codigo_agencia" style="shape=partialRectangle;top=0;left=0;right=0;bottom=0;align=left;verticalAlign=top;fillColor=none;spacingLeft=34;spacingRight=4;overflow=hidden;rotatable=0;points=[[0,0.5],[1,0.5]];portConstraint=eastwest;dropTarget=0;fontSize=12;" parent="spAQAHMtD3b3j4mXvkF8-73" vertex="1">
          <mxGeometry y="82" width="200" height="26" as="geometry" />
        </mxCell>
        <mxCell id="spAQAHMtD3b3j4mXvkF8-81" value="FK" style="shape=partialRectangle;top=0;left=0;bottom=0;fillColor=none;align=left;verticalAlign=top;spacingLeft=4;spacingRight=4;overflow=hidden;rotatable=0;points=[];portConstraint=eastwest;part=1;fontSize=12;" parent="spAQAHMtD3b3j4mXvkF8-80" vertex="1" connectable="0">
          <mxGeometry width="30" height="26" as="geometry" />
        </mxCell>
        <mxCell id="spAQAHMtD3b3j4mXvkF8-82" value="fecha_ultimo_cierre" style="shape=partialRectangle;top=0;left=0;right=0;bottom=0;align=left;verticalAlign=top;fillColor=none;spacingLeft=34;spacingRight=4;overflow=hidden;rotatable=0;points=[[0,0.5],[1,0.5]];portConstraint=eastwest;dropTarget=0;fontSize=12;" parent="spAQAHMtD3b3j4mXvkF8-73" vertex="1">
          <mxGeometry y="108" width="200" height="26" as="geometry" />
        </mxCell>
        <mxCell id="spAQAHMtD3b3j4mXvkF8-83" value="" style="shape=partialRectangle;top=0;left=0;bottom=0;fillColor=none;align=left;verticalAlign=top;spacingLeft=4;spacingRight=4;overflow=hidden;rotatable=0;points=[];portConstraint=eastwest;part=1;fontSize=12;" parent="spAQAHMtD3b3j4mXvkF8-82" vertex="1" connectable="0">
          <mxGeometry width="30" height="26" as="geometry" />
        </mxCell>
        <mxCell id="spAQAHMtD3b3j4mXvkF8-84" value="disponible" style="shape=partialRectangle;top=0;left=0;right=0;bottom=0;align=left;verticalAlign=top;fillColor=none;spacingLeft=34;spacingRight=4;overflow=hidden;rotatable=0;points=[[0,0.5],[1,0.5]];portConstraint=eastwest;dropTarget=0;fontSize=12;" parent="spAQAHMtD3b3j4mXvkF8-73" vertex="1">
          <mxGeometry y="134" width="200" height="26" as="geometry" />
        </mxCell>
        <mxCell id="spAQAHMtD3b3j4mXvkF8-85" value="" style="shape=partialRectangle;top=0;left=0;bottom=0;fillColor=none;align=left;verticalAlign=top;spacingLeft=4;spacingRight=4;overflow=hidden;rotatable=0;points=[];portConstraint=eastwest;part=1;fontSize=12;" parent="spAQAHMtD3b3j4mXvkF8-84" vertex="1" connectable="0">
          <mxGeometry width="30" height="26" as="geometry" />
        </mxCell>
        <mxCell id="spAQAHMtD3b3j4mXvkF8-100" value="piezas" style="shape=partialRectangle;top=0;left=0;right=0;bottom=0;align=left;verticalAlign=top;fillColor=none;spacingLeft=34;spacingRight=4;overflow=hidden;rotatable=0;points=[[0,0.5],[1,0.5]];portConstraint=eastwest;dropTarget=0;fontSize=12;" parent="spAQAHMtD3b3j4mXvkF8-73" vertex="1">
          <mxGeometry y="160" width="200" height="32" as="geometry" />
        </mxCell>
        <mxCell id="spAQAHMtD3b3j4mXvkF8-101" value="" style="shape=partialRectangle;top=0;left=0;bottom=0;fillColor=none;align=left;verticalAlign=top;spacingLeft=4;spacingRight=4;overflow=hidden;rotatable=0;points=[];portConstraint=eastwest;part=1;fontSize=12;" parent="spAQAHMtD3b3j4mXvkF8-100" vertex="1" connectable="0">
          <mxGeometry width="30" height="32" as="geometry" />
        </mxCell>
        <mxCell id="spAQAHMtD3b3j4mXvkF8-98" value="fecha" style="shape=partialRectangle;top=0;left=0;right=0;bottom=0;align=left;verticalAlign=top;fillColor=none;spacingLeft=34;spacingRight=4;overflow=hidden;rotatable=0;points=[[0,0.5],[1,0.5]];portConstraint=eastwest;dropTarget=0;fontSize=12;" parent="spAQAHMtD3b3j4mXvkF8-73" vertex="1">
          <mxGeometry y="192" width="200" height="32" as="geometry" />
        </mxCell>
        <mxCell id="spAQAHMtD3b3j4mXvkF8-99" value="FK" style="shape=partialRectangle;top=0;left=0;bottom=0;fillColor=none;align=left;verticalAlign=top;spacingLeft=4;spacingRight=4;overflow=hidden;rotatable=0;points=[];portConstraint=eastwest;part=1;fontSize=12;" parent="spAQAHMtD3b3j4mXvkF8-98" vertex="1" connectable="0">
          <mxGeometry width="30" height="32" as="geometry" />
        </mxCell>
        <mxCell id="spAQAHMtD3b3j4mXvkF8-96" value="venta" style="shape=partialRectangle;top=0;left=0;right=0;bottom=0;align=left;verticalAlign=top;fillColor=none;spacingLeft=34;spacingRight=4;overflow=hidden;rotatable=0;points=[[0,0.5],[1,0.5]];portConstraint=eastwest;dropTarget=0;fontSize=12;" parent="spAQAHMtD3b3j4mXvkF8-73" vertex="1">
          <mxGeometry y="224" width="200" height="32" as="geometry" />
        </mxCell>
        <mxCell id="spAQAHMtD3b3j4mXvkF8-97" value="" style="shape=partialRectangle;top=0;left=0;bottom=0;fillColor=none;align=left;verticalAlign=top;spacingLeft=4;spacingRight=4;overflow=hidden;rotatable=0;points=[];portConstraint=eastwest;part=1;fontSize=12;" parent="spAQAHMtD3b3j4mXvkF8-96" vertex="1" connectable="0">
          <mxGeometry width="30" height="32" as="geometry" />
        </mxCell>
        <mxCell id="spAQAHMtD3b3j4mXvkF8-94" value="multiplo" style="shape=partialRectangle;top=0;left=0;right=0;bottom=0;align=left;verticalAlign=top;fillColor=none;spacingLeft=34;spacingRight=4;overflow=hidden;rotatable=0;points=[[0,0.5],[1,0.5]];portConstraint=eastwest;dropTarget=0;fontSize=12;" parent="spAQAHMtD3b3j4mXvkF8-73" vertex="1">
          <mxGeometry y="256" width="200" height="32" as="geometry" />
        </mxCell>
        <mxCell id="spAQAHMtD3b3j4mXvkF8-95" value="" style="shape=partialRectangle;top=0;left=0;bottom=0;fillColor=none;align=left;verticalAlign=top;spacingLeft=4;spacingRight=4;overflow=hidden;rotatable=0;points=[];portConstraint=eastwest;part=1;fontSize=12;" parent="spAQAHMtD3b3j4mXvkF8-94" vertex="1" connectable="0">
          <mxGeometry width="30" height="32" as="geometry" />
        </mxCell>
        <mxCell id="spAQAHMtD3b3j4mXvkF8-92" value="precio" style="shape=partialRectangle;top=0;left=0;right=0;bottom=0;align=left;verticalAlign=top;fillColor=none;spacingLeft=34;spacingRight=4;overflow=hidden;rotatable=0;points=[[0,0.5],[1,0.5]];portConstraint=eastwest;dropTarget=0;fontSize=12;" parent="spAQAHMtD3b3j4mXvkF8-73" vertex="1">
          <mxGeometry y="288" width="200" height="26" as="geometry" />
        </mxCell>
        <mxCell id="spAQAHMtD3b3j4mXvkF8-93" value="" style="shape=partialRectangle;top=0;left=0;bottom=0;fillColor=none;align=left;verticalAlign=top;spacingLeft=4;spacingRight=4;overflow=hidden;rotatable=0;points=[];portConstraint=eastwest;part=1;fontSize=12;" parent="spAQAHMtD3b3j4mXvkF8-92" vertex="1" connectable="0">
          <mxGeometry width="30" height="26" as="geometry" />
        </mxCell>
        <mxCell id="spAQAHMtD3b3j4mXvkF8-90" value="totalEntrada" style="shape=partialRectangle;top=0;left=0;right=0;bottom=0;align=left;verticalAlign=top;fillColor=none;spacingLeft=34;spacingRight=4;overflow=hidden;rotatable=0;points=[[0,0.5],[1,0.5]];portConstraint=eastwest;dropTarget=0;fontSize=12;" parent="spAQAHMtD3b3j4mXvkF8-73" vertex="1">
          <mxGeometry y="314" width="200" height="26" as="geometry" />
        </mxCell>
        <mxCell id="spAQAHMtD3b3j4mXvkF8-91" value="" style="shape=partialRectangle;top=0;left=0;bottom=0;fillColor=none;align=left;verticalAlign=top;spacingLeft=4;spacingRight=4;overflow=hidden;rotatable=0;points=[];portConstraint=eastwest;part=1;fontSize=12;" parent="spAQAHMtD3b3j4mXvkF8-90" vertex="1" connectable="0">
          <mxGeometry width="30" height="26" as="geometry" />
        </mxCell>
        <mxCell id="spAQAHMtD3b3j4mXvkF8-88" value="total" style="shape=partialRectangle;top=0;left=0;right=0;bottom=0;align=left;verticalAlign=top;fillColor=none;spacingLeft=34;spacingRight=4;overflow=hidden;rotatable=0;points=[[0,0.5],[1,0.5]];portConstraint=eastwest;dropTarget=0;fontSize=12;" parent="spAQAHMtD3b3j4mXvkF8-73" vertex="1">
          <mxGeometry y="340" width="200" height="26" as="geometry" />
        </mxCell>
        <mxCell id="spAQAHMtD3b3j4mXvkF8-89" value="" style="shape=partialRectangle;top=0;left=0;bottom=0;fillColor=none;align=left;verticalAlign=top;spacingLeft=4;spacingRight=4;overflow=hidden;rotatable=0;points=[];portConstraint=eastwest;part=1;fontSize=12;" parent="spAQAHMtD3b3j4mXvkF8-88" vertex="1" connectable="0">
          <mxGeometry width="30" height="26" as="geometry" />
        </mxCell>
        <mxCell id="spAQAHMtD3b3j4mXvkF8-86" value="existenciaInicial" style="shape=partialRectangle;top=0;left=0;right=0;bottom=0;align=left;verticalAlign=top;fillColor=none;spacingLeft=34;spacingRight=4;overflow=hidden;rotatable=0;points=[[0,0.5],[1,0.5]];portConstraint=eastwest;dropTarget=0;fontSize=12;" parent="spAQAHMtD3b3j4mXvkF8-73" vertex="1">
          <mxGeometry y="366" width="200" height="26" as="geometry" />
        </mxCell>
        <mxCell id="spAQAHMtD3b3j4mXvkF8-87" value="" style="shape=partialRectangle;top=0;left=0;bottom=0;fillColor=none;align=left;verticalAlign=top;spacingLeft=4;spacingRight=4;overflow=hidden;rotatable=0;points=[];portConstraint=eastwest;part=1;fontSize=12;" parent="spAQAHMtD3b3j4mXvkF8-86" vertex="1" connectable="0">
          <mxGeometry width="30" height="26" as="geometry" />
        </mxCell>
        <mxCell id="spAQAHMtD3b3j4mXvkF8-102" style="edgeStyle=orthogonalEdgeStyle;rounded=0;orthogonalLoop=1;jettySize=auto;html=1;exitX=0;exitY=0.5;exitDx=0;exitDy=0;entryX=1;entryY=0.5;entryDx=0;entryDy=0;" parent="WIyWlLk6GJQsqaUBKTNV-1" source="spAQAHMtD3b3j4mXvkF8-17" target="spAQAHMtD3b3j4mXvkF8-74" edge="1">
          <mxGeometry relative="1" as="geometry">
            <Array as="points">
              <mxPoint x="390" y="801" />
              <mxPoint x="390" y="951" />
            </Array>
          </mxGeometry>
        </mxCell>
        <mxCell id="spAQAHMtD3b3j4mXvkF8-103" style="edgeStyle=orthogonalEdgeStyle;rounded=0;orthogonalLoop=1;jettySize=auto;html=1;exitX=1;exitY=0.5;exitDx=0;exitDy=0;" parent="WIyWlLk6GJQsqaUBKTNV-1" source="spAQAHMtD3b3j4mXvkF8-48" target="spAQAHMtD3b3j4mXvkF8-74" edge="1">
          <mxGeometry relative="1" as="geometry">
            <Array as="points">
              <mxPoint x="390" y="801" />
              <mxPoint x="390" y="951" />
            </Array>
          </mxGeometry>
        </mxCell>
        <mxCell id="spAQAHMtD3b3j4mXvkF8-105" value="Tmp_On_Hand" style="swimlane;fontStyle=0;childLayout=stackLayout;horizontal=1;startSize=22;fillColor=none;horizontalStack=0;resizeParent=1;resizeParentMax=0;resizeLast=0;collapsible=1;marginBottom=0;swimlaneFillColor=#ffffff;align=center;fontSize=14;" parent="WIyWlLk6GJQsqaUBKTNV-1" vertex="1">
          <mxGeometry x="113.75" y="1460" width="212.5" height="80" as="geometry" />
        </mxCell>
        <mxCell id="spAQAHMtD3b3j4mXvkF8-106" value="Tabla con los registros de inventario&#xa;a dia de hoy." style="text;strokeColor=none;fillColor=none;spacingLeft=4;spacingRight=4;overflow=hidden;rotatable=0;points=[[0,0.5],[1,0.5]];portConstraint=eastwest;fontSize=12;" parent="spAQAHMtD3b3j4mXvkF8-105" vertex="1">
          <mxGeometry y="22" width="212.5" height="58" as="geometry" />
        </mxCell>
        <mxCell id="spAQAHMtD3b3j4mXvkF8-139" style="edgeStyle=orthogonalEdgeStyle;rounded=0;orthogonalLoop=1;jettySize=auto;html=1;exitX=0.5;exitY=1;exitDx=0;exitDy=0;fontSize=10;" parent="WIyWlLk6GJQsqaUBKTNV-1" source="spAQAHMtD3b3j4mXvkF8-111" target="spAQAHMtD3b3j4mXvkF8-12" edge="1">
          <mxGeometry relative="1" as="geometry" />
        </mxCell>
        <mxCell id="spAQAHMtD3b3j4mXvkF8-111" value="v_Position = v_Position + 1" style="html=1;dashed=0;whitespace=wrap;fontSize=10;align=center;" parent="WIyWlLk6GJQsqaUBKTNV-1" vertex="1">
          <mxGeometry x="135" y="500" width="170" height="50" as="geometry" />
        </mxCell>
        <mxCell id="spAQAHMtD3b3j4mXvkF8-116" style="edgeStyle=orthogonalEdgeStyle;rounded=0;orthogonalLoop=1;jettySize=auto;html=1;exitX=1;exitY=0.5;exitDx=0;exitDy=0;entryX=0.5;entryY=0;entryDx=0;entryDy=0;fontSize=10;" parent="WIyWlLk6GJQsqaUBKTNV-1" source="spAQAHMtD3b3j4mXvkF8-113" target="spAQAHMtD3b3j4mXvkF8-114" edge="1">
          <mxGeometry relative="1" as="geometry">
            <Array as="points">
              <mxPoint x="476" y="1370" />
            </Array>
          </mxGeometry>
        </mxCell>
        <mxCell id="spAQAHMtD3b3j4mXvkF8-119" style="edgeStyle=orthogonalEdgeStyle;rounded=0;orthogonalLoop=1;jettySize=auto;html=1;exitX=0.5;exitY=1;exitDx=0;exitDy=0;fontSize=10;entryX=0.5;entryY=0;entryDx=0;entryDy=0;" parent="WIyWlLk6GJQsqaUBKTNV-1" source="spAQAHMtD3b3j4mXvkF8-113" target="spAQAHMtD3b3j4mXvkF8-105" edge="1">
          <mxGeometry relative="1" as="geometry">
            <mxPoint x="217.5" y="1440" as="targetPoint" />
          </mxGeometry>
        </mxCell>
        <mxCell id="spAQAHMtD3b3j4mXvkF8-113" value="v_Position_Env" style="rhombus;whiteSpace=wrap;html=1;fontSize=10;align=center;" parent="WIyWlLk6GJQsqaUBKTNV-1" vertex="1">
          <mxGeometry x="180" y="1330" width="80" height="80" as="geometry" />
        </mxCell>
        <mxCell id="spAQAHMtD3b3j4mXvkF8-114" value="Tmp_On_Hand" style="swimlane;fontStyle=0;childLayout=stackLayout;horizontal=1;startSize=22;fillColor=none;horizontalStack=0;resizeParent=1;resizeParentMax=0;resizeLast=0;collapsible=1;marginBottom=0;swimlaneFillColor=#ffffff;align=center;fontSize=14;" parent="WIyWlLk6GJQsqaUBKTNV-1" vertex="1">
          <mxGeometry x="370" y="1460" width="212.5" height="80" as="geometry" />
        </mxCell>
        <mxCell id="spAQAHMtD3b3j4mXvkF8-115" value="Tabla con los registros de inventario&#xa;a dia de hoy." style="text;strokeColor=none;fillColor=none;spacingLeft=4;spacingRight=4;overflow=hidden;rotatable=0;points=[[0,0.5],[1,0.5]];portConstraint=eastwest;fontSize=12;" parent="spAQAHMtD3b3j4mXvkF8-114" vertex="1">
          <mxGeometry y="22" width="212.5" height="58" as="geometry" />
        </mxCell>
        <mxCell id="spAQAHMtD3b3j4mXvkF8-117" value="= 0" style="text;html=1;align=center;verticalAlign=middle;resizable=0;points=[];autosize=1;fontSize=10;" parent="WIyWlLk6GJQsqaUBKTNV-1" vertex="1">
          <mxGeometry x="257.5" y="1350" width="30" height="20" as="geometry" />
        </mxCell>
        <mxCell id="spAQAHMtD3b3j4mXvkF8-118" value="&amp;gt; 0" style="text;html=1;align=center;verticalAlign=middle;resizable=0;points=[];autosize=1;fontSize=10;" parent="WIyWlLk6GJQsqaUBKTNV-1" vertex="1">
          <mxGeometry x="220" y="1420" width="30" height="20" as="geometry" />
        </mxCell>
        <mxCell id="spAQAHMtD3b3j4mXvkF8-122" value="&lt;b&gt;BD Conexiones&lt;/b&gt;" style="text;html=1;align=center;verticalAlign=middle;resizable=0;points=[];autosize=1;fontSize=10;" parent="WIyWlLk6GJQsqaUBKTNV-1" vertex="1">
          <mxGeometry x="180" y="252.5" width="90" height="20" as="geometry" />
        </mxCell>
        <mxCell id="spAQAHMtD3b3j4mXvkF8-123" value="&lt;b&gt;Append&lt;/b&gt;" style="text;html=1;align=center;verticalAlign=middle;resizable=0;points=[];autosize=1;fontSize=10;" parent="WIyWlLk6GJQsqaUBKTNV-1" vertex="1">
          <mxGeometry x="160" y="1420" width="50" height="20" as="geometry" />
        </mxCell>
        <mxCell id="spAQAHMtD3b3j4mXvkF8-124" value="&lt;b&gt;Extract&lt;/b&gt;" style="text;html=1;align=center;verticalAlign=middle;resizable=0;points=[];autosize=1;fontSize=10;" parent="WIyWlLk6GJQsqaUBKTNV-1" vertex="1">
          <mxGeometry x="305" y="1380" width="50" height="20" as="geometry" />
        </mxCell>
        <mxCell id="spAQAHMtD3b3j4mXvkF8-126" style="edgeStyle=orthogonalEdgeStyle;rounded=0;orthogonalLoop=1;jettySize=auto;html=1;exitX=0;exitY=0.5;exitDx=0;exitDy=0;fontSize=10;" parent="WIyWlLk6GJQsqaUBKTNV-1" source="spAQAHMtD3b3j4mXvkF8-125" edge="1">
          <mxGeometry relative="1" as="geometry">
            <mxPoint x="220" y="460" as="targetPoint" />
            <Array as="points">
              <mxPoint x="60" y="1640" />
              <mxPoint x="60" y="460" />
            </Array>
          </mxGeometry>
        </mxCell>
        <mxCell id="spAQAHMtD3b3j4mXvkF8-135" style="edgeStyle=orthogonalEdgeStyle;rounded=0;orthogonalLoop=1;jettySize=auto;html=1;exitX=0.5;exitY=1;exitDx=0;exitDy=0;entryX=0.5;entryY=0.5;entryDx=0;entryDy=-30;entryPerimeter=0;fontSize=10;" parent="WIyWlLk6GJQsqaUBKTNV-1" source="spAQAHMtD3b3j4mXvkF8-125" target="spAQAHMtD3b3j4mXvkF8-134" edge="1">
          <mxGeometry relative="1" as="geometry" />
        </mxCell>
        <mxCell id="spAQAHMtD3b3j4mXvkF8-125" value="v_Position =&lt;br&gt;NumAgenicas" style="rhombus;whiteSpace=wrap;html=1;fontSize=10;align=center;" parent="WIyWlLk6GJQsqaUBKTNV-1" vertex="1">
          <mxGeometry x="167.5" y="1590" width="90" height="100" as="geometry" />
        </mxCell>
        <mxCell id="spAQAHMtD3b3j4mXvkF8-129" style="edgeStyle=orthogonalEdgeStyle;rounded=0;orthogonalLoop=1;jettySize=auto;html=1;fontSize=10;exitX=0.476;exitY=0.991;exitDx=0;exitDy=0;exitPerimeter=0;entryX=0.504;entryY=-0.011;entryDx=0;entryDy=0;entryPerimeter=0;" parent="WIyWlLk6GJQsqaUBKTNV-1" source="spAQAHMtD3b3j4mXvkF8-106" target="spAQAHMtD3b3j4mXvkF8-125" edge="1">
          <mxGeometry relative="1" as="geometry">
            <Array as="points">
              <mxPoint x="213" y="1540" />
            </Array>
          </mxGeometry>
        </mxCell>
        <mxCell id="spAQAHMtD3b3j4mXvkF8-130" style="edgeStyle=orthogonalEdgeStyle;rounded=0;orthogonalLoop=1;jettySize=auto;html=1;exitX=0.513;exitY=1.011;exitDx=0;exitDy=0;entryX=0.5;entryY=0;entryDx=0;entryDy=0;fontSize=10;exitPerimeter=0;" parent="WIyWlLk6GJQsqaUBKTNV-1" source="spAQAHMtD3b3j4mXvkF8-115" target="spAQAHMtD3b3j4mXvkF8-125" edge="1">
          <mxGeometry relative="1" as="geometry">
            <Array as="points">
              <mxPoint x="479" y="1560" />
              <mxPoint x="213" y="1560" />
            </Array>
          </mxGeometry>
        </mxCell>
        <mxCell id="spAQAHMtD3b3j4mXvkF8-134" value="Fin del OnHand&amp;nbsp;&lt;br&gt;para Bimbo y Barcel" style="html=1;dashed=0;whitespace=wrap;shape=mxgraph.dfd.start;fontSize=10;align=center;" parent="WIyWlLk6GJQsqaUBKTNV-1" vertex="1">
          <mxGeometry x="147.5" y="1730" width="130" height="60" as="geometry" />
        </mxCell>
        <mxCell id="spAQAHMtD3b3j4mXvkF8-136" style="edgeStyle=orthogonalEdgeStyle;rounded=0;orthogonalLoop=1;jettySize=auto;html=1;exitX=0.492;exitY=0.999;exitDx=0;exitDy=0;fontSize=10;exitPerimeter=0;entryX=0.502;entryY=-0.009;entryDx=0;entryDy=0;entryPerimeter=0;" parent="WIyWlLk6GJQsqaUBKTNV-1" source="spAQAHMtD3b3j4mXvkF8-86" target="spAQAHMtD3b3j4mXvkF8-113" edge="1">
          <mxGeometry relative="1" as="geometry">
            <Array as="points">
              <mxPoint x="220" y="1302" />
              <mxPoint x="220" y="1320" />
              <mxPoint x="220" y="1320" />
            </Array>
          </mxGeometry>
        </mxCell>
        <mxCell id="spAQAHMtD3b3j4mXvkF8-141" value="&lt;font color=&quot;#000080&quot; size=&quot;1&quot;&gt;&lt;b style=&quot;font-size: 25px&quot;&gt;OnHand Placom Bimbo y Barcel&lt;/b&gt;&lt;/font&gt;&amp;nbsp;" style="text;html=1;align=center;verticalAlign=middle;resizable=0;points=[];autosize=1;fontSize=10;" parent="WIyWlLk6GJQsqaUBKTNV-1" vertex="1">
          <mxGeometry x="226.57" y="-30" width="400" height="20" as="geometry" />
        </mxCell>
        <mxCell id="spAQAHMtD3b3j4mXvkF8-142" value="Si" style="text;html=1;align=center;verticalAlign=middle;resizable=0;points=[];autosize=1;fontSize=10;fontStyle=1" parent="WIyWlLk6GJQsqaUBKTNV-1" vertex="1">
          <mxGeometry x="180" y="1705" width="20" height="20" as="geometry" />
        </mxCell>
        <mxCell id="spAQAHMtD3b3j4mXvkF8-143" value="&lt;b&gt;No&lt;/b&gt;" style="text;html=1;align=center;verticalAlign=middle;resizable=0;points=[];autosize=1;fontSize=10;" parent="WIyWlLk6GJQsqaUBKTNV-1" vertex="1">
          <mxGeometry x="130" y="1610" width="30" height="20" as="geometry" />
        </mxCell>
      </root>
    </mxGraphModel>
  </diagram>
</mxfile>
